<?xml version="1.0" encoding="UTF-8" standalone="no"?>
<!-- Created with Inkscape (http://www.inkscape.org/) -->

<svg
   xmlns:dc="http://purl.org/dc/elements/1.1/"
   xmlns:cc="http://creativecommons.org/ns#"
   xmlns:rdf="http://www.w3.org/1999/02/22-rdf-syntax-ns#"
   xmlns:svg="http://www.w3.org/2000/svg"
   xmlns="http://www.w3.org/2000/svg"
   xmlns:sodipodi="http://sodipodi.sourceforge.net/DTD/sodipodi-0.dtd"
   xmlns:inkscape="http://www.inkscape.org/namespaces/inkscape"
   width="318"
   height="218"
   viewBox="0 0 318 218"
   id="svg2"
   version="1.1"
   inkscape:version="0.91 r13725"
   sodipodi:docname="community.svg"
   inkscape:export-filename="/home/trlinux/yaliTema/slideshow/community_1.png"
   inkscape:export-xdpi="90"
   inkscape:export-ydpi="90">
  <defs
     id="defs4" />
  <sodipodi:namedview
     id="base"
     pagecolor="#ffffff"
     bordercolor="#666666"
     borderopacity="1.0"
     inkscape:pageopacity="0.0"
     inkscape:pageshadow="2"
     inkscape:zoom="1.4"
     inkscape:cx="91.552581"
     inkscape:cy="128.02681"
     inkscape:document-units="px"
     inkscape:current-layer="layer1"
     showgrid="false"
     units="px"
     inkscape:window-width="1366"
     inkscape:window-height="711"
     inkscape:window-x="0"
     inkscape:window-y="0"
     inkscape:window-maximized="1" />
  <metadata
     id="metadata7">
    <rdf:RDF>
      <cc:Work
         rdf:about="">
        <dc:format>image/svg+xml</dc:format>
        <dc:type
           rdf:resource="http://purl.org/dc/dcmitype/StillImage" />
        <dc:title />
      </cc:Work>
    </rdf:RDF>
  </metadata>
  <g
     inkscape:label="Layer 1"
     inkscape:groupmode="layer"
     id="layer1"
     transform="translate(0,-834.36216)">
    <path
       style="fill:#ffffff;fill-rule:evenodd;stroke:#000000;stroke-width:1px;stroke-linecap:butt;stroke-linejoin:miter;stroke-opacity:1"
       d="m 261.76618,989.3644 -13.21429,-2.32143 -12.32143,-5.53571 -15,-15.35715 -7.14285,-13.39285 7.32143,-14.82143 11.24999,-19.82143 13.57143,-10.71429 11.96429,-5.17857 12.5,1.25 17.85714,8.57143 12.14286,18.92857 10,22.85715 -6.96429,13.39285 -9.82143,10.71429 -13.39285,8.57143 z"
       id="path3390-3-6"
       inkscape:connector-curvature="0" />
    <path
       style="fill:#ffffff;fill-rule:evenodd;stroke:#000000;stroke-width:1px;stroke-linecap:butt;stroke-linejoin:miter;stroke-opacity:1"
       d="m 157.46793,987.34409 -13.21429,-2.32143 -12.32143,-5.53571 -15,-15.35715 -7.14285,-13.39285 7.32143,-14.82143 11.24999,-19.82143 13.57143,-10.71429 11.96429,-5.17857 12.5,1.25 17.85714,8.57143 12.14286,18.92857 10,22.85715 -6.96429,13.39285 -9.82143,10.71429 -13.39285,8.57143 z"
       id="path3390-3"
       inkscape:connector-curvature="0" />
    <path
       style="fill:#ffffff;fill-rule:evenodd;stroke:#000000;stroke-width:1px;stroke-linecap:butt;stroke-linejoin:miter;stroke-opacity:1"
       d="m 52.678571,988.61216 -13.214286,-2.32143 -12.321428,-5.53571 -15,-15.35715 L 5,952.00502 l 7.321429,-14.82143 11.249999,-19.82143 13.571429,-10.71429 11.964286,-5.17857 12.5,1.25 17.857142,8.57143 12.142857,18.92857 9.999998,22.85715 -6.964283,13.39285 -9.821429,10.71429 -13.392857,8.57143 z"
       id="path3390"
       inkscape:connector-curvature="0" />
    <path
       inkscape:connector-curvature="0"
       id="path4218"
       d="m 140.11153,908.53375 12.54598,19.7916 1.84783,-0.82667 -4.66827,-24.60573 -2.09098,0.63213 3.79297,19.40254 -10.01733,-15.85267 z"
       style="fill:#333333;fill-opacity:1;fill-rule:evenodd;stroke:#333333;stroke-width:0.81952637;stroke-linecap:butt;stroke-linejoin:miter;stroke-miterlimit:4;stroke-dasharray:none;stroke-opacity:1" />
    <path
       inkscape:connector-curvature="0"
       id="path4235"
       d="m 150.91109,902.92815 6.31742,23.74387 2.09098,-0.2432 1.94513,-24.70294 -2.09101,-0.19453 -1.4102,19.01346 -4.96003,-18.3812 z"
       style="fill:#333333;fill-opacity:1;fill-rule:evenodd;stroke:#333333;stroke-width:0.81952637;stroke-linecap:butt;stroke-linejoin:miter;stroke-miterlimit:4;stroke-dasharray:none;stroke-opacity:1" />
    <path
       style="fill:#333333;fill-opacity:1;fill-rule:evenodd;stroke:#333333;stroke-width:0.81952637;stroke-linecap:butt;stroke-linejoin:miter;stroke-miterlimit:4;stroke-dasharray:none;stroke-opacity:1"
       d="m 199.10949,932.98468 -1.47856,-2.6476 c 7.78248,-5.84546 7.45009,-20.01213 3.12904,-33.62853 -9.69659,1.0544 -15.47328,3.1404 -22.28154,9.35266 l -2.41281,-1.86133 c 8.36899,-6.73787 14.26224,-8.5244 26.34483,-10.31093 4.33252,14.6824 6.94577,28.81467 -3.30096,39.09573 z"
       id="path4201-7"
       inkscape:connector-curvature="0"
       sodipodi:nodetypes="ccccccc" />
    <path
       style="fill:#333333;fill-opacity:1;fill-rule:evenodd;stroke:#333333;stroke-width:0.81952637;stroke-linecap:butt;stroke-linejoin:miter;stroke-miterlimit:4;stroke-dasharray:none;stroke-opacity:1"
       d="m 117.91863,933.01508 1.47856,-2.6476 c -7.78248,-5.84546 -7.45009,-20.01213 -3.12904,-33.62867 9.69659,1.05454 15.47328,3.14054 22.28151,9.3528 l 2.41284,-1.86133 c -8.36899,-6.738 -14.26225,-8.52453 -26.34483,-10.31107 -4.3325,14.68254 -6.94577,28.81467 3.30096,39.09587 z"
       id="path4201"
       inkscape:connector-curvature="0"
       sodipodi:nodetypes="ccccccc" />
    <path
       style="fill:#333333;fill-opacity:1;fill-rule:evenodd;stroke:#333333;stroke-width:0.81952637;stroke-linecap:butt;stroke-linejoin:miter;stroke-miterlimit:4;stroke-dasharray:none;stroke-opacity:1"
       d="m 109.11738,951.54508 3.03317,-0.26746 c 0,0 10.46271,33.9944 46.87718,33.65053 36.41449,-0.34387 45.90465,-33.456 45.90465,-33.456 0,0 -17.74848,-49.5112 -46.47149,-49.788 -28.76567,-0.27707 -46.33614,49.58947 -46.33614,49.58947 l -3.0085,-0.41534 c 0,0 17.3979,-52.34267 49.60302,-52.09173 32.20515,0.25093 49.42254,52.51107 49.42254,52.51107 0,0 -11.02334,36.59173 -49.11408,36.9572 -38.09072,0.36546 -49.91035,-36.68974 -49.91035,-36.68974 z"
       id="path4199"
       inkscape:connector-curvature="0"
       sodipodi:nodetypes="cczcscczczc" />
    <path
       style="fill:#333333;fill-opacity:1;fill-rule:evenodd;stroke:#333333;stroke-width:0.81952637;stroke-linecap:butt;stroke-linejoin:miter;stroke-miterlimit:4;stroke-dasharray:none;stroke-opacity:1"
       d="m 131.87799,944.17548 c 0,0 8.44667,-2.42893 13.09216,2.2504 4.64552,4.67947 2.04036,13.6416 2.04036,13.6416 0,0 -8.86349,2.02547 -13.24557,-3.1268 -4.38208,-5.15213 -2.35232,-12.33346 -2.35232,-12.33346 l 2.10357,1.4436 c 0,0 -1.92693,5.852 1.70462,9.81013 3.63156,3.95813 10.01732,2.35373 10.01732,2.35373 0,0 2.15518,-6.92826 -1.55586,-10.53733 -3.71104,-3.6092 -10.11301,-1.4852 -10.11301,-1.4852 z"
       id="path4237"
       inkscape:connector-curvature="0"
       sodipodi:nodetypes="czczcczczcc" />
    <path
       style="fill:#333333;fill-opacity:1;stroke:#333333;stroke-width:2.05045509;stroke-linecap:round;stroke-linejoin:round;stroke-miterlimit:4;stroke-dasharray:none;stroke-dashoffset:50;stroke-opacity:1"
       id="path4239"
       sodipodi:type="arc"
       sodipodi:cx="140.80042"
       sodipodi:cy="950.32928"
       sodipodi:rx="3.6597853"
       sodipodi:ry="3.5360246"
       sodipodi:start="0"
       sodipodi:end="6.2784904"
       sodipodi:open="true"
       d="m 144.4602,950.32928 a 3.6597853,3.5360246 0 0 1 -3.65549,3.53603 3.6597853,3.5360246 0 0 1 -3.66407,-3.52772 3.6597853,3.5360246 0 0 1 3.64689,-3.54431 3.6597853,3.5360246 0 0 1 3.67263,3.5194" />
    <path
       style="fill:#333333;fill-opacity:1;fill-rule:evenodd;stroke:#333333;stroke-width:0.81952637;stroke-linecap:butt;stroke-linejoin:miter;stroke-miterlimit:4;stroke-dasharray:none;stroke-opacity:1"
       d="m 185.46122,943.85975 c 0,0 -8.44665,-2.42893 -13.09219,2.2504 -4.64552,4.67947 -2.04034,13.64147 -2.04034,13.64147 0,0 8.8635,2.0256 13.24558,-3.12654 4.38206,-5.15226 2.35231,-12.3336 2.35231,-12.3336 l -2.10357,1.44347 c 0,0 1.92692,5.85213 -1.70463,9.8104 -3.63156,3.95813 -10.01732,2.3536 -10.01732,2.3536 0,0 -2.1552,-6.92827 1.55585,-10.53733 3.71107,-3.6092 10.11304,-1.4852 10.11304,-1.4852 z"
       id="path4237-7"
       inkscape:connector-curvature="0"
       sodipodi:nodetypes="czczcczczcc" />
    <path
       style="fill:#333333;fill-opacity:1;stroke:#333333;stroke-width:2.05045509;stroke-linecap:round;stroke-linejoin:round;stroke-miterlimit:4;stroke-dasharray:none;stroke-dashoffset:50;stroke-opacity:1"
       id="path4239-2"
       sodipodi:type="arc"
       sodipodi:cx="-176.53882"
       sodipodi:cy="950.01355"
       sodipodi:rx="3.6597853"
       sodipodi:ry="3.5360246"
       sodipodi:start="0"
       sodipodi:end="6.2784904"
       sodipodi:open="true"
       d="m -172.87903,950.01355 a 3.6597853,3.5360246 0 0 1 -3.65549,3.53602 3.6597853,3.5360246 0 0 1 -3.66407,-3.52772 3.6597853,3.5360246 0 0 1 3.64688,-3.5443 3.6597853,3.5360246 0 0 1 3.67264,3.5194"
       transform="scale(-1,1)" />
    <path
       style="fill:#333333;fill-opacity:1;fill-rule:evenodd;stroke:#333333;stroke-width:0.81952637;stroke-linecap:butt;stroke-linejoin:miter;stroke-miterlimit:4;stroke-dasharray:none;stroke-opacity:1"
       d="m 149.87031,966.34762 c 0,0 4.6852,-1.29974 8.34502,-1.3084 3.65985,-0.0133 8.9108,1.34386 8.9108,1.34386 l -6.34719,7.7216 c -0.67136,0.81707 -0.81033,0.58054 -1.21548,0.862 l -0.0133,3.92054 -2.0023,-0.0133 -0.003,-3.90293 c -0.414,-0.29173 -0.64782,-0.176 -1.24202,-0.8748 z"
       id="path4265"
       inkscape:connector-curvature="0"
       sodipodi:nodetypes="czcccccccc" />
    <path
       style="fill:#333333;fill-opacity:1;fill-rule:evenodd;stroke:#333333;stroke-width:0.81952637;stroke-linecap:butt;stroke-linejoin:miter;stroke-miterlimit:4;stroke-dasharray:none;stroke-opacity:1"
       d="m 142.68487,968.88922 c -0.37277,-0.47614 -0.77944,-0.26974 -0.77944,-0.26974 l -26.01997,20.21587 c 0,0 -0.47531,0.46667 -0.13536,0.92467 0.33992,0.45786 0.98549,0.25666 0.98549,0.25666 l 26.0036,-20.32786 c 0,0 0.31843,-0.32334 -0.0543,-0.7996 z"
       id="path4267"
       inkscape:connector-curvature="0"
       sodipodi:nodetypes="zcczccz" />
    <path
       style="fill:#333333;fill-opacity:1;fill-rule:evenodd;stroke:#333333;stroke-width:0.81952637;stroke-linecap:butt;stroke-linejoin:miter;stroke-miterlimit:4;stroke-dasharray:none;stroke-opacity:1"
       d="m 148.20715,969.92162 c -0.37276,-0.47614 -0.77942,-0.2696 -0.77942,-0.2696 l -26.01999,20.2156 c 0,0 -0.47529,0.4668 -0.13536,0.92466 0.33993,0.458 0.98549,0.2568 0.98549,0.2568 l 26.00359,-20.32786 c 0,0 0.31845,-0.32334 -0.0543,-0.7996 z"
       id="path4267-8"
       inkscape:connector-curvature="0"
       sodipodi:nodetypes="zcczccz" />
    <path
       style="fill:#333333;fill-opacity:1;fill-rule:evenodd;stroke:#333333;stroke-width:0.81952637;stroke-linecap:butt;stroke-linejoin:miter;stroke-miterlimit:4;stroke-dasharray:none;stroke-opacity:1"
       d="m 174.16709,968.91028 c 0.37277,-0.47613 0.77945,-0.2696 0.77945,-0.2696 l 26.01996,20.21574 c 0,0 0.47532,0.46666 0.13527,0.92466 -0.33991,0.458 -0.98548,0.2568 -0.98548,0.2568 l -26.00362,-20.32786 c 0,0 -0.31844,-0.32347 0.0543,-0.79974 z"
       id="path4267-1"
       inkscape:connector-curvature="0"
       sodipodi:nodetypes="zcczccz" />
    <path
       style="fill:#333333;fill-opacity:1;fill-rule:evenodd;stroke:#333333;stroke-width:0.81952637;stroke-linecap:butt;stroke-linejoin:miter;stroke-miterlimit:4;stroke-dasharray:none;stroke-opacity:1"
       d="m 168.64481,969.94282 c 0.37274,-0.47614 0.77942,-0.26974 0.77942,-0.26974 l 26.01999,20.21574 c 0,0 0.47531,0.4668 0.13547,0.92466 -0.33992,0.45787 -0.98548,0.25667 -0.98548,0.25667 l -26.00366,-20.32787 c 0,0 -0.31844,-0.3232 0.0543,-0.79946 z"
       id="path4267-8-2"
       inkscape:connector-curvature="0"
       sodipodi:nodetypes="zcczccz" />
    <path
       inkscape:connector-curvature="0"
       id="path4218-0"
       d="m 35.071278,910.03355 12.545987,19.7916 1.847826,-0.82667 -4.668266,-24.60573 -2.090987,0.63213 3.792973,19.40255 -10.017333,-15.85267 z"
       style="fill:#004455;fill-opacity:1;fill-rule:evenodd;stroke:#004455;stroke-width:0.81952637;stroke-linecap:butt;stroke-linejoin:miter;stroke-miterlimit:4;stroke-dasharray:none;stroke-opacity:1" />
    <path
       inkscape:connector-curvature="0"
       id="path4235-6"
       d="m 45.870838,904.42795 6.317427,23.74387 2.090973,-0.2432 1.945134,-24.70294 -2.091014,-0.19453 -1.4102,19.01346 -4.960027,-18.3812 z"
       style="fill:#004455;fill-opacity:1;fill-rule:evenodd;stroke:#004455;stroke-width:0.81952637;stroke-linecap:butt;stroke-linejoin:miter;stroke-miterlimit:4;stroke-dasharray:none;stroke-opacity:1" />
    <path
       style="fill:#004455;fill-opacity:1;fill-rule:evenodd;stroke:#004455;stroke-width:0.81952637;stroke-linecap:butt;stroke-linejoin:miter;stroke-miterlimit:4;stroke-dasharray:none;stroke-opacity:1"
       d="m 94.069241,934.48448 -1.47856,-2.64758 c 7.782479,-5.84547 7.450089,-20.01214 3.12904,-33.62855 -9.696589,1.0544 -15.473282,3.14041 -22.281536,9.35266 l -2.412813,-1.86132 c 8.368987,-6.73786 14.26224,-8.5244 26.344829,-10.31093 4.332519,14.6824 6.945769,28.81467 -3.30096,39.09574 z"
       id="path4201-7-2"
       inkscape:connector-curvature="0"
       sodipodi:nodetypes="ccccccc" />
    <path
       style="fill:#004455;fill-opacity:1;fill-rule:evenodd;stroke:#004455;stroke-width:0.81952637;stroke-linecap:butt;stroke-linejoin:miter;stroke-miterlimit:4;stroke-dasharray:none;stroke-opacity:1"
       d="m 12.878384,934.51488 1.47856,-2.6476 c -7.7824803,-5.84546 -7.4500933,-20.01213 -3.12904,-33.62867 9.696587,1.05454 15.47328,3.14055 22.281507,9.3528 l 2.41284,-1.86133 C 27.553264,898.99209 21.659998,897.20555 9.5774236,895.41903 5.2449167,910.10155 2.6316507,924.2337 12.878384,934.5149 Z"
       id="path4201-6"
       inkscape:connector-curvature="0"
       sodipodi:nodetypes="ccccccc" />
    <path
       style="fill:#004455;fill-opacity:1;fill-rule:evenodd;stroke:#004455;stroke-width:0.81952637;stroke-linecap:butt;stroke-linejoin:miter;stroke-miterlimit:4;stroke-dasharray:none;stroke-opacity:1"
       d="m 4.0771307,953.04488 3.033173,-0.26746 c 0,0 10.4627073,33.9944 46.8771743,33.65053 36.414493,-0.34387 45.904651,-33.456 45.904651,-33.456 0,0 -17.748477,-49.5112 -46.471491,-49.788 -28.765667,-0.27707 -46.3361343,49.58947 -46.3361343,49.58947 l -3.008507,-0.41534 c 0,0 17.3979073,-52.34267 49.6030283,-52.09173 32.205147,0.25093 49.422535,52.51107 49.422535,52.51107 0,0 -11.023339,36.59173 -49.114082,36.9572 C 15.896757,990.10008 4.0771307,953.04488 4.0771307,953.04488 Z"
       id="path4199-1"
       inkscape:connector-curvature="0"
       sodipodi:nodetypes="cczcscczczc" />
    <path
       style="fill:#004455;fill-opacity:1;fill-rule:evenodd;stroke:#004455;stroke-width:0.81952637;stroke-linecap:butt;stroke-linejoin:miter;stroke-miterlimit:4;stroke-dasharray:none;stroke-opacity:1"
       d="m 26.837744,945.67528 c 0,0 8.446667,-2.42892 13.092161,2.25042 4.64552,4.67945 2.04036,13.64158 2.04036,13.64158 0,0 -8.863494,2.02547 -13.245574,-3.1268 -4.38208,-5.15213 -2.35232,-12.33346 -2.35232,-12.33346 l 2.103573,1.44361 c 0,0 -1.926933,5.852 1.704614,9.81013 3.63156,3.95814 10.01732,2.35374 10.01732,2.35374 0,0 2.155187,-6.92827 -1.555853,-10.53734 -3.71104,-3.6092 -10.113014,-1.4852 -10.113014,-1.4852 z"
       id="path4237-8"
       inkscape:connector-curvature="0"
       sodipodi:nodetypes="czczcczczcc" />
    <path
       style="fill:#004455;fill-opacity:1;stroke:#004455;stroke-width:2.05045509;stroke-linecap:round;stroke-linejoin:round;stroke-miterlimit:4;stroke-dasharray:none;stroke-dashoffset:50;stroke-opacity:1"
       id="path4239-7"
       sodipodi:type="arc"
       sodipodi:cx="35.760159"
       sodipodi:cy="951.8291"
       sodipodi:rx="3.6597853"
       sodipodi:ry="3.5360246"
       sodipodi:start="0"
       sodipodi:end="6.2784904"
       sodipodi:open="true"
       d="m 39.419944,951.8291 a 3.6597853,3.5360246 0 0 1 -3.65549,3.53602 3.6597853,3.5360246 0 0 1 -3.664071,-3.52772 3.6597853,3.5360246 0 0 1 3.646889,-3.5443 3.6597853,3.5360246 0 0 1 3.672631,3.5194" />
    <path
       style="fill:#004455;fill-opacity:1;fill-rule:evenodd;stroke:#004455;stroke-width:0.81952637;stroke-linecap:butt;stroke-linejoin:miter;stroke-miterlimit:4;stroke-dasharray:none;stroke-opacity:1"
       d="m 80.420972,945.35955 c 0,0 -8.446653,-2.42893 -13.092187,2.2504 -4.64552,4.67947 -2.040347,13.64147 -2.040347,13.64147 0,0 8.863507,2.0256 13.245587,-3.12654 4.382054,-5.15226 2.352307,-12.3336 2.352307,-12.3336 l -2.103573,1.44347 c 0,0 1.92692,5.85213 -1.704627,9.8104 -3.63156,3.95813 -10.01732,2.3536 -10.01732,2.3536 0,0 -2.1552,-6.92827 1.555853,-10.53733 3.711067,-3.6092 10.11304,-1.4852 10.11304,-1.4852 z"
       id="path4237-7-9"
       inkscape:connector-curvature="0"
       sodipodi:nodetypes="czczcczczcc" />
    <path
       style="fill:#004455;fill-opacity:1;stroke:#004455;stroke-width:2.05045509;stroke-linecap:round;stroke-linejoin:round;stroke-miterlimit:4;stroke-dasharray:none;stroke-dashoffset:50;stroke-opacity:1"
       id="path4239-2-2"
       sodipodi:type="arc"
       sodipodi:cx="-71.498566"
       sodipodi:cy="951.51331"
       sodipodi:rx="3.6597853"
       sodipodi:ry="3.5360246"
       sodipodi:start="0"
       sodipodi:end="6.2784904"
       sodipodi:open="true"
       d="m -67.83878,951.51331 a 3.6597853,3.5360246 0 0 1 -3.65549,3.53602 3.6597853,3.5360246 0 0 1 -3.664071,-3.52772 3.6597853,3.5360246 0 0 1 3.646889,-3.54431 3.6597853,3.5360246 0 0 1 3.672631,3.5194"
       transform="scale(-1,1)" />
    <path
       style="fill:#004455;fill-opacity:1;fill-rule:evenodd;stroke:#004455;stroke-width:0.81952637;stroke-linecap:butt;stroke-linejoin:miter;stroke-miterlimit:4;stroke-dasharray:none;stroke-opacity:1"
       d="m 44.830065,967.84742 c 0,0 4.6852,-1.29972 8.345013,-1.3084 3.659854,-0.0133 8.9108,1.34386 8.9108,1.34386 l -6.347186,7.7216 c -0.67136,0.81707 -0.810334,0.58054 -1.21548,0.862 l -0.01333,3.92054 -2.002293,-0.0133 -0.0027,-3.90293 c -0.414,-0.29173 -0.647813,-0.176 -1.242013,-0.8748 z"
       id="path4265-0"
       inkscape:connector-curvature="0"
       sodipodi:nodetypes="czcccccccc" />
    <path
       style="fill:#004455;fill-opacity:1;fill-rule:evenodd;stroke:#004455;stroke-width:0.81952637;stroke-linecap:butt;stroke-linejoin:miter;stroke-miterlimit:4;stroke-dasharray:none;stroke-opacity:1"
       d="m 37.644625,970.38902 c -0.372774,-0.47612 -0.77944,-0.26974 -0.77944,-0.26974 l -26.019974,20.21587 c 0,0 -0.475307,0.46667 -0.13536,0.92467 0.33992,0.45786 0.985493,0.25666 0.985493,0.25666 l 26.003601,-20.32786 c 0,0 0.318426,-0.32334 -0.05427,-0.7996 z"
       id="path4267-2"
       inkscape:connector-curvature="0"
       sodipodi:nodetypes="zcczccz" />
    <path
       style="fill:#004455;fill-opacity:1;fill-rule:evenodd;stroke:#004455;stroke-width:0.81952637;stroke-linecap:butt;stroke-linejoin:miter;stroke-miterlimit:4;stroke-dasharray:none;stroke-opacity:1"
       d="m 43.166905,971.42143 c -0.37276,-0.47613 -0.779427,-0.2696 -0.779427,-0.2696 l -26.019987,20.2156 c 0,0 -0.475294,0.4668 -0.13536,0.92467 0.339933,0.45798 0.985493,0.2568 0.985493,0.2568 l 26.003587,-20.32788 c 0,0 0.318454,-0.32332 -0.05427,-0.79959 z"
       id="path4267-8-3"
       inkscape:connector-curvature="0"
       sodipodi:nodetypes="zcczccz" />
    <path
       style="fill:#004455;fill-opacity:1;fill-rule:evenodd;stroke:#004455;stroke-width:0.81952637;stroke-linecap:butt;stroke-linejoin:miter;stroke-miterlimit:4;stroke-dasharray:none;stroke-opacity:1"
       d="m 69.126839,970.41008 c 0.372773,-0.47612 0.779453,-0.26958 0.779453,-0.26958 l 26.019959,20.21573 c 0,0 0.47532,0.46667 0.13527,0.92465 -0.33991,0.458 -0.98548,0.2568 -0.98548,0.2568 L 69.072425,971.20982 c 0,0 -0.31844,-0.32347 0.05427,-0.79974 z"
       id="path4267-1-7"
       inkscape:connector-curvature="0"
       sodipodi:nodetypes="zcczccz" />
    <path
       style="fill:#004455;fill-opacity:1;fill-rule:evenodd;stroke:#004455;stroke-width:0.81952637;stroke-linecap:butt;stroke-linejoin:miter;stroke-miterlimit:4;stroke-dasharray:none;stroke-opacity:1"
       d="m 63.604558,971.44263 c 0.372747,-0.47613 0.779427,-0.26975 0.779427,-0.26975 l 26.019986,20.21574 c 0,0 0.47531,0.4668 0.13547,0.92466 -0.33992,0.45787 -0.98548,0.25667 -0.98548,0.25667 L 63.550305,972.24208 c 0,0 -0.31844,-0.3232 0.05427,-0.79946 z"
       id="path4267-8-2-5"
       inkscape:connector-curvature="0"
       sodipodi:nodetypes="zcczccz" />
    <path
       inkscape:connector-curvature="0"
       id="path4218-0-9"
       d="m 244.39725,910.44235 12.54598,19.7916 1.84783,-0.82667 -4.66827,-24.60573 -2.09098,0.63213 3.79297,19.40255 -10.01733,-15.85267 z"
       style="fill:#782121;fill-opacity:1;fill-rule:evenodd;stroke:#782121;stroke-width:0.81952637;stroke-linecap:butt;stroke-linejoin:miter;stroke-miterlimit:4;stroke-dasharray:none;stroke-opacity:1" />
    <path
       inkscape:connector-curvature="0"
       id="path4235-6-2"
       d="m 255.19681,904.83675 6.31742,23.74387 2.09098,-0.2432 1.94513,-24.70294 -2.09101,-0.19453 -1.4102,19.01346 -4.96003,-18.3812 z"
       style="fill:#782121;fill-opacity:1;fill-rule:evenodd;stroke:#782121;stroke-width:0.81952637;stroke-linecap:butt;stroke-linejoin:miter;stroke-miterlimit:4;stroke-dasharray:none;stroke-opacity:1" />
    <path
       style="fill:#782121;fill-opacity:1;fill-rule:evenodd;stroke:#782121;stroke-width:0.81952637;stroke-linecap:butt;stroke-linejoin:miter;stroke-miterlimit:4;stroke-dasharray:none;stroke-opacity:1"
       d="m 303.39521,934.89328 -1.47856,-2.64758 c 7.78248,-5.84547 7.45009,-20.01214 3.12904,-33.62855 -9.69659,1.0544 -15.47328,3.14041 -22.28154,9.35266 l -2.41281,-1.86132 c 8.36899,-6.73786 14.26224,-8.5244 26.34483,-10.31093 4.33252,14.6824 6.94577,28.81467 -3.30096,39.09574 z"
       id="path4201-7-2-2"
       inkscape:connector-curvature="0"
       sodipodi:nodetypes="ccccccc" />
    <path
       style="fill:#782121;fill-opacity:1;fill-rule:evenodd;stroke:#782121;stroke-width:0.81952637;stroke-linecap:butt;stroke-linejoin:miter;stroke-miterlimit:4;stroke-dasharray:none;stroke-opacity:1"
       d="m 222.20435,934.92368 1.47856,-2.6476 c -7.78248,-5.84546 -7.45009,-20.01213 -3.12904,-33.62867 9.69659,1.05454 15.47328,3.14055 22.28151,9.3528 l 2.41284,-1.86133 c -8.36899,-6.73799 -14.26225,-8.52453 -26.34483,-10.31105 -4.3325,14.68252 -6.94577,28.81467 3.30096,39.09587 z"
       id="path4201-6-8"
       inkscape:connector-curvature="0"
       sodipodi:nodetypes="ccccccc" />
    <path
       style="fill:#782121;fill-opacity:1;fill-rule:evenodd;stroke:#782121;stroke-width:0.81952637;stroke-linecap:butt;stroke-linejoin:miter;stroke-miterlimit:4;stroke-dasharray:none;stroke-opacity:1"
       d="m 213.4031,953.45368 3.03317,-0.26746 c 0,0 10.46271,33.9944 46.87718,33.65053 36.41449,-0.34387 45.90465,-33.456 45.90465,-33.456 0,0 -17.74848,-49.5112 -46.47149,-49.788 -28.76567,-0.27707 -46.33614,49.58947 -46.33614,49.58947 l -3.0085,-0.41534 c 0,0 17.3979,-52.34267 49.60302,-52.09173 32.20515,0.25093 49.42254,52.51107 49.42254,52.51107 0,0 -11.02334,36.59173 -49.11408,36.9572 -38.09072,0.36546 -49.91035,-36.68974 -49.91035,-36.68974 z"
       id="path4199-1-9"
       inkscape:connector-curvature="0"
       sodipodi:nodetypes="cczcscczczc" />
    <path
       style="fill:#782121;fill-opacity:1;fill-rule:evenodd;stroke:#782121;stroke-width:0.81952637;stroke-linecap:butt;stroke-linejoin:miter;stroke-miterlimit:4;stroke-dasharray:none;stroke-opacity:1"
       d="m 236.16371,946.08408 c 0,0 8.44667,-2.42892 13.09216,2.25042 4.64552,4.67945 2.04036,13.64158 2.04036,13.64158 0,0 -8.86349,2.02547 -13.24557,-3.1268 -4.38208,-5.15213 -2.35232,-12.33346 -2.35232,-12.33346 l 2.10357,1.44361 c 0,0 -1.92693,5.852 1.70462,9.81013 3.63156,3.95814 10.01732,2.35374 10.01732,2.35374 0,0 2.15518,-6.92827 -1.55586,-10.53734 -3.71104,-3.6092 -10.11301,-1.4852 -10.11301,-1.4852 z"
       id="path4237-8-7"
       inkscape:connector-curvature="0"
       sodipodi:nodetypes="czczcczczcc" />
    <path
       style="fill:#782121;fill-opacity:1;stroke:#782121;stroke-width:2.05045509;stroke-linecap:round;stroke-linejoin:round;stroke-miterlimit:4;stroke-dasharray:none;stroke-dashoffset:50;stroke-opacity:1"
       id="path4239-7-3"
       sodipodi:type="arc"
       sodipodi:cx="245.08614"
       sodipodi:cy="952.23785"
       sodipodi:rx="3.6597853"
       sodipodi:ry="3.5360246"
       sodipodi:start="0"
       sodipodi:end="6.2784904"
       sodipodi:open="true"
       d="m 248.74592,952.23785 a 3.6597853,3.5360246 0 0 1 -3.65549,3.53603 3.6597853,3.5360246 0 0 1 -3.66407,-3.52773 3.6597853,3.5360246 0 0 1 3.64689,-3.5443 3.6597853,3.5360246 0 0 1 3.67263,3.5194" />
    <path
       style="fill:#782121;fill-opacity:1;fill-rule:evenodd;stroke:#782121;stroke-width:0.81952637;stroke-linecap:butt;stroke-linejoin:miter;stroke-miterlimit:4;stroke-dasharray:none;stroke-opacity:1"
       d="m 289.74694,945.76835 c 0,0 -8.44665,-2.42893 -13.09219,2.2504 -4.64552,4.67947 -2.04034,13.64147 -2.04034,13.64147 0,0 8.8635,2.0256 13.24558,-3.12654 4.38206,-5.15226 2.35231,-12.3336 2.35231,-12.3336 l -2.10357,1.44347 c 0,0 1.92692,5.85213 -1.70463,9.8104 -3.63156,3.95813 -10.01732,2.3536 -10.01732,2.3536 0,0 -2.1552,-6.92827 1.55585,-10.53733 3.71107,-3.6092 10.11304,-1.4852 10.11304,-1.4852 z"
       id="path4237-7-9-6"
       inkscape:connector-curvature="0"
       sodipodi:nodetypes="czczcczczcc" />
    <path
       style="fill:#782121;fill-opacity:1;stroke:#782121;stroke-width:2.05045509;stroke-linecap:round;stroke-linejoin:round;stroke-miterlimit:4;stroke-dasharray:none;stroke-dashoffset:50;stroke-opacity:1"
       id="path4239-2-2-1"
       sodipodi:type="arc"
       sodipodi:cx="-280.82455"
       sodipodi:cy="951.92206"
       sodipodi:rx="3.6597853"
       sodipodi:ry="3.5360246"
       sodipodi:start="0"
       sodipodi:end="6.2784904"
       sodipodi:open="true"
       d="m -277.16477,951.92206 a 3.6597853,3.5360246 0 0 1 -3.65549,3.53602 3.6597853,3.5360246 0 0 1 -3.66407,-3.52772 3.6597853,3.5360246 0 0 1 3.64689,-3.5443 3.6597853,3.5360246 0 0 1 3.67263,3.5194"
       transform="scale(-1,1)" />
    <path
       style="fill:#782121;fill-opacity:1;fill-rule:evenodd;stroke:#782121;stroke-width:0.81952637;stroke-linecap:butt;stroke-linejoin:miter;stroke-miterlimit:4;stroke-dasharray:none;stroke-opacity:1"
       d="m 254.15603,968.25622 c 0,0 4.6852,-1.29972 8.34502,-1.3084 3.65985,-0.0133 8.9108,1.34386 8.9108,1.34386 l -6.34719,7.7216 c -0.67136,0.81707 -0.81033,0.58054 -1.21548,0.862 l -0.0133,3.92054 -2.0023,-0.0133 -0.003,-3.90293 c -0.414,-0.29173 -0.64782,-0.176 -1.24202,-0.8748 z"
       id="path4265-0-2"
       inkscape:connector-curvature="0"
       sodipodi:nodetypes="czcccccccc" />
    <path
       style="fill:#782121;fill-opacity:1;fill-rule:evenodd;stroke:#782121;stroke-width:0.81952637;stroke-linecap:butt;stroke-linejoin:miter;stroke-miterlimit:4;stroke-dasharray:none;stroke-opacity:1"
       d="m 246.97059,970.79782 c -0.37277,-0.47612 -0.77944,-0.26974 -0.77944,-0.26974 l -26.01997,20.21587 c 0,0 -0.47531,0.46667 -0.13536,0.92467 0.33992,0.45786 0.98549,0.25666 0.98549,0.25666 l 26.0036,-20.32786 c 0,0 0.31843,-0.32334 -0.0543,-0.7996 z"
       id="path4267-2-9"
       inkscape:connector-curvature="0"
       sodipodi:nodetypes="zcczccz" />
    <path
       style="fill:#782121;fill-opacity:1;fill-rule:evenodd;stroke:#782121;stroke-width:0.81952637;stroke-linecap:butt;stroke-linejoin:miter;stroke-miterlimit:4;stroke-dasharray:none;stroke-opacity:1"
       d="m 252.49287,971.83023 c -0.37276,-0.47613 -0.77942,-0.2696 -0.77942,-0.2696 l -26.01999,20.2156 c 0,0 -0.47529,0.4668 -0.13536,0.92467 0.33993,0.45798 0.98549,0.2568 0.98549,0.2568 l 26.00359,-20.32788 c 0,0 0.31845,-0.32332 -0.0543,-0.79959 z"
       id="path4267-8-3-3"
       inkscape:connector-curvature="0"
       sodipodi:nodetypes="zcczccz" />
    <path
       style="fill:#782121;fill-opacity:1;fill-rule:evenodd;stroke:#782121;stroke-width:0.81952637;stroke-linecap:butt;stroke-linejoin:miter;stroke-miterlimit:4;stroke-dasharray:none;stroke-opacity:1"
       d="m 278.45281,970.81888 c 0.37277,-0.47612 0.77945,-0.26958 0.77945,-0.26958 l 26.01996,20.21573 c 0,0 0.47532,0.46667 0.13527,0.92465 -0.33991,0.458 -0.98548,0.2568 -0.98548,0.2568 l -26.00362,-20.32786 c 0,0 -0.31844,-0.32347 0.0543,-0.79974 z"
       id="path4267-1-7-1"
       inkscape:connector-curvature="0"
       sodipodi:nodetypes="zcczccz" />
    <path
       style="fill:#782121;fill-opacity:1;fill-rule:evenodd;stroke:#782121;stroke-width:0.81952637;stroke-linecap:butt;stroke-linejoin:miter;stroke-miterlimit:4;stroke-dasharray:none;stroke-opacity:1"
       d="m 272.93053,971.85143 c 0.37274,-0.47613 0.77942,-0.26975 0.77942,-0.26975 l 26.01999,20.21574 c 0,0 0.47531,0.4668 0.13547,0.92466 -0.33992,0.45787 -0.98548,0.25667 -0.98548,0.25667 l -26.00366,-20.32787 c 0,0 -0.31844,-0.3232 0.0543,-0.79946 z"
       id="path4267-8-2-5-9"
       inkscape:connector-curvature="0"
       sodipodi:nodetypes="zcczccz" />
    <path
       style="fill:#004455;fill-opacity:1;fill-rule:evenodd;stroke:none;stroke-width:1px;stroke-linecap:butt;stroke-linejoin:miter;stroke-opacity:1"
       d="m 46.920733,927.22066 -11.616754,-18.68783 8.417938,-5.05076 z"
       id="path4178"
       inkscape:connector-curvature="0" />
    <path
       style="fill:#004455;fill-opacity:1;fill-rule:evenodd;stroke:none;stroke-width:1px;stroke-linecap:butt;stroke-linejoin:miter;stroke-opacity:1"
       d="m 52.195764,924.05635 -5.661009,-21.26351 9.525069,-2.37591 z"
       id="path4178-3"
       inkscape:connector-curvature="0" />
    <path
       style="fill:#004455;fill-opacity:1;fill-rule:evenodd;stroke:none;stroke-width:1px;stroke-linecap:butt;stroke-linejoin:miter;stroke-opacity:1"
       d="m 13.531183,933.38228 10.833333,-15 10.595238,-10.59524 -9.52381,-7.5 -15.357143,-3.45237 -3.4523813,20.47618 2.4999999,10.83334 z"
       id="path4195"
       inkscape:connector-curvature="0" />
    <path
       style="fill:#004455;fill-opacity:1;fill-rule:evenodd;stroke:none;stroke-width:1px;stroke-linecap:butt;stroke-linejoin:miter;stroke-opacity:1"
       d="m 92.697851,933.20371 -10.833335,-15 -10.595237,-10.59524 9.523809,-7.5 15.357143,-3.45238 3.452378,20.47619 -2.499998,10.83334 z"
       id="path4195-6"
       inkscape:connector-curvature="0" />
    <path
       style="fill:#333333;fill-opacity:1;fill-rule:evenodd;stroke:none;stroke-width:1px;stroke-linecap:butt;stroke-linejoin:miter;stroke-opacity:1"
       d="m 197.76982,931.25762 -10.83333,-15.00001 -10.59524,-10.59524 9.52381,-7.5 15.35715,-3.45237 3.45237,20.47619 -2.5,10.83333 z"
       id="path4195-6-7"
       inkscape:connector-curvature="0" />
    <path
       style="fill:#333333;fill-opacity:1;fill-rule:evenodd;stroke:none;stroke-width:1px;stroke-linecap:butt;stroke-linejoin:miter;stroke-opacity:1"
       d="m 118.93297,931.93106 10.83333,-15.00001 10.59524,-10.59524 -9.52381,-7.5 -15.35715,-3.45237 -3.45237,20.47619 2.5,10.83333 z"
       id="path4195-6-7-5"
       inkscape:connector-curvature="0" />
    <path
       style="fill:#333333;fill-opacity:1;fill-rule:evenodd;stroke:none;stroke-width:1px;stroke-linecap:butt;stroke-linejoin:miter;stroke-opacity:1"
       d="m 151.71502,925.56724 -11.61676,-18.68783 8.41795,-5.05076 z"
       id="path4178-35"
       inkscape:connector-curvature="0" />
    <path
       style="fill:#333333;fill-opacity:1;fill-rule:evenodd;stroke:none;stroke-width:1px;stroke-linecap:butt;stroke-linejoin:miter;stroke-opacity:1"
       d="m 156.99005,922.40294 -5.661,-21.26351 9.52506,-2.37591 z"
       id="path4178-3-6"
       inkscape:connector-curvature="0" />
    <path
       style="fill:#782121;fill-opacity:1;fill-rule:evenodd;stroke:none;stroke-width:1px;stroke-linecap:butt;stroke-linejoin:miter;stroke-opacity:1"
       d="m 302.38009,933.33907 -10.83334,-15 -10.59524,-10.59524 9.52382,-7.5 15.35714,-3.45238 3.45238,20.47619 -2.5,10.83334 z"
       id="path4195-6-7-2"
       inkscape:connector-curvature="0" />
    <path
       style="fill:#782121;fill-opacity:1;fill-rule:evenodd;stroke:none;stroke-width:1px;stroke-linecap:butt;stroke-linejoin:miter;stroke-opacity:1"
       d="m 223.54323,934.01251 10.83334,-15 10.59524,-10.59524 -9.52382,-7.5 -15.35714,-3.45238 -3.45238,20.47619 2.5,10.83334 z"
       id="path4195-6-7-5-9"
       inkscape:connector-curvature="0" />
    <path
       style="fill:#782121;fill-opacity:1;fill-rule:evenodd;stroke:none;stroke-width:1px;stroke-linecap:butt;stroke-linejoin:miter;stroke-opacity:1"
       d="m 256.32529,927.6487 -11.61676,-18.68783 8.41794,-5.05076 z"
       id="path4178-35-1"
       inkscape:connector-curvature="0" />
    <path
       style="fill:#782121;fill-opacity:1;fill-rule:evenodd;stroke:none;stroke-width:1px;stroke-linecap:butt;stroke-linejoin:miter;stroke-opacity:1"
       d="m 261.60031,924.48439 -5.661,-21.26351 9.52507,-2.37591 z"
       id="path4178-3-6-2"
       inkscape:connector-curvature="0" />
  </g>
</svg>
