<?xml version="1.0" encoding="UTF-8" standalone="no"?>
<!-- Created with Inkscape (http://www.inkscape.org/) -->

<svg
   xmlns:dc="http://purl.org/dc/elements/1.1/"
   xmlns:cc="http://creativecommons.org/ns#"
   xmlns:rdf="http://www.w3.org/1999/02/22-rdf-syntax-ns#"
   xmlns:svg="http://www.w3.org/2000/svg"
   xmlns="http://www.w3.org/2000/svg"
   xmlns:sodipodi="http://sodipodi.sourceforge.net/DTD/sodipodi-0.dtd"
   xmlns:inkscape="http://www.inkscape.org/namespaces/inkscape"
   width="318"
   height="218"
   viewBox="0 0 318 218"
   id="svg2"
   version="1.1"
   inkscape:version="0.91 r13725"
   sodipodi:docname="dolphin.svg"
   inkscape:export-filename="/home/trlinux/yaliTema/slideshow/dolphin.png"
   inkscape:export-xdpi="90"
   inkscape:export-ydpi="90">
  <defs
     id="defs4" />
  <sodipodi:namedview
     id="base"
     pagecolor="#ffffff"
     bordercolor="#666666"
     borderopacity="1.0"
     inkscape:pageopacity="0.0"
     inkscape:pageshadow="2"
     inkscape:zoom="1.979899"
     inkscape:cx="198.85903"
     inkscape:cy="120.22686"
     inkscape:document-units="px"
     inkscape:current-layer="layer1"
     showgrid="false"
     units="px"
     inkscape:window-width="1366"
     inkscape:window-height="711"
     inkscape:window-x="0"
     inkscape:window-y="0"
     inkscape:window-maximized="1" />
  <metadata
     id="metadata7">
    <rdf:RDF>
      <cc:Work
         rdf:about="">
        <dc:format>image/svg+xml</dc:format>
        <dc:type
           rdf:resource="http://purl.org/dc/dcmitype/StillImage" />
        <dc:title />
      </cc:Work>
    </rdf:RDF>
  </metadata>
  <g
     inkscape:label="Layer 1"
     inkscape:groupmode="layer"
     id="layer1"
     transform="translate(0,-834.36216)">
    <path
       style="fill:#ffb800;stroke:none"
       d="m 207.31048,982.7629 -0.0527,-70.05574 -0.527,-1.17707 -1.12426,-0.5796 -50.24713,-0.15853 -6.78072,-6.62267 -39.21979,0.10534 -1.14184,1.6688 -0.56213,76.854 z"
       id="path2996"
       inkscape:connector-curvature="0"
       sodipodi:nodetypes="cccccccccc" />
    <path
       style="fill:#faec6d;stroke:none"
       d="m 207.30785,982.76276 -0.0196,-71.85627 -51.92571,-0.0987 -3.17989,2.0868 -43.09203,-0.0493 -0.94403,1.68934 -0.46561,68.2704 z"
       id="path3766"
       inkscape:connector-curvature="0"
       sodipodi:nodetypes="cccccccc" />
    <path
       style="fill:none;stroke:#ffb800;stroke-width:0.55648285px;stroke-linecap:round;stroke-linejoin:miter;stroke-opacity:1"
       d="m 109.09538,980.1981 98.08867,0.0187"
       id="path3768"
       inkscape:connector-curvature="0"
       sodipodi:nodetypes="cc" />
    <path
       style="fill:none;stroke:#ffb800;stroke-width:0.55648285px;stroke-linecap:round;stroke-linejoin:miter;stroke-opacity:1"
       d="m 107.75794,978.3365 99.43559,0.0973"
       id="path3768-3"
       inkscape:connector-curvature="0"
       sodipodi:nodetypes="cc" />
    <path
       style="fill:none;stroke:#00bbf2;stroke-width:13.31077003;stroke-linecap:butt;stroke-linejoin:miter;stroke-miterlimit:4;stroke-dasharray:none;stroke-opacity:1"
       d="m 179.24185,982.63503 0,-28.90867 -42.3546,0 -0.22411,28.90867"
       id="path2992"
       inkscape:connector-curvature="0" />
    <rect
       style="fill:#00bbf2;fill-opacity:1;stroke:#ffffff;stroke-width:2.48474169;stroke-linecap:round;stroke-linejoin:round;stroke-miterlimit:4;stroke-dasharray:none;stroke-opacity:1"
       id="rect2997-3"
       width="76.908669"
       height="63.89336"
       x="-1.0955859"
       y="912.55408"
       transform="matrix(0.99991031,-0.01339323,0.01339323,0.99991031,0,0)" />
    <rect
       style="fill:#ff6600;fill-opacity:1;stroke:#ffffff;stroke-width:2.48474169;stroke-linecap:round;stroke-linejoin:round;stroke-miterlimit:4;stroke-dasharray:none;stroke-opacity:1"
       id="rect2997"
       width="76.908669"
       height="63.893364"
       x="-418.18265"
       y="832.98676"
       transform="matrix(0.89137186,-0.45327278,0.45327278,0.89137186,0,0)" />
    <path
       sodipodi:type="arc"
       style="fill:#faec6d;fill-opacity:1;stroke:none"
       id="path3767"
       sodipodi:cx="-401.76559"
       sodipodi:cy="851.62219"
       sodipodi:rx="7.8387685"
       sodipodi:ry="7.6908665"
       d="m -393.92683,851.62219 a 7.8387685,7.6908665 0 0 1 -7.82956,7.69086 7.8387685,7.6908665 0 0 1 -7.84795,-7.6728 7.8387685,7.6908665 0 0 1 7.81114,-7.70888 7.8387685,7.6908665 0 0 1 7.86629,7.65471"
       transform="matrix(0.89137185,-0.45327279,0.45327277,0.89137186,0,0)"
       sodipodi:start="0"
       sodipodi:end="6.2784904"
       sodipodi:open="true" />
    <path
       style="fill:#803300;stroke:#000000;stroke-width:0.10353088px;stroke-linecap:butt;stroke-linejoin:miter;stroke-opacity:1"
       d="m 23.621142,966.30424 10.620121,21.11557 66.512717,-33.93979 -9.051024,-17.33761 c 0,0 -7.685107,8.1437 -16.340528,11.24262 -8.655428,3.09878 -26.351043,-1.01258 -35.198648,2.99838 -8.847591,4.01082 -16.542638,15.92083 -16.542638,15.92083 z"
       id="path3787"
       inkscape:connector-curvature="0"
       sodipodi:nodetypes="cccczzc" />
    <circle
       r="24.061197"
       cy="842.4472"
       cx="410.6127"
       transform="matrix(0.92919745,0.36958367,-0.36958367,0.92919745,0,0)"
       id="path3806-4"
       style="fill:#c8c8c8;fill-opacity:0.72727272;stroke:#502d16;stroke-width:8.15066433;stroke-miterlimit:4;stroke-dasharray:none;stroke-opacity:1" />
    <rect
       transform="matrix(0.88303557,-0.46930606,0.46930606,0.88303557,0,0)"
       ry="4.0845075"
       y="878.25153"
       x="-382.84528"
       height="40.702644"
       width="8.9037037"
       id="rect3808-0"
       style="fill:#502d16;fill-opacity:1;fill-rule:evenodd;stroke:none" />
    <path
       style="fill:#cccccc;fill-opacity:0.34545509;fill-rule:nonzero;stroke:none"
       d="m 61.910775,918.61629 c -7.406386,3.63356 -12.100216,13.21691 -8.521691,20.51123 0.55728,1.13599 2.863451,-0.41191 2.948106,-1.94398 1.334857,-6.6069 1.90617,-9.59215 8.819472,-12.98389 6.253037,-3.06753 12.000335,-3.63884 16.660707,0.64303 1.074541,0.68186 1.95528,-0.62111 1.819471,-1.19919 -1.858142,-7.90947 -14.319677,-8.66062 -21.726065,-5.0272 z"
       id="path4343"
       inkscape:connector-curvature="0"
       sodipodi:nodetypes="sscscss" />
    <path
       inkscape:connector-curvature="0"
       style="fill:#394050;fill-opacity:1;stroke:none"
       d="m 234.42278,893.79079 0,51.94806 51.94804,0 0,-51.94806 -51.94804,0 z m 3.89611,3.89612 3.8961,0 0,3.89611 -3.8961,0 0,-3.89611 z m 40.25973,0 3.89609,0 0,3.89611 -3.89609,0 0,-3.89611 z m -40.25973,9.74029 3.8961,0 0,3.89612 -3.8961,0 0,-3.89612 z m 40.25973,0 3.89609,0 0,3.89612 -3.89609,0 0,-3.89612 z m -40.25973,10.38956 3.8961,0 0,3.89612 -3.8961,0 0,-3.89612 z m 40.25973,0 3.89609,0 0,3.89612 -3.89609,0 0,-3.89612 z m -40.25973,10.38956 3.8961,0 0,3.89612 -3.8961,0 0,-3.89612 z m 40.25973,0 3.89609,0 0,3.89612 -3.89609,0 0,-3.89612 z m -40.25973,9.74029 3.8961,0 0,3.89612 -3.8961,0 0,-3.89612 z m 40.25973,0 3.89609,0 0,3.89612 -3.89609,0 0,-3.89612 z"
       id="rect4197" />
    <rect
       style="fill:#00bbf2;fill-opacity:1;stroke:none"
       id="rect4323"
       width="28.571404"
       height="20.12986"
       x="246.11111"
       y="897.68695" />
    <rect
       style="fill:#00bbf2;fill-opacity:1;stroke:none"
       id="rect4325"
       width="28.571404"
       height="20.129864"
       x="246.11111"
       y="921.71283" />
    <path
       inkscape:connector-curvature="0"
       style="fill:#394050;fill-opacity:1;stroke:none"
       d="m 234.42278,941.84273 0,51.94806 51.94804,0 0,-51.94806 -51.94804,0 z m 3.89611,3.89612 3.8961,0 0,3.89612 -3.8961,0 0,-3.89612 z m 40.25973,0 3.89609,0 0,3.89612 -3.89609,0 0,-3.89612 z m -40.25973,9.74029 3.8961,0 0,3.89612 -3.8961,0 0,-3.89612 z m 40.25973,0 3.89609,0 0,3.89612 -3.89609,0 0,-3.89612 z m -40.25973,10.38956 3.8961,0 0,3.89612 -3.8961,0 0,-3.89612 z m 40.25973,0 3.89609,0 0,3.89612 -3.89609,0 0,-3.89612 z m -40.25973,10.38969 3.8961,0 0,3.89599 -3.8961,0 0,-3.89599 z m 40.25973,0 3.89609,0 0,3.89599 -3.89609,0 0,-3.89599 z m -40.25973,9.74017 3.8961,0 0,3.89611 -3.8961,0 0,-3.89611 z m 40.25973,0 3.89609,0 0,3.89611 -3.89609,0 0,-3.89611 z"
       id="rect4197-3" />
    <rect
       style="fill:#00bbf2;fill-opacity:1;stroke:none"
       id="rect4323-6"
       width="28.571404"
       height="20.12986"
       x="246.11111"
       y="945.73889" />
    <rect
       style="fill:#00bbf2;fill-opacity:1;stroke:none"
       id="rect4325-7"
       width="28.571404"
       height="20.129864"
       x="246.11111"
       y="969.76477" />
    <rect
       style="fill:#f03916;fill-opacity:1;stroke:none"
       id="rect3802"
       width="95.555519"
       height="15.55555"
       x="215"
       y="912.67969" />
  </g>
</svg>
