<?xml version="1.0" encoding="UTF-8" standalone="no"?>
<!-- Created with Inkscape (http://www.inkscape.org/) -->

<svg
   xmlns:dc="http://purl.org/dc/elements/1.1/"
   xmlns:cc="http://creativecommons.org/ns#"
   xmlns:rdf="http://www.w3.org/1999/02/22-rdf-syntax-ns#"
   xmlns:svg="http://www.w3.org/2000/svg"
   xmlns="http://www.w3.org/2000/svg"
   xmlns:sodipodi="http://sodipodi.sourceforge.net/DTD/sodipodi-0.dtd"
   xmlns:inkscape="http://www.inkscape.org/namespaces/inkscape"
   width="318"
   height="218"
   viewBox="0 0 318 218"
   id="svg2"
   version="1.1"
   inkscape:version="0.91 r13725"
   sodipodi:docname="firefox.svg"
   inkscape:export-filename="/home/trlinux/yaliTema/slideshow/firefox.png"
   inkscape:export-xdpi="90"
   inkscape:export-ydpi="90">
  <defs
     id="defs4">
    <filter
       inkscape:collect="always"
       style="color-interpolation-filters:sRGB"
       id="filter6581-4"
       x="-0.057162613"
       width="1.1143252"
       y="-0.063133776"
       height="1.1262676">
      <feGaussianBlur
         inkscape:collect="always"
         stdDeviation="4.3638243"
         id="feGaussianBlur6583-1" />
    </filter>
    <clipPath
       id="clipPath5127"
       clipPathUnits="userSpaceOnUse">
      <path
         inkscape:connector-curvature="0"
         id="path5129"
         d="M 255.99999,45.26758 A 210.73167,210.73167 0 0 0 45.26756,256 210.73167,210.73167 0 0 0 255.99999,466.73242 210.73167,210.73167 0 0 0 466.73244,256 210.73167,210.73167 0 0 0 255.99999,45.26758 Z m 0,111.84375 A 98.888542,98.888542 0 0 1 354.88864,256 98.888542,98.888542 0 0 1 255.99999,354.88867 98.888542,98.888542 0 0 1 157.11132,256 98.888542,98.888542 0 0 1 255.99999,157.11133 Z"
         style="opacity:1;fill:#f9f9f9;fill-opacity:1;stroke:none;stroke-width:0;stroke-linecap:butt;stroke-linejoin:miter;stroke-miterlimit:4;stroke-dasharray:none;stroke-dashoffset:0;stroke-opacity:1" />
    </clipPath>
    <clipPath
       clipPathUnits="userSpaceOnUse"
       id="clipPath5062">
      <circle
         style="opacity:1;fill:none;fill-opacity:1;stroke:#000000;stroke-width:0.51056468;stroke-miterlimit:4;stroke-dasharray:none;stroke-dashoffset:0;stroke-opacity:1"
         id="circle5064"
         cx="292.41159"
         cy="78.3964"
         r="43.65332" />
    </clipPath>
  </defs>
  <sodipodi:namedview
     id="base"
     pagecolor="#ffffff"
     bordercolor="#666666"
     borderopacity="1.0"
     inkscape:pageopacity="0.0"
     inkscape:pageshadow="2"
     inkscape:zoom="1.4"
     inkscape:cx="164.24632"
     inkscape:cy="166.37978"
     inkscape:document-units="px"
     inkscape:current-layer="layer1"
     showgrid="false"
     units="px"
     inkscape:window-width="1366"
     inkscape:window-height="711"
     inkscape:window-x="0"
     inkscape:window-y="0"
     inkscape:window-maximized="1" />
  <metadata
     id="metadata7">
    <rdf:RDF>
      <cc:Work
         rdf:about="">
        <dc:format>image/svg+xml</dc:format>
        <dc:type
           rdf:resource="http://purl.org/dc/dcmitype/StillImage" />
        <dc:title />
      </cc:Work>
    </rdf:RDF>
  </metadata>
  <g
     inkscape:label="Layer 1"
     inkscape:groupmode="layer"
     id="layer1"
     transform="translate(0,-834.36216)">
    <path
       inkscape:connector-curvature="0"
       style="opacity:1;fill:#00bbf2;fill-opacity:1;stroke:none;stroke-width:10.30656719;stroke-linecap:butt;stroke-linejoin:miter;stroke-miterlimit:4;stroke-dasharray:20.61313507, 20.61313507;stroke-dashoffset:0;stroke-opacity:1"
       clip-path="none"
       d="m 156.3323,898.16901 a 43.15912,43.15912 0 0 0 -31.78022,14.0356 c 0.54999,0.65267 1.19295,1.24814 1.95295,1.77174 4.78412,-1.80134 8.02125,-1.73134 10.78055,-0.72027 3.88982,-3.91467 7.8403,-5.29827 11.81056,-5.86573 -4.61439,2.52906 -5.53643,6.2696 -6.72231,9.80853 l 4.51224,4.3172 c 0.42203,0.3632 0.84323,0.5644 1.26525,0.70467 1.83424,0.45026 3.21844,0.55653 5.04259,0.42933 0.42101,0.076 1.16043,0.37573 1.01428,1.34853 -0.49844,0.81134 -0.88012,1.67094 -1.70927,2.3452 l -5.75676,4.3268 c -0.21033,0.2692 -0.65914,0.28987 -0.13432,1.32334 1.70458,3.08613 1.13039,4.65346 1.15167,6.61746 l -6.24223,-1.06146 c -2.13938,-0.1864 -3.38685,2.58693 -2.3816,3.9612 2.34444,3.3228 4.20376,4.98666 7.06922,6.48426 3.82234,1.66947 7.61313,-0.66373 9.78316,-1.89533 1.51644,-0.56667 3.81321,-0.65653 5.32964,-0.1804 2.50316,0.98413 3.48624,1.88613 4.48768,3.35947 0.40862,0.6012 0.16878,2.04053 -1.1555,1.98746 -0.65445,-0.0267 -1.59026,-0.30133 -2.29257,-0.0867 -1.66875,0.33733 -5.21673,6.54626 -17.60571,6.35266 17.08279,15.0908 28.04767,3.89054 34.98728,-5.39133 l -0.75177,7.06227 c 5.59219,-5.7508 5.24571,-13.81267 5.10591,-21.7944 l 2.65024,5.17 c 0.6871,-3.51827 2.5306,-2.95947 -0.26672,-18.75854 l 3.51945,2.85974 c 0.15385,-9.11174 -8.80813,-13.748 -17.66173,-18.23694 1.88222,-0.38253 3.75042,-0.41453 5.60404,-0.0973 -2.37568,-3.88053 -5.8314,-5.03653 -9.41936,-5.86 1.69,0.0987 4.48116,0.0773 7.7784,0.61627 a 43.15912,43.15912 0 0 0 -19.96504,-4.9324 z"
       id="path5076-8" />
    <path
       inkscape:connector-curvature="0"
       style="fill:#000000;fill-opacity:0.31372549;fill-rule:evenodd;stroke:none;stroke-width:2.46262217px;stroke-linecap:butt;stroke-linejoin:miter;stroke-opacity:1"
       clip-path="none"
       d="m 156.3323,898.16901 a 43.159122,43.159122 0 0 0 -5.12779,0.36 c 0.13548,2.8608 0.97065,6.1708 4.09355,6.85387 3.51412,0.21893 6.72172,1.68067 7.82024,5.23067 2.50162,1.15866 5.12384,-4.70987 1.87313,-5.54267 -2.02464,-2.7484 3.58224,-4.22307 3.26732,-5.18573 a 43.159122,43.159122 0 0 0 -11.92645,-1.71614 z m 13.8863,2.34094 c -0.31441,0.6104 -0.44804,1.38293 -0.68769,2.01973 0.98661,0.0373 2.19432,0.076 3.57164,0.1884 0.54128,-0.11067 1.05503,-0.068 1.33932,0.128 0.54719,0.0613 1.11461,0.138 1.69775,0.23067 a 43.159122,43.159122 0 0 0 -5.92102,-2.56734 z m -0.76292,2.202 c -0.33009,0.76026 -0.87056,1.262 -2.19241,0.9084 -0.41497,2.65266 3.32108,2.60133 4.04597,0.32186 0.10414,-0.20733 0.24919,-0.38826 0.4183,-0.54533 -0.74075,-0.27 -1.50128,-0.49 -2.27186,-0.68493 z m -17.91653,0.8704 c -3.65797,1.148 2.79707,4.91 1.51353,1.22106 -0.53996,-0.3328 -0.96857,-0.98506 -1.51353,-1.22106 z m -16.38381,0.19986 a 43.159122,43.159122 0 0 0 -3.58662,2.26187 c 0.12414,0.2116 0.38319,0.3576 0.85156,0.40293 0.17322,2.53374 -2.27553,2.34467 -3.28612,1.3984 a 43.159122,43.159122 0 0 0 -4.58553,4.35534 c 0.55072,0.65413 1.19487,1.25093 1.9564,1.7756 4.12561,-1.55334 7.09967,-1.7132 9.61008,-1.07987 -0.15653,-1.03373 -0.70269,-1.87813 -2.1736,-2.2764 0.10387,-1.78693 3.18407,1.4824 2.23961,-1.31627 0.0959,-0.97693 -2.14721,-2.2896 -0.4513,-2.86173 2.74764,0.1492 3.14464,2.92907 2.20085,4.77093 0.33088,0.1912 0.60571,0.4216 0.83353,0.67614 1.49938,-1.268 3.00686,-2.19227 4.5203,-2.8748 -0.77984,-1.22334 -3.23247,-1.72174 -2.75156,-3.79067 -1.50291,-1.40947 -3.4698,-1.28533 -5.3776,-1.44147 z m 38.76117,0.61787 c -0.005,0 -0.009,0.0133 -0.0153,0.0147 -0.6913,2.1432 1.09233,2.67973 2.78648,2.23373 -0.84339,-0.95187 -1.77658,-1.67733 -2.77112,-2.248 z m -25.98892,3.70907 c -0.80755,0.556 -1.47665,1.15706 -2.04236,1.79053 0.18859,0 0.41491,-0.0253 0.68616,-0.076 1.57551,1.794 -3.85792,3.70293 -0.0265,4.90907 4.40617,2.08773 -0.80547,-4.15534 2.51553,-5.188 -0.0399,-0.636 -0.48161,-1.31974 -1.13285,-1.436 z m 27.8156,2.0872 -0.48431,0.0613 c -0.0952,1.43333 1.12106,3.0952 -1.23992,1.6152 -1.42834,0.5632 -2.0272,2.11067 -0.63244,2.87747 -1.33793,0.7132 -3.0045,0.5408 -2.47178,2.53853 -2.65942,0.42573 1.42485,3.79013 0.7326,0.4516 0.14672,-1.65453 3.06809,1.26427 4.64885,0.36773 1.92649,0.08 3.13849,2.37414 0.37379,1.2956 -3.94886,-1.49933 -0.6649,3.67947 1.73189,2.44067 1.13468,1.35053 1.74565,2.68693 3.7002,2.68173 1.17536,1.89614 1.01396,4.73014 4.01489,5.23974 0.55996,1.00453 0.77228,4.78813 1.7227,3.67026 -0.19267,-2.28306 -0.60763,-5.3496 -1.36312,-9.61653 l 3.51945,2.85973 c 0.0875,-5.17613 -2.7684,-8.9072 -6.87351,-11.98826 -0.49737,1.60013 -1.67653,3.19306 -1.75108,0.58413 -1.50133,-1.10947 -2.37576,-1.6832 -1.82285,-2.9588 -1.22392,-0.73227 -2.50261,-1.43427 -3.80536,-2.12067 z m -24.71828,1.24986 c -3.55852,2.7284 3.38639,3.4032 0,0 z m -7.55391,2.572 c -0.4114,1.05334 -0.74366,2.12574 -1.09717,3.18067 l 4.51224,4.3172 c 0.42203,0.3632 0.84323,0.5644 1.26525,0.70467 0.7468,0.18333 1.41851,0.30693 2.07614,0.38373 0.15448,-1.21173 -0.61495,-1.84493 -2.59575,-1.8052 -3.32176,-0.99347 2.99276,-3.05147 -0.87305,-2.6764 -1.94218,-0.57107 -2.91832,-2.23827 -3.28766,-4.10467 z m 5.58523,14.9132 -2.31407,1.7392 c -0.21033,0.2692 -0.65914,0.28987 -0.13432,1.32334 1.70458,3.08613 1.13039,4.65346 1.15167,6.61746 l -6.24223,-1.06146 c -2.13938,-0.1864 -3.38685,2.58693 -2.3816,3.9612 2.34444,3.3228 4.20376,4.98666 7.06922,6.48426 1.76621,0.77147 3.52536,0.6872 5.12126,0.25294 1.94728,-2.19294 4.37708,-4.6988 4.02794,-7.81214 -1.73544,-1.28866 -0.81815,-2.0068 -0.40642,-3.2132 -1.62628,-2.45933 -2.22304,-5.69173 -4.86182,-7.3916 -0.37454,-0.2656 -0.70644,-0.57773 -1.02963,-0.9 z m 34.08123,14.30894 c -1.94972,0.52573 -2.06666,3.61146 -4.48192,1.63866 -2.06831,-0.52333 -1.1204,1.9336 -2.2849,2.37267 0.25916,3.17827 -3.59972,-0.46867 -3.76084,2.7696 -0.1188,3.342 -5.43846,1.91373 -7.23193,4.5292 -1.96689,1.64827 -1.03927,4.78013 0.80244,6.172 0.10947,1.22227 -0.25684,2.63787 0.0521,3.184 5.65539,-2.116 10.07384,-7.17453 13.50639,-11.7656 l -0.75179,7.06227 c 4.07392,-4.18947 4.99208,-9.60694 5.13854,-15.32507 -0.26014,-0.3176 -0.56402,-0.64947 -0.98818,-0.63773 z"
       id="path6585-6" />
    <path
       inkscape:connector-curvature="0"
       style="fill:#000000;fill-opacity:0.70585309;fill-rule:evenodd;stroke:none;stroke-width:1px;stroke-linecap:butt;stroke-linejoin:miter;stroke-opacity:1;filter:url(#filter6581-4)"
       d="m 124.41205,19.455668 c 7.15031,1.641013 14.03709,3.944296 18.77148,11.677734 -3.694,-0.631092 -7.41694,-0.566941 -11.16797,0.195313 17.64401,8.945874 35.50386,18.185341 35.19727,36.34375 l -7.01367,-5.699219 c 5.57469,31.485339 1.90057,30.37155 0.53124,37.382809 l -5.28124,-10.302731 c 0.27858,15.906636 0.9687,31.973176 -10.17579,43.433586 l 1.49805,-14.07421 c -13.82973,18.49755 -35.68093,40.81799 -69.724609,10.74413 24.689529,0.38576 31.760359,-11.98791 35.085939,-12.66014 1.39962,-0.42688 3.26414,0.12153 4.56836,0.17383 2.63911,0.10585 3.11705,-2.76287 2.30273,-3.96094 -1.99573,-2.93623 -3.9549,-4.73422 -8.94336,-6.69531 -3.02204,-0.94882 -7.59905,-0.76982 -10.621091,0.35937 -4.324558,2.45452 -11.878678,7.10427 -19.496088,3.77734 -5.71045,-2.98451 -9.41575,-6.29993 -14.0879,-12.921875 -2.00333,-2.7386 0.48259,-8.265925 4.7461,-7.894531 l 12.43945,2.115234 c -0.0424,-3.914046 1.10207,-7.037042 -2.29492,-13.1875 -1.0459,-2.05944 -0.15157,-2.100243 0.26758,-2.636718 l 11.47265,-8.623047 c 1.65238,-1.34373 2.41293,-3.056886 3.406248,-4.673828 0.29126,-1.938794 -1.182468,-2.535508 -2.021478,-2.6875 -3.63529,0.253366 -6.39345,0.04201 -10.04883,-0.855469 -0.84104,-0.279377 -1.68044,-0.680624 -2.52148,-1.404297 l -8.99219,-8.603515 c 2.3633,-7.052619 4.20065,-14.506752 13.39648,-19.546876 -7.91216,1.13101 -15.78522,3.888146 -23.53711,11.689454 -5.49889,-2.015037 -11.95026,-2.15425 -21.48437,1.435546 -6.7532,-4.65309 -8.89291,-12.139554 -10.46094,-19.978515 -9.71922,10.804799 -9.62621,25.722442 -9.01172,34.470703 -3.56944,8.347544 -11.19479,10.941108 -10.35547,24.867188 l 5.2461,-4.216797 c -1.716,6.110226 -3.43369,12.219853 -3.45508,18.330078 -0.56154,-0.51655 -1.09704,-0.99968 -1.74023,-1.62695 0,0.3161 0.009,0.63001 0.0117,0.94531 -0.0555,1.67299 0.009,3.32384 0.17773,4.953125 2.97687,47.90277 41.97683,85.24413 90.695309,85.24413 50.70165,0 91.80274,-41.10304 91.80274,-91.804675 -0.32504,0.33341 -0.61929,0.6591 -0.93555,0.99023 1.69121,-7.314585 1.85647,-14.708597 0.14062,-21.945311 l -2.36328,9.400391 c -0.24191,-5.673919 -0.69008,-11.867189 -4.66992,-26.919922 l -0.55664,3.201172 C 168.2714,18.246831 135.1639,20.08391 124.41205,19.455668 Z"
       id="path5062-0-4"
       sodipodi:nodetypes="cccccccccccsscccccccccccccccccccccccccsccccccc"
       transform="matrix(0.48980321,0,0,0.48980321,107.31774,893.95008)" />
    <path
       style="fill:#ff6600;fill-opacity:1;fill-rule:evenodd;stroke:none;stroke-width:2.46262217px;stroke-linecap:butt;stroke-linejoin:miter;stroke-opacity:1"
       d="m 168.51902,902.48528 c 3.58796,0.82347 7.04366,1.9792 9.41934,5.85987 -1.85361,-0.31667 -3.72174,-0.28454 -5.60397,0.0973 8.85359,4.48893 17.81551,9.1252 17.66165,18.23693 l -3.51938,-2.85986 c 2.7973,15.79906 0.95368,15.24013 0.26656,18.7584 l -2.65008,-5.16987 c 0.1398,7.98173 0.48609,16.04387 -5.1061,21.79453 l 0.75168,-7.06226 c -6.93961,9.28186 -17.90433,20.482 -34.98712,5.39133 12.38896,0.1936 15.93704,-6.01547 17.60578,-6.3528 0.70232,-0.21413 1.63792,0.0613 2.29236,0.0867 1.32429,0.0533 1.56412,-1.3864 1.15549,-1.98747 -1.00144,-1.47347 -1.98453,-2.3756 -4.48769,-3.35973 -1.51643,-0.47614 -3.81314,-0.38627 -5.32956,0.1804 -2.17003,1.2316 -5.96062,3.5648 -9.78295,1.89533 -2.86545,-1.4976 -4.72473,-3.1612 -7.06917,-6.484 -1.00526,-1.37427 0.24216,-4.14773 2.38154,-3.96147 l 6.242,1.06147 c -0.0213,-1.964 0.553,-3.53107 -1.15157,-6.61733 -0.52483,-1.03347 -0.076,-1.05387 0.13427,-1.32307 l 5.75686,-4.32693 c 0.82915,-0.6744 1.21079,-1.534 1.70923,-2.34534 0.14615,-0.97293 -0.59336,-1.27226 -1.01436,-1.34853 -1.82416,0.12667 -3.20817,0.0213 -5.04241,-0.42933 -0.42202,-0.14014 -0.84323,-0.34147 -1.26526,-0.70467 l -4.51218,-4.3172 c 1.18588,-3.53893 2.10784,-7.27933 6.72222,-9.8084 -3.97025,0.5676 -7.92088,1.95107 -11.81069,5.86573 -2.75929,-1.0112 -5.99653,-1.08106 -10.78065,0.72027 -3.3887,-2.3348 -4.46239,-6.09147 -5.2492,-10.02493 -4.87702,5.42173 -4.83035,12.9072 -4.522,17.29706 -1.79111,4.18867 -5.61743,5.49014 -5.19627,12.478 l 2.63244,-2.11586 c -0.86108,3.066 -1.723,6.13173 -1.73373,9.19786 -0.28178,-0.2592 -0.55048,-0.5016 -0.87323,-0.8164 0,0.15854 0.004,0.31614 0.005,0.47427 -0.0279,0.8396 0.004,1.668 0.0892,2.48547 1.49376,24.0372 21.06358,42.77466 45.51004,42.77466 25.4416,0 46.06572,-20.62506 46.06572,-46.06666 -0.16309,0.16733 -0.31073,0.33066 -0.46944,0.49693 0.84864,-3.6704 0.93156,-7.38067 0.0705,-11.012 l -1.18586,4.71707 c -0.12133,-2.8472 -0.34629,-5.95494 -2.34333,-13.50814 l -0.27932,1.60627 c -8.49908,-20.08133 -25.11209,-19.15947 -30.50728,-19.4748 z"
       id="path5062-8"
       inkscape:connector-curvature="0"
       sodipodi:nodetypes="cccccccccccsscccccccccccccccccccccccccsccccccc" />
    <path
       style="opacity:1;fill:#5fbcd3;fill-opacity:1;stroke:none;stroke-width:0;stroke-linecap:butt;stroke-linejoin:miter;stroke-miterlimit:4;stroke-dasharray:none;stroke-dashoffset:0;stroke-opacity:1"
       d="m 98.109093,919.99442 c -70.03198,55.94947 -35.015993,27.97468 0,0 z m 0,0 -40.479633,0.016 c 11.146721,1.828 19.652333,11.50388 19.652436,23.16788 -0.0082,5.73638 -2.116062,11.27133 -5.925676,15.56 l -20.075534,34.37698 c 0.835188,0.0414 1.675495,0.0626 2.520974,0.0626 27.614276,1.4e-4 50.00009,-22.38574 50,-50 3e-5,-8.36786 -2.05886,-16.25347 -5.692567,-23.1836 z"
       id="path4797"
       inkscape:connector-curvature="0"
       sodipodi:nodetypes="cccccccssc" />
    <path
       style="fill:#004455;fill-opacity:1;stroke-width:1.19056249"
       clip-path="none"
       d="m 53.80166,893.17803 c -17.976186,-1.4e-4 -33.7342,9.488 -42.546,23.72772 l 19.511574,30.728 c 0.09053,1.46254 -0.444734,-4.35065 -0.445814,-4.45572 1.19e-4,-12.96774 10.512507,-23.48014 23.48024,-23.48028 1.217479,0.0139 2.432347,0.11458 3.633626,0.3124 l 40.673807,-0.016 C 89.751363,904.05429 73.048107,893.17763 53.80166,893.17775 Z m -42.552014,23.73746 c -12.12567881,58.002 -6.0628388,29.00107 0,0 z"
       id="path3923"
       inkscape:connector-curvature="0"
       sodipodi:nodetypes="sccccccscc" />
    <path
       style="fill:#00bbf2;fill-opacity:1;stroke-width:1.19056249"
       clip-path="none"
       d="m 11.25566,916.90575 c -4.7245208,7.63467 -7.4540398,16.63414 -7.4539998,26.27228 -9.3e-5,26.76879 21.0361858,48.62386 47.4790258,49.93693 L 71.35622,958.73803 c -4.449839,5.02879 -10.839734,7.91172 -17.55456,7.92026 -11.242507,-0.0139 -20.900921,-7.98626 -23.034426,-19.02454 z"
       id="path3923-1"
       inkscape:connector-curvature="0"
       sodipodi:nodetypes="csccccc" />
    <circle
       style="opacity:1;fill:#ffffff;fill-opacity:1;stroke:none;stroke-width:0;stroke-linecap:butt;stroke-linejoin:miter;stroke-miterlimit:4;stroke-dasharray:none;stroke-dashoffset:0;stroke-opacity:1"
       id="path4162"
       cx="53.801666"
       cy="943.17792"
       r="23.480442" />
    <circle
       style="opacity:1;fill:#006680;fill-opacity:1;stroke:none;stroke-width:0;stroke-linecap:butt;stroke-linejoin:miter;stroke-miterlimit:4;stroke-dasharray:none;stroke-dashoffset:0;stroke-opacity:1"
       id="path3956"
       cx="53.801666"
       cy="943.17792"
       clip-path="none"
       r="19.37504" />
    <path
       inkscape:connector-curvature="0"
       style="opacity:0.1;fill:#000000;fill-opacity:1;stroke:none;stroke-width:0;stroke-linecap:butt;stroke-linejoin:miter;stroke-miterlimit:4;stroke-dasharray:none;stroke-dashoffset:0;stroke-opacity:1"
       d="m 76.519531,145.27539 82.558589,129.43945 31.7793,-41.82422 -114.337889,-87.61523 z m 366.238279,12.96484 -170.86133,0.0977 18.78907,48.89063 152.07226,-48.98829 z m -164.34375,152.50782 -33.04101,155.73828 84.55468,-144.8086 -51.51367,-10.92968 z"
       id="rect5020-5-5"
       clip-path="url(#clipPath5127)"
       transform="matrix(0.23726771,0,0,0.23726771,-6.938873,882.43749)" />
    <path
       inkscape:connector-curvature="0"
       id="path5"
       d="m 312.81685,992.67289 -100,0 0,-100 100,0 0,100 z"
       style="clip-rule:nonzero;fill:none;fill-rule:nonzero;stroke:none;stroke-width:0;stroke-miterlimit:4" />
    <g
       style="clip-rule:nonzero;fill:#394050;fill-opacity:1;fill-rule:nonzero;stroke:none;stroke-width:0;stroke-miterlimit:4"
       id="g191"
       transform="matrix(0.69444437,0,0,0.69444437,211.34626,892.96702)">
      <linearGradient
         id="aigrd17"
         gradientUnits="userSpaceOnUse"
         x1="128.4834"
         y1="114.6621"
         x2="121.406"
         y2="121.7395">
        <stop
           offset="0"
           style="stop-color:#FFFFFF"
           id="stop194" />
        <stop
           offset="1"
           style="stop-color:#8C8CA4"
           id="stop196" />
      </linearGradient>
      <path
         style="fill:#394050;fill-opacity:1"
         d="m 136.665,120.486 -5.028,5.027 -14.006,-14.004 5.028,-5.031 14.006,14.008 z"
         id="path198"
         inkscape:connector-curvature="0" />
      <linearGradient
         id="aigrd18"
         gradientUnits="userSpaceOnUse"
         x1="104.7617"
         y1="98.666"
         x2="138.25661"
         y2="124.5975">
        <stop
           offset="0"
           style="stop-color:#FFFFFF"
           id="stop201" />
        <stop
           offset="1"
           style="stop-color:#545477"
           id="stop203" />
      </linearGradient>
      <path
         style="fill:#394050;fill-opacity:1"
         d="m 122.659,105.809 c -0.181,0 -0.351,0.07 -0.476,0.195 l -5.028,5.031 c -0.263,0.26 -0.263,0.686 0,0.949 l 14.005,14.004 c 0.266,0.264 0.688,0.264 0.952,0 l 5.028,-5.027 c 0.261,-0.262 0.261,-0.688 0,-0.951 l -14.007,-14.006 c -0.127,-0.125 -0.297,-0.195 -0.475,-0.195 z m 0,1.623 c 0.854,0.855 12.199,12.199 13.055,13.055 -0.699,0.697 -3.378,3.379 -4.077,4.078 -0.856,-0.857 -12.199,-12.201 -13.057,-13.055 0.699,-0.699 3.38,-3.381 4.079,-4.078 z"
         id="path205"
         inkscape:connector-curvature="0" />
    </g>
    <g
       style="clip-rule:nonzero;fill:#394050;fill-opacity:1;fill-rule:nonzero;stroke:none;stroke-width:0;stroke-miterlimit:4"
       id="g207"
       transform="matrix(0.69444437,0,0,0.69444437,211.34626,892.96702)">
      <linearGradient
         id="aigrd19"
         gradientUnits="userSpaceOnUse"
         x1="23.630899"
         y1="9.8095999"
         x2="16.554501"
         y2="16.8859">
        <stop
           offset="0"
           style="stop-color:#FFFFFF"
           id="stop210" />
        <stop
           offset="1"
           style="stop-color:#8C8CA4"
           id="stop212" />
      </linearGradient>
      <path
         style="fill:#394050;fill-opacity:1"
         d="M 31.813,15.633 26.785,20.661 12.777,6.656 17.804,1.628 31.812,15.633 Z"
         id="path214"
         inkscape:connector-curvature="0" />
      <linearGradient
         id="aigrd20"
         gradientUnits="userSpaceOnUse"
         x1="-0.093800001"
         y1="-6.1884999"
         x2="33.404099"
         y2="19.7453">
        <stop
           offset="0"
           style="stop-color:#FFFFFF"
           id="stop217" />
        <stop
           offset="1"
           style="stop-color:#545477"
           id="stop219" />
      </linearGradient>
      <path
         style="fill:#394050;fill-opacity:1"
         d="m 17.805,0.955 c -0.178,0 -0.349,0.071 -0.475,0.197 L 12.303,6.18 c -0.263,0.263 -0.263,0.688 0,0.951 l 14.006,14.005 c 0.263,0.262 0.688,0.262 0.95,0 l 5.028,-5.027 c 0.264,-0.263 0.264,-0.688 0,-0.951 L 18.281,1.152 C 18.154,1.026 17.984,0.955 17.804,0.955 Z m 0,1.623 c 0.856,0.856 12.201,12.2 13.057,13.055 -0.698,0.699 -3.38,3.381 -4.077,4.078 C 25.929,18.856 14.585,7.512 13.729,6.656 14.426,5.958 17.108,3.276 17.805,2.578 Z"
         id="path221"
         inkscape:connector-curvature="0" />
    </g>
    <path
       style="clip-rule:nonzero;fill:#666666;fill-rule:nonzero;stroke:none;stroke-width:0;stroke-miterlimit:4"
       d="m 267.69973,987.77609 -10.2,0 -3.35208,-16.1216 17.47639,0.0707 -3.92362,16.0508 z"
       id="path228"
       inkscape:connector-curvature="0" />
    <path
       style="clip-rule:nonzero;fill:#666666;fill-rule:nonzero;stroke:none;stroke-width:0;stroke-miterlimit:4"
       d="m 212.83654,941.60796 0,-10.20067 16.12014,-3.35133 -0.0716,17.47493 -16.04862,-3.92227 z"
       id="path259"
       inkscape:connector-curvature="0" />
    <path
       style="clip-rule:nonzero;fill:#666666;fill-rule:nonzero;stroke:none;stroke-width:0;stroke-miterlimit:4"
       d="m 230.63445,976.55236 -7.21319,-7.21174 9.02916,-13.7708 12.30764,12.4076 -14.12361,8.57494 z"
       id="path290"
       inkscape:connector-curvature="0" />
    <path
       style="clip-rule:nonzero;fill:#666666;fill-rule:nonzero;stroke:none;stroke-width:0;stroke-miterlimit:4"
       d="m 302.41224,969.74276 -7.2139,7.21453 -13.76944,-9.0292 12.40764,-12.30627 8.5757,14.12094 z"
       id="path321"
       inkscape:connector-curvature="0" />
    <path
       style="clip-rule:nonzero;fill:#666666;fill-rule:nonzero;stroke:none;stroke-width:0;stroke-miterlimit:4"
       d="m 224.05945,904.77609 7.21251,-7.21253 13.76944,9.0284 -12.40764,12.30706 -8.57431,-14.12293 z"
       id="path352"
       inkscape:connector-curvature="0" />
    <path
       style="clip-rule:nonzero;fill:#666666;fill-rule:nonzero;stroke:none;stroke-width:0;stroke-miterlimit:4"
       d="m 263.16222,968.85942 c -17.2618,0 -31.25554,-13.99306 -31.25554,-31.2556 0,-13.32013 8.3361,-24.6868 20.07221,-29.18546 l -0.98264,-4.48534 c -13.77916,4.98054 -23.62916,18.1736 -23.62916,33.6708 0,19.77014 16.02569,35.79374 35.79513,35.79374 15.42154,0 28.5639,-9.75214 33.59862,-23.42494 l -4.40278,-1.21253 c -4.49305,11.75133 -15.86597,20.09933 -29.19584,20.09933 z"
       id="path383"
       inkscape:connector-curvature="0" />
    <path
       style="clip-rule:nonzero;fill:none;fill-rule:nonzero;stroke:none;stroke-width:0;stroke-miterlimit:4"
       d="m 263.1032,971.53022 c -18.70624,0 -33.86875,-15.16386 -33.86875,-33.8688 0,-14.4312 9.03056,-26.74653 21.74515,-31.62426 -0.12987,-0.59307 -0.2521,-1.15414 -0.32084,-1.4632 -13.66944,5.17773 -22.825,18.3736 -22.825,33.02986 0,19.47987 15.84722,35.32707 35.32846,35.32707 14.57084,0 27.74446,-9.08467 32.96528,-22.64933 -0.29582,-0.0813 -0.85069,-0.23467 -1.43749,-0.39574 -4.90487,12.66107 -17.19445,21.6444 -31.58612,21.6444 z"
       id="path385"
       inkscape:connector-curvature="0" />
    <path
       style="clip-rule:nonzero;fill:#8b939c;fill-opacity:1;fill-rule:nonzero;stroke:#6e6e6e;stroke-width:0;stroke-miterlimit:4;stroke-opacity:1"
       d="m 250.9796,906.03649 c 0.18818,0.85693 0.39096,1.77987 0.4611,2.10413 -11.97569,4.77147 -20.00069,16.55214 -20.00069,29.4632 0,17.4916 14.23055,31.7208 31.72221,31.7208 12.91667,0 24.69515,-8.02706 29.46528,-20.0076 0.33264,0.092 1.23126,0.34027 2.06251,0.568 0.068,-0.17493 0.13889,-0.3472 0.20347,-0.52213 l -2.94444,-0.8112 c -0.008,0.0133 -0.0195,0.024 -0.0264,0.0413 -4.52847,11.84227 -16.08543,19.79854 -28.75974,19.79854 -16.97708,0 -30.78818,-13.8104 -30.78818,-30.78747 0,-12.66253 7.94584,-24.216 19.77292,-28.75 0.0381,-0.0147 0.0688,-0.0387 0.10133,-0.0613 l -0.65556,-2.99107 c -0.20625,0.0747 -0.40903,0.15627 -0.61251,0.2348 z"
       id="path416"
       inkscape:connector-curvature="0" />
    <ellipse
       style="opacity:1;fill:#ffffff;fill-opacity:1;stroke:none;stroke-width:0.5;stroke-linecap:round;stroke-linejoin:miter;stroke-miterlimit:4;stroke-dasharray:none;stroke-opacity:1"
       id="path3380"
       cx="263.125"
       cy="937.63"
       rx="30.624998"
       ry="30.44643" />
    <path
       inkscape:connector-curvature="0"
       id="path2982-6"
       d="m 288.64784,122.3566 c -0.25364,-0.1665 -0.25364,-0.20812 0,-0.37463 0.15693,-0.10301 0.40357,-0.18862 0.54809,-0.19022 0.5211,-0.006 3.75692,-1.20783 5.69997,-2.11744 1.09154,-0.511 2.05829,-0.92908 2.14834,-0.92908 0.09,0 0.16373,0.16941 0.16373,0.37647 0,0.46336 -0.75729,2.86392 -1.00642,3.19025 -0.22512,0.29491 -7.11051,0.3356 -7.55371,0.0447 z m 9.61403,-0.36514 c -0.10324,-0.16704 1.35456,-4.78426 1.66836,-5.28409 0.0797,-0.1269 0.97637,-0.71653 1.99267,-1.31029 2.19519,-1.28252 4.52758,-2.86995 5.84256,-3.97646 l 0.95113,-0.80034 3.32894,0.0887 c 3.00074,0.0799 8.67808,-0.26457 10.50996,-0.63774 0.86216,-0.17564 0.6327,0.3307 -0.66579,1.46911 -5.87711,5.15252 -13.29917,8.78448 -20.97197,10.26258 -2.15364,0.41489 -2.50075,0.43954 -2.65586,0.18856 z m -15.52666,-0.38362 c -0.89791,-0.18945 -2.96499,-0.7932 -4.59351,-1.34167 l -2.96096,-0.99721 -0.84267,-1.16543 c -3.89597,-5.38817 -6.71496,-13.92644 -7.12788,-21.58922 l -0.11651,-2.162168 0.45736,0.141886 c 0.25155,0.07803 0.84257,0.335366 1.31337,0.571846 2.97285,1.49321 7.24288,3.054557 9.67357,3.537152 0.49874,0.09902 1.40661,0.567623 2.28269,1.178231 2.4577,1.712933 5.12867,3.264253 8.13642,4.725713 3.90409,1.89698 4.91351,2.31972 7.6802,3.21638 1.3078,0.42386 2.4555,0.8479 2.55044,0.94232 0.34587,0.34397 -0.87949,7.38843 -1.39179,8.00124 -0.57673,0.68989 -3.86778,2.63274 -5.94459,3.50936 -4.30753,1.81819 -6.01379,2.08614 -9.11614,1.43157 z m -10.92231,-3.94021 c -5.67793,-2.9995 -11.79173,-8.52501 -15.43544,-13.95018 -4.60882,-6.862135 -7.13437,-13.751247 -8.14173,-22.208789 -0.0739,-0.62044 -0.0466,-0.998682 0.072,-0.998682 0.10501,0 0.50438,0.492209 0.88749,1.093794 3.05497,4.797185 7.53715,8.902127 12.82112,11.742063 l 1.42668,0.766789 0.42878,2.567266 c 0.91998,5.508239 2.42955,10.120679 4.7098,14.390749 1.17201,2.19473 2.62606,4.44945 3.73957,5.79874 0.40052,0.48533 0.72822,0.93474 0.72822,0.99869 0,0.21201 -0.65744,0.10544 -1.23647,-0.20044 z m 29.12365,-3.91581 c 0.077,-0.2354 0.32451,-1.28402 0.55009,-2.33026 l 0.41015,-1.90225 1.50765,-0.22349 c 2.30422,-0.34157 2.36366,-0.33493 2.36366,0.264 0,0.53391 -0.62469,1.20671 -3.30665,3.56134 -1.30407,1.14492 -1.75387,1.33094 -1.5249,0.63066 z m 15.29393,-4.63863 c -0.36618,-0.0423 -1.86421,-0.20885 -3.32894,-0.37 -1.46473,-0.16115 -2.73265,-0.36163 -2.81759,-0.4455 -0.0849,-0.0839 0.47617,-0.87575 1.2469,-1.75972 0.77074,-0.88397 1.65336,-1.94442 1.96138,-2.35654 0.30802,-0.41213 1.06013,-1.38535 1.67135,-2.16271 1.64802,-2.095978 2.86057,-3.953597 4.06027,-6.22031 0.76322,-1.44202 1.23376,-2.113539 1.63388,-2.331851 2.80778,-1.531936 6.02459,-3.786389 8.3515,-5.853011 0.5116,-0.454373 1.00246,-0.826139 1.0908,-0.826139 0.63916,0 0.9545,9.828375 0.42113,13.125536 -0.2301,1.422395 -0.38391,1.802535 -1.27856,3.159925 -1.51359,2.29642 -3.9413,5.25312 -4.66832,5.68554 -0.57286,0.34073 -1.00713,0.38313 -4.15883,0.40611 -1.93555,0.0141 -3.81878,-0.009 -4.18497,-0.0513 z m -11.50862,-1.71508 c -1.15086,-0.26236 -2.19344,-0.57723 -2.31684,-0.69971 -0.15888,-0.1577 -0.17479,-0.4725 -0.0545,-1.0787 0.0934,-0.47081 0.22937,-2.50464 0.30212,-4.51962 0.0926,-2.56372 0.20384,-3.723002 0.37064,-3.861437 0.13111,-0.108807 1.33734,-0.401235 2.68051,-0.649838 3.53504,-0.654287 6.3857,-1.337711 8.32901,-1.996808 0.93605,-0.317473 1.77076,-0.508383 1.8549,-0.424243 0.27142,0.271421 -3.10173,6.349186 -5.61679,10.120366 -1.84854,2.77178 -2.56486,3.61703 -3.05147,3.60065 -0.2228,-0.007 -1.34671,-0.2283 -2.49757,-0.49066 z m -6.94322,-2.0537 c -3.60139,-1.397 -8.79321,-4.00305 -11.25682,-5.650393 -2.51137,-1.679278 -3.10194,-2.219677 -0.51589,-2.133652 4.01676,0.133617 5.55952,0.1552 10.23671,-0.09998 l 3.84922,-0.210007 -0.26398,5.393862 c -0.0313,1.94917 -0.1273,3.24887 -0.24212,3.27842 -0.10462,0.0269 -0.91783,-0.23328 -1.80713,-0.57825 z m 34.16873,-7.296011 c -0.0519,-0.08389 0.036,-1.474907 0.1951,-3.091161 0.2037,-2.068797 0.26427,-4.233693 0.2046,-7.313815 l -0.0848,-4.375179 2.20217,-2.282701 c 1.21119,-1.255487 2.28302,-2.31581 2.38185,-2.356276 0.49272,-0.201733 -0.35965,7.082286 -1.23223,10.530119 -0.72781,2.87583 -3.10865,9.041535 -3.49131,9.041535 -0.0446,0 -0.12357,-0.06864 -0.17542,-0.152522 z m -44.34578,-3.004947 c -2.26384,-0.140065 -5.5575,-0.474556 -7.609,-0.77274 -1.84479,-0.268136 -2.18255,-0.377178 -2.85338,-0.92117 -3.29782,-2.674271 -9.41615,-9.53618 -9.41615,-10.560521 0,-0.879521 1.98251,-8.831995 2.29096,-9.189748 0.0748,-0.08675 1.29341,-0.403077 2.70807,-0.70297 5.05411,-1.071413 11.78375,-3.106526 15.28761,-4.623139 0.61254,-0.265127 1.92069,-0.832292 2.90701,-1.26037 0.98633,-0.428078 1.85733,-0.712184 1.93557,-0.631343 0.28984,0.299476 2.44614,5.943602 3.29016,8.611998 0.78843,2.492649 1.76304,6.405997 2.4872,9.986822 0.29862,1.476618 0.75438,4.793395 1.01941,7.41878 0.0951,0.941616 0.20531,1.840428 0.245,1.997365 0.0565,0.223388 -0.19628,0.311184 -1.16428,0.404383 -1.63233,0.157159 -9.67534,0.332541 -11.12818,0.242653 z m 15.04995,-0.801404 c -0.0525,-0.08491 -0.18688,-1.219119 -0.29868,-2.520485 -0.48523,-5.647951 -0.98646,-8.641696 -2.20744,-13.184646 -0.98478,-3.664123 -2.25182,-7.19916 -3.89341,-10.862545 -0.62509,-1.394949 -1.13652,-2.715656 -1.13652,-2.934902 0,-0.604184 0.48739,-0.982385 2.96221,-2.298562 6.0623,-3.224111 10.44125,-6.04818 12.76524,-8.232552 0.45212,-0.424955 0.7194,-0.539409 1.06002,-0.453917 0.25428,0.06382 1.39043,1.145807 2.57205,2.449425 3.24788,3.583224 4.99034,5.809892 7.24081,9.252906 l 0.8248,1.261889 -0.12297,2.853375 c -0.11846,2.748941 -0.62861,7.431886 -1.04648,9.606369 -0.43315,2.254051 -1.6135,6.439326 -2.62325,9.301614 l -0.49645,1.407267 -1.17236,0.531574 c -1.33956,0.607386 -5.68122,2.085724 -7.48257,2.547818 -1.18684,0.304456 -6.45849,1.425144 -6.71815,1.428194 -0.0723,8.47e-4 -0.17438,-0.06792 -0.22685,-0.152822 z m -33.06475,-2.228026 c -1.22437,-0.345178 -2.30189,-0.674428 -2.39451,-0.731664 -0.0926,-0.05724 -0.1351,-1.027816 -0.0944,-2.15684 0.0799,-2.217263 0.1736,-2.912709 0.39106,-2.901824 0.0765,0.0038 0.56705,0.573175 1.09017,1.265213 1.04082,1.376915 2.33203,2.890567 3.66118,4.291916 l 0.85703,0.903566 -0.64219,-0.02139 c -0.35321,-0.01175 -1.64395,-0.303806 -2.86831,-0.648981 z m -9.1002,-3.472663 c -3.77612,-2.035552 -6.60171,-4.054877 -9.13407,-6.527717 -1.91156,-1.866647 -3.18837,-3.505375 -3.33337,-4.278244 -0.15813,-0.842923 9.6e-4,-3.280682 0.22897,-3.502874 0.0928,-0.09056 0.84342,-0.08285 1.6889,0.01736 0.83699,0.09921 3.40503,0.201571 5.70675,0.227472 l 4.18496,0.04709 0.95259,1.89897 c 0.52392,1.044432 1.40066,2.688086 1.94829,3.652562 l 0.99569,1.75359 -0.1857,2.241135 c -0.10212,1.232628 -0.18705,3.032949 -0.1887,4.00072 -0.002,1.280218 -0.0678,1.759092 -0.2408,1.757783 -0.13077,-0.0011 -1.31136,-0.580525 -2.62351,-1.287853 z M 322.3177,87.29629 c 0,-0.243231 0.21834,-1.077846 0.4852,-1.854694 0.75685,-2.203302 2.04765,-8.723029 2.28511,-11.541939 0.0727,-0.863149 0.20552,-1.569358 0.29512,-1.569358 0.58979,0 4.57133,9.810226 4.28469,10.557162 -0.15321,0.399276 -6.8212,4.851074 -7.26603,4.851074 -0.0462,0 -0.0841,-0.19901 -0.0841,-0.442245 z m 9.07096,-6.357081 c -0.0461,-0.07914 -0.3086,-0.957104 -0.58331,-1.95103 -1.21515,-4.396553 -2.84462,-8.66265 -4.6501,-12.17441 -1.13189,-2.20158 -1.24177,-2.525849 -1.48262,-4.375177 -0.73891,-5.673505 -2.20063,-10.768379 -4.36549,-15.216082 -1.23787,-2.543159 -1.23825,-2.544438 -0.85846,-2.924223 0.54104,-0.541033 0.903,-0.324548 3.32741,1.990171 5.47959,5.231684 9.26656,10.971288 11.78541,17.862158 0.90496,2.475735 1.41963,4.549333 1.93577,7.799233 0.42574,2.680697 0.42852,2.779663 0.0987,3.519165 -0.60461,1.355677 -4.94693,5.917195 -5.20732,5.470195 z m -68.10721,-4.936896 c -1.27084,-2.376351 -1.17941,-2.811661 0.4662,-2.219908 0.52488,0.188744 1.03077,0.435287 1.12421,0.547874 0.10112,0.121832 0.0607,0.817318 -0.0997,1.717958 -0.14829,0.83229 -0.2726,1.534652 -0.27626,1.560809 -0.004,0.02616 -0.0794,0.04755 -0.16819,0.04755 -0.0889,0 -0.55966,-0.744429 -1.04623,-1.654289 z m -12.48842,-4.032052 -2.18758,-0.115524 -0.0616,-0.538478 c -0.23164,-2.022425 2.12811,-9.141306 4.36881,-13.179849 1.20465,-2.171196 1.64169,-2.785335 1.87815,-2.639195 0.0783,0.04839 0.203,0.666979 0.27713,1.374646 0.30404,2.902843 1.7482,8.721425 3.06899,12.365106 0.68582,1.891999 0.81288,2.420125 0.61276,2.546996 -0.13885,0.08803 -0.98892,0.161373 -1.88903,0.162972 -0.90011,0.0015 -2.14134,0.0335 -2.75826,0.07088 -0.61694,0.03738 -2.10612,0.01599 -3.3093,-0.04755 z m 10.14341,-0.638645 c -0.35655,-0.560729 -1.11768,-2.551214 -2.16397,-5.659197 -1.08065,-3.209987 -1.79579,-6.068262 -2.65615,-10.616071 l -0.40694,-2.15105 1.05679,-1.40408 c 2.30177,-3.058174 5.92026,-6.428616 9.53021,-8.876896 2.24234,-1.520761 4.67999,-2.902018 5.0697,-2.872662 0.67816,0.05108 5.09595,3.373809 7.94697,5.977101 l 1.38695,1.266446 -1.1146,1.207836 c -5.77374,6.256662 -10.05882,13.131227 -12.81061,20.552068 -0.45413,1.224674 -0.95224,2.275236 -1.1069,2.334585 -0.29095,0.111649 -3.42784,0.470586 -4.16347,0.476405 -0.22923,0.0017 -0.48482,-0.103703 -0.56798,-0.234485 z m 10.21068,-1.756984 c 0,-0.476689 2.24411,-5.581607 3.47148,-7.896941 2.24848,-4.241585 7.28704,-11.601351 7.94203,-11.600843 0.39303,4.02e-4 3.46753,3.879556 5.49403,6.932052 1.50772,2.271079 3.5993,5.897751 3.49833,6.0659 -0.1256,0.209184 -2.04694,1.078164 -4.91146,2.221349 -4.28305,1.709301 -8.3028,3.017782 -12.31308,4.008066 -2.54344,0.628066 -3.18133,0.682287 -3.18133,0.270417 z m 22.50066,-7.944499 c -0.10049,-0.130779 -0.51062,-0.794189 -0.91139,-1.474244 -2.05463,-3.48638 -4.76889,-7.228106 -7.27483,-10.028652 -0.86314,-0.964623 -1.56936,-1.919916 -1.56936,-2.122876 0,-0.495323 2.79112,-3.097497 5.459,-5.089439 2.89401,-2.160788 2.78645,-2.123777 4.35194,-1.497482 4.86526,1.946409 9.98134,4.826405 13.8451,7.793823 0.82215,0.631417 1.74115,1.319234 2.04222,1.528481 0.30108,0.209248 0.52085,0.466053 0.48838,0.570676 -0.25174,0.811305 -8.98954,6.767585 -14.01222,9.551693 -1.93409,1.072074 -2.13595,1.136171 -2.41884,0.76802 z m 27.99608,-2.1905 c -0.10907,-0.07686 -0.87948,-0.995578 -1.71206,-2.041581 -0.83254,-1.046006 -2.51955,-2.9382 -3.74888,-4.20488 -1.40996,-1.452798 -2.23514,-2.450256 -2.23514,-2.701774 0,-0.362099 0.79187,-1.038421 4.02468,-3.43741 0.32524,-0.241353 0.39508,-0.167393 0.89815,0.951127 1.20442,2.677869 2.72186,7.957602 2.9865,10.391191 0.13326,1.225379 0.12215,1.279718 -0.21325,1.043327 z m -9.87295,-10.299458 c -0.19696,-0.318692 -3.84027,-3.008284 -5.78081,-4.267563 -2.70628,-1.756187 -7.92732,-4.406358 -10.27114,-5.21357 -0.88891,-0.30614 -1.15406,-0.659489 -0.80789,-1.076599 0.32132,-0.38717 3.21294,-1.59455 5.74106,-2.39715 l 2.20771,-0.700877 1.21635,0.316603 c 2.23983,0.583003 5.76034,1.93146 8.11219,3.107202 l 2.33045,1.16504 1.52161,2.045797 c 0.83689,1.125187 1.52162,2.102929 1.52162,2.172757 0,0.178827 -4.15778,4.284947 -4.74605,4.687094 -0.53913,0.368544 -0.8841,0.421774 -1.0451,0.161266 z M 281.01456,45.57368 c -0.76407,-0.922848 -5.20863,-4.492978 -7.63229,-6.130718 -0.49697,-0.335812 -0.90357,-0.681574 -0.90357,-0.768361 0,-0.335524 0.5408,-0.567073 2.28269,-0.977366 1.74197,-0.410308 1.92035,-0.417139 4.94586,-0.189407 4.58446,0.345073 9.91291,1.388901 10.14237,1.98686 0.14202,0.370098 -0.0481,0.56913 -1.2969,1.357757 -1.49431,0.943662 -4.51308,3.185787 -5.67977,4.218521 -0.99284,0.878846 -1.44557,1.001316 -1.85839,0.502714 z m 36.64947,-3.057775 c -0.84548,-1.244231 -0.50368,-1.594156 0.63478,-0.649867 0.50221,0.416562 0.6131,0.622119 0.5103,0.946008 -0.19375,0.610438 -0.60053,0.505236 -1.14508,-0.296141 z m -26.92372,-4.454209 c -1.30845,-0.453803 -6.65651,-1.449371 -8.56013,-1.593509 -2.5113,-0.190149 -3.0436,-0.288909 -3.0436,-0.564684 0,-0.3013 1.5845,-0.672423 5.04096,-1.180696 1.87039,-0.275041 3.61235,-0.336281 9.64421,-0.339048 5.07318,-0.0023 7.42616,0.06122 7.56951,0.204421 0.30139,0.301082 -0.0662,0.522869 -1.51072,0.91154 -1.28304,0.345219 -5.91854,2.25758 -6.56696,2.709176 -0.49316,0.343466 -1.28996,0.297887 -2.57327,-0.1472 z"
       style="fill:#00bbf2;fill-opacity:1"
       clip-path="url(#clipPath5062)"
       transform="matrix(0.70584091,0,0,0.70545639,56.771625,882.31036)"
       sodipodi:nodetypes="cccssscccccsscccssccsscssccssssssssscssssscsssscccscsssccscssssssssssscccccccssssccccssscccccccscscssccsssscssssssccsscssssssssscssscssccccccsscccccsccsscsscccccccscscscccssssssssccccscccscccccsccsccsccssscsssscssscssscscssssssssssccssccssssscssssscsscsscsssssssssssssssssssssss" />
  </g>
</svg>
