<?xml version="1.0" encoding="UTF-8" standalone="no"?>
<!-- Created with Inkscape (http://www.inkscape.org/) -->

<svg
   xmlns:dc="http://purl.org/dc/elements/1.1/"
   xmlns:cc="http://creativecommons.org/ns#"
   xmlns:rdf="http://www.w3.org/1999/02/22-rdf-syntax-ns#"
   xmlns:svg="http://www.w3.org/2000/svg"
   xmlns="http://www.w3.org/2000/svg"
   xmlns:sodipodi="http://sodipodi.sourceforge.net/DTD/sodipodi-0.dtd"
   xmlns:inkscape="http://www.inkscape.org/namespaces/inkscape"
   width="318"
   height="218"
   viewBox="0 0 318 218"
   id="svg2"
   version="1.1"
   inkscape:version="0.91 r13725"
   sodipodi:docname="kde.svg"
   inkscape:export-filename="/home/trlinux/yaliTema/slideshow/kde.png"
   inkscape:export-xdpi="90"
   inkscape:export-ydpi="90">
  <defs
     id="defs4" />
  <sodipodi:namedview
     id="base"
     pagecolor="#ffffff"
     bordercolor="#666666"
     borderopacity="1.0"
     inkscape:pageopacity="0.0"
     inkscape:pageshadow="2"
     inkscape:zoom="1.4"
     inkscape:cx="78.392665"
     inkscape:cy="104.10974"
     inkscape:document-units="px"
     inkscape:current-layer="layer1"
     showgrid="false"
     units="px"
     inkscape:window-width="1366"
     inkscape:window-height="711"
     inkscape:window-x="0"
     inkscape:window-y="0"
     inkscape:window-maximized="1" />
  <metadata
     id="metadata7">
    <rdf:RDF>
      <cc:Work
         rdf:about="">
        <dc:format>image/svg+xml</dc:format>
        <dc:type
           rdf:resource="http://purl.org/dc/dcmitype/StillImage" />
        <dc:title />
      </cc:Work>
    </rdf:RDF>
  </metadata>
  <g
     inkscape:label="Layer 1"
     inkscape:groupmode="layer"
     id="layer1"
     transform="translate(0,-834.36216)">
    <path
       inkscape:connector-curvature="0"
       style="fill:#00bbf2;fill-opacity:1;fill-rule:evenodd;stroke:none"
       id="path53"
       d="m 165.50228,864.55835 -26.06304,1.85535 0,103.8087 26.06304,-3.1734 0,-45.3168 c 11.30108,17.05455 20.37816,32.9223 35.50874,49.4148 l 26.98762,-7.75905 C 213.54901,946.6457 202.7602,931.9025 192.90847,915.8285 c 10.25155,-15.1056 23.08317,-30.2859 35.62743,-43.85475 l -27.96843,-6.85935 c -13.05653,14.712 -24.66995,29.9175 -35.06519,45.1917 m -59.37277,-24.45135 c -0.3686,0.0495 -0.80589,0.2688 -1.14948,0.61245 -3.07359,2.90475 -5.978511,5.8098 -9.027111,8.71455 -1.34314,1.29315 0.0251,2.83005 0.61221,3.90465 l 6.197161,8.5647 4.63538,6.24705 c 0.65595,0.906 0.85587,0.9996 0.51226,1.6368 -0.4123,0.65595 -0.75589,1.19325 -1.14946,1.85535 -6.02849,10.12665 -1.80543,10.9077 -14.712021,14.1999 l -9.88296,1.6368 c -1.46182,0.4872 -3.36721,0.4371 -3.46716,2.4675 0,4.098 -0.12495,8.1774 -0.12495,12.25065 -0.075,1.8804 2.02407,2.049 3.26726,2.3676 l 10.52017,1.83045 7.883881,1.437 c 1.07451,0.144 1.31816,-0.1005 1.56179,0.70575 3.22353,13.59375 7.44034,10.47015 0.4123,22.35225 l -5.659901,7.884 c -0.7559,1.368 -2.14901,2.7111 -0.73091,4.098 2.97989,2.955 5.834821,5.9286 8.833441,8.8836 1.31816,1.29315 3.02363,-0.0255 4.09814,-0.6123 l 8.71474,-6.05355 6.51578,-4.39185 c 0.90582,-0.7308 1.02453,-0.9057 1.68672,-0.5121 13.05651,7.9776 13.51879,2.21775 17.3233,15.6427 l 1.88039,9.6144 c 0.48727,1.4369 0.53725,3.2922 2.53633,3.3672 l 12.68795,0 c 1.90537,0 2.07405,-2.1739 2.31768,-3.3672 l 1.78044,-10.2265 1.26816,-7.56525 c 0.075,-0.73095 0.0499,-1.09965 0.19366,-1.34325 15.29924,-3.1485 11.49474,-7.59015 23.93903,-0.5121 l 8.07754,5.5161 c 1.48682,0.7308 2.90493,1.99905 4.31678,0.6372 2.99862,-2.8299 5.9785,-5.685 8.98338,-8.4897 1.34314,-1.3683 0.0249,-2.9301 -0.61221,-3.9795 l -0.12495,0 -5.87856,-8.0775 -3.87947,1.3179 c -0.99954,0.6561 -2.31769,0.4125 -3.49215,-1.1244 l -8.48986,-10.9323 c -7.93386,10.6887 -20.76548,17.5917 -35.30882,17.5917 -23.93902,0 -43.4863,-19.00995 -43.4863,-42.33675 0,-16.56735 9.85798,-30.91695 24.15766,-37.8576 l 0,-9.73935 c -0.48727,0.24375 -1.0495,0.36855 -1.46182,0.5124 -5.59119,2.26755 -5.95352,3.2922 -15.10557,-1.83045 l -8.07755,-5.61 c -1.12449,-0.4872 -2.12401,-1.41795 -3.14856,-1.17435 m 27.74354,21.765 c -12.15068,6.6843 -20.40314,19.49715 -20.40314,34.0656 0,21.49635 18.01049,39.0696 40.16907,39.0696 13.68749,0 25.69448,-6.75945 32.94116,-17.0361 l -0.39357,-0.8307 c -8.48985,9.177 -18.08546,15.1305 -32.67252,15.4491 -18.17916,0.3186 -36.57698,-15.4491 -36.67694,-36.2145 -0.1437,-13.40025 6.19716,-22.4025 17.01095,-28.8183 l 0,-5.63475 m 0.0249,0" />
  </g>
</svg>
