<?xml version="1.0" encoding="UTF-8" standalone="no"?>
<!-- Created with Inkscape (http://www.inkscape.org/) -->

<svg
   xmlns:dc="http://purl.org/dc/elements/1.1/"
   xmlns:cc="http://creativecommons.org/ns#"
   xmlns:rdf="http://www.w3.org/1999/02/22-rdf-syntax-ns#"
   xmlns:svg="http://www.w3.org/2000/svg"
   xmlns="http://www.w3.org/2000/svg"
   xmlns:xlink="http://www.w3.org/1999/xlink"
   xmlns:sodipodi="http://sodipodi.sourceforge.net/DTD/sodipodi-0.dtd"
   xmlns:inkscape="http://www.inkscape.org/namespaces/inkscape"
   width="318"
   height="218"
   viewBox="0 0 318 218"
   id="svg2"
   version="1.1"
   inkscape:version="0.91 r13725"
   sodipodi:docname="kontact.svg"
   inkscape:export-filename="/home/trlinux/yaliTema/slideshow/kontact.png"
   inkscape:export-xdpi="90"
   inkscape:export-ydpi="90">
  <defs
     id="defs4">
    <clipPath
       id="clipPath5127"
       clipPathUnits="userSpaceOnUse">
      <path
         inkscape:connector-curvature="0"
         id="path5129"
         d="M 255.99999,45.26758 A 210.73167,210.73167 0 0 0 45.26756,256 210.73167,210.73167 0 0 0 255.99999,466.73242 210.73167,210.73167 0 0 0 466.73244,256 210.73167,210.73167 0 0 0 255.99999,45.26758 Z m 0,111.84375 A 98.888542,98.888542 0 0 1 354.88864,256 98.888542,98.888542 0 0 1 255.99999,354.88867 98.888542,98.888542 0 0 1 157.11132,256 98.888542,98.888542 0 0 1 255.99999,157.11133 Z"
         style="opacity:1;fill:#f9f9f9;fill-opacity:1;stroke:none;stroke-width:0;stroke-linecap:butt;stroke-linejoin:miter;stroke-miterlimit:4;stroke-dasharray:none;stroke-dashoffset:0;stroke-opacity:1" />
    </clipPath>
    <clipPath
       clipPathUnits="userSpaceOnUse"
       id="clipPath5062">
      <circle
         style="opacity:1;fill:none;fill-opacity:1;stroke:#000000;stroke-width:0.51056468;stroke-miterlimit:4;stroke-dasharray:none;stroke-dashoffset:0;stroke-opacity:1"
         id="circle5064"
         cx="292.41159"
         cy="78.3964"
         r="43.65332" />
    </clipPath>
    <linearGradient
       x1="0"
       y1="0"
       x2="1"
       y2="0"
       gradientUnits="userSpaceOnUse"
       gradientTransform="matrix(0.0722656,0,0,-0.0722656,200.72217,103.27344)"
       spreadMethod="pad"
       id="linearGradient356">
      <stop
         style="stop-opacity:1;stop-color:#ffce00"
         offset="0"
         id="stop358" />
      <stop
         style="stop-opacity:1;stop-color:#ffb500"
         offset="0.266663"
         id="stop360" />
      <stop
         style="stop-opacity:1;stop-color:#ffb500"
         offset="0.266663"
         id="stop362" />
      <stop
         style="stop-opacity:1;stop-color:#ff3800"
         offset="1"
         id="stop364" />
    </linearGradient>
    <linearGradient
       x1="0"
       y1="0"
       x2="1"
       y2="0"
       gradientUnits="userSpaceOnUse"
       gradientTransform="matrix(0.3618164,0,0,-0.3618164,153.61572,194.44922)"
       spreadMethod="pad"
       id="linearGradient380">
      <stop
         style="stop-opacity:1;stop-color:#ffce00"
         offset="0"
         id="stop382" />
      <stop
         style="stop-opacity:1;stop-color:#ffb500"
         offset="0.266663"
         id="stop384" />
      <stop
         style="stop-opacity:1;stop-color:#ffb500"
         offset="0.266663"
         id="stop386" />
      <stop
         style="stop-opacity:1;stop-color:#ff3800"
         offset="1"
         id="stop388" />
    </linearGradient>
    <radialGradient
       inkscape:collect="always"
       xlink:href="#SVGID_24_"
       id="radialGradient4031"
       gradientUnits="userSpaceOnUse"
       gradientTransform="matrix(0.205,0,0,-0.205,-254.2424,82.5027)"
       cx="1311.9355"
       cy="-1874.3018"
       r="8.5094995" />
    <radialGradient
       id="SVGID_24_"
       cx="1311.9355"
       cy="-1874.3018"
       r="8.5094995"
       gradientTransform="matrix(0.205,0,0,-0.205,-254.2424,82.5027)"
       gradientUnits="userSpaceOnUse">
      <stop
         offset="0"
         stop-color="#600000"
         id="stop222" />
      <stop
         offset="0.5"
         stop-color="#C00000"
         id="stop224" />
      <stop
         offset="1"
         stop-color="#F6AA00"
         id="stop226" />
    </radialGradient>
    <radialGradient
       inkscape:collect="always"
       xlink:href="#SVGID_25_"
       id="radialGradient4033"
       gradientUnits="userSpaceOnUse"
       gradientTransform="matrix(0.205,0,0,-0.205,-254.2424,82.5027)"
       cx="1312.9648"
       cy="-1872.2422"
       r="3.7997" />
    <radialGradient
       id="SVGID_25_"
       cx="1312.9648"
       cy="-1872.2422"
       r="3.7997"
       gradientTransform="matrix(0.205,0,0,-0.205,-254.2424,82.5027)"
       gradientUnits="userSpaceOnUse">
      <stop
         offset="0.01"
         stop-color="#FFF"
         id="stop231" />
      <stop
         offset="1"
         stop-color="#000"
         id="stop233" />
    </radialGradient>
    <radialGradient
       inkscape:collect="always"
       xlink:href="#SVGID_26_"
       id="radialGradient4035"
       gradientUnits="userSpaceOnUse"
       gradientTransform="matrix(0.205,0,0,-0.205,-254.2424,82.5027)"
       cx="1304.8555"
       cy="-1894.6313"
       r="12.9691" />
    <radialGradient
       id="SVGID_26_"
       cx="1304.8555"
       cy="-1894.6313"
       r="12.9691"
       gradientTransform="matrix(0.205,0,0,-0.205,-254.2424,82.5027)"
       gradientUnits="userSpaceOnUse">
      <stop
         offset="0"
         stop-color="#769EB8"
         id="stop238" />
      <stop
         offset="1"
         stop-color="#FFF"
         id="stop240" />
    </radialGradient>
    <radialGradient
       inkscape:collect="always"
       xlink:href="#SVGID_27_"
       id="radialGradient4037"
       gradientUnits="userSpaceOnUse"
       gradientTransform="matrix(0.205,0,0,-0.205,-254.2424,82.5027)"
       cx="1300.6055"
       cy="-1889.6313"
       r="3.7781999" />
    <radialGradient
       id="SVGID_27_"
       cx="1300.6055"
       cy="-1889.6313"
       r="3.7781999"
       gradientTransform="matrix(0.205,0,0,-0.205,-254.2424,82.5027)"
       gradientUnits="userSpaceOnUse">
      <stop
         offset="0.01"
         stop-color="#FFF"
         id="stop247" />
      <stop
         offset="1"
         stop-color="#000"
         id="stop249" />
    </radialGradient>
  </defs>
  <sodipodi:namedview
     id="base"
     pagecolor="#ffffff"
     bordercolor="#666666"
     borderopacity="1.0"
     inkscape:pageopacity="0.0"
     inkscape:pageshadow="2"
     inkscape:zoom="0.9899495"
     inkscape:cx="95.662734"
     inkscape:cy="125.04559"
     inkscape:document-units="px"
     inkscape:current-layer="layer1"
     showgrid="false"
     units="px"
     inkscape:window-width="1366"
     inkscape:window-height="711"
     inkscape:window-x="0"
     inkscape:window-y="0"
     inkscape:window-maximized="1" />
  <metadata
     id="metadata7">
    <rdf:RDF>
      <cc:Work
         rdf:about="">
        <dc:format>image/svg+xml</dc:format>
        <dc:type
           rdf:resource="http://purl.org/dc/dcmitype/StillImage" />
        <dc:title />
      </cc:Work>
    </rdf:RDF>
  </metadata>
  <g
     inkscape:label="Layer 1"
     inkscape:groupmode="layer"
     id="layer1"
     transform="translate(0,-834.36216)">
    <path
       inkscape:connector-curvature="0"
       d="m 79.603644,930.07518 c 0,-15.23412 -16.851908,-27.60163 -37.660386,-27.60163 -20.829933,0 -37.6861308,12.36751 -37.6861308,27.60163 0,9.3808 6.4240648,17.62427 16.1824638,22.61933 l -9.355018,17.7832 20.289231,-14.02827 c 3.372956,0.7252 6.883235,1.24014 10.569454,1.24014 20.812769,0 37.660386,-12.3632 37.660386,-27.6144 z m -49.495772,2.99533 -7.956055,0 0,-7.96038 7.956055,0 0,7.96038 z m 24.142812,-7.96038 7.956053,0 0,7.96038 -7.956053,0 0,-7.96038 z m -16.049433,0 7.951766,0 0,7.96038 -7.951766,0 0,-7.96038 z"
       id="path3013"
       style="fill:#9b59b6;fill-opacity:1" />
    <path
       inkscape:connector-curvature="0"
       d="m 104.25713,947.44198 c 0,-10.0116 -7.711453,-18.6972 -19.019017,-23.06567 0.55787,2.05554 0.85826,4.18834 0.85826,6.3854 0,18.05774 -19.954517,32.70827 -44.612283,32.70827 -0.304682,0 -0.587908,-0.064 -0.888298,-0.064 6.501309,6.1408 16.650216,10.106 28.077925,10.106 3.484529,0 6.793118,-0.48494 9.977258,-1.16294 l 19.173502,13.23867 -8.844355,-16.78333 c 9.217685,-4.72467 15.277008,-12.50907 15.277008,-21.362 z"
       id="path3015"
       style="fill:#441650" />
    <path
       style="fill:#ffffff;fill-opacity:1;fill-rule:nonzero;stroke:none"
       d="m 22.170035,929.18545 0,-3.87096 3.87093,0 3.870926,0 0,3.87096 0,3.87093 -3.870926,0 -3.87093,0 0,-3.87093 z"
       id="path3007"
       inkscape:connector-curvature="0" />
    <path
       style="fill:#ffffff;fill-opacity:1;fill-rule:nonzero;stroke:none"
       d="m 38.227219,929.18545 0,-3.87096 3.870929,0 3.870926,0 0,3.87096 0,3.87093 -3.870926,0 -3.870929,0 0,-3.87093 z"
       id="path3009"
       inkscape:connector-curvature="0" />
    <path
       style="fill:#ffffff;fill-opacity:1;fill-rule:nonzero;stroke:none"
       d="m 54.284402,929.18545 0,-3.87096 3.870926,0 3.870927,0 0,3.87096 0,3.87093 -3.870927,0 -3.870926,0 0,-3.87093 z"
       id="path3011"
       inkscape:connector-curvature="0" />
    <g
       id="g4004"
       transform="matrix(2.2218272,0,0,2.2218272,206.85695,-113.31643)">
      <path
         inkscape:connector-curvature="0"
         style="fill:#e6e6e6;stroke:none"
         id="path22"
         d="m 36.719,472.388 -19.566,7.362 -8.993,-14.302 -3.924,5.023 2.696,13.728 25.046,8.109 5.885,-9.996 -1.144,-9.924 z" />
      <path
         inkscape:connector-curvature="0"
         style="fill:#cccccc;stroke:none"
         id="path38"
         d="m 36.719,472.388 -0.388,-3.362 -27.779,-4.079 -0.147,0.187 -0.245,0.314 8.993,14.302 19.566,-7.362 z" />
      <path
         inkscape:connector-curvature="0"
         style="fill:#0b2228"
         id="path65"
         d="m 15.614,487.01 -8.682,-2.811 -1.029,-4.314 -1.821,-0.597 c 0,0 1.896,5.946 5.278,10.724 6.854,4.777 5.179,2.45 5.186,2.45 1.226,0.718 2.046,0.718 2.052,0.718 -0.004,-0.718 -3.08,-0.871 -3.945,-5.741 0.918,1.845 4.609,2.87 4.82,2.665 0.135,-0.137 -0.45,-1.145 -1.755,-3.023 l -0.104,-0.071 z" />
      <path
         inkscape:connector-curvature="0"
         style="fill:#0b2228"
         id="path74"
         d="m 13.053,491.848 c 0,0 -4.378,-0.298 -8.104,-7.686 -2.2,-7.643 2.903,4.396 8.109,7.686 l -0.005,0 z" />
      <path
         inkscape:connector-curvature="0"
         style="fill:#164450"
         id="path83"
         d="m 2.784,474.99 c 0,0 0.529,11.525 6.379,13.422 C 6.185,484.363 5.341,476.469 5.347,476.469 L 2.784,474.99 Z" />
      <path
         inkscape:connector-curvature="0"
         style="fill:#216778"
         id="path92"
         d="m 6.235,482.313 c -1.23,0.256 -3.562,-4.05 -3.479,-8.509 0.049,-2.973 0.56,-5.348 1.532,-7.125 l 1.025,8.458 c 0,0 0,5.792 0.929,7.177 l -0.007,0 z" />
      <path
         inkscape:connector-curvature="0"
         style="fill:#00222b"
         id="path94"
         d="m 21.972,455.605 c 0,0 -14.046,2.256 -17.679,11.072 -2.491,6.23 3.147,11.561 3.999,10.715 -0.004,0 -3.062,-3.98 -0.049,-9.926 2.003,-3.965 6.58,-7.918 13.729,-11.861 z" />
      <path
         inkscape:connector-curvature="0"
         style="fill:#00bbf2"
         id="path103"
         d="m 21.972,455.605 c 0,0 -14.046,2.256 -17.679,11.072 -2.491,6.23 3.147,11.561 3.999,10.715 -0.004,0 -3.9,-4.614 -0.459,-10.868 2.288,-4.169 7,-7.809 14.139,-10.919 z" />
      <path
         inkscape:connector-curvature="0"
         style="fill:#00222b"
         id="path114"
         d="m 35.734,457.886 c -1.066,-0.997 -3.541,-1.663 -4.943,-1.948 -1.208,-0.242 -2.494,-0.32 -3.711,-0.41 -0.842,-0.06 -3.236,-0.015 -4.253,0.09 -2.567,0.266 -3.595,1.214 -5.659,2.673 -1.893,1.331 -4.677,2.781 -5.5,5.108 -0.652,1.292 -0.065,3.354 -0.035,4.624 l 0.035,0.894 c -0.039,-0.063 -0.057,-0.103 -0.051,-0.103 0.006,0 -1.14,2.828 0.133,4.101 0.012,-0.115 0.039,-0.228 0.084,-0.338 l -0.082,0.338 c 0,0 0.556,-1.017 1.577,-1.548 1.021,-0.531 1.958,-1 2.721,-1.46 0.763,-0.459 3.153,-2.374 5.102,-2.239 1.298,0.091 5.057,0.752 11.278,1.982 l 0.649,-3.143 -1.177,-0.888 c 0.125,-0.33 0.221,-0.681 0.404,-0.98 0.446,-0.769 0.502,-1.439 0.494,-2.317 1.038,-0.245 2.2,-0.672 2.88,-1.553 0.578,-0.771 0.856,-2.132 0.061,-2.883 l -0.007,0 z" />
      <path
         inkscape:connector-curvature="0"
         style="fill:#00bbf2"
         id="path123"
         d="m 35.734,457.886 c -1.066,-0.997 -3.541,-1.663 -4.943,-1.948 -1.208,-0.242 -2.494,-0.32 -3.711,-0.41 -0.842,-0.06 -3.236,-0.015 -4.253,0.09 -2.567,0.266 -3.595,1.214 -5.659,2.673 -1.893,1.331 -4.677,2.781 -5.5,5.108 -0.652,1.292 -0.065,3.354 -0.035,4.624 l 0.035,0.894 c -0.039,-0.063 -0.057,-0.103 -0.051,-0.103 0.006,0 -1.14,2.828 0.133,4.101 0.137,-1.333 2.255,-2.358 2.262,-2.358 l 1.561,-0.785 c 0.238,-0.162 0.892,-0.56 1.101,-0.769 1.245,-0.72 2.288,-1.511 3.76,-1.657 1.942,-0.195 3.779,0.668 5.716,0.459 1.588,-0.172 3.759,-0.398 5.139,-1.277 0.648,-0.417 0.666,-1.261 1.041,-1.889 0.447,-0.767 0.503,-1.439 0.494,-2.317 1.038,-0.246 2.201,-0.672 2.879,-1.554 0.555,-0.771 0.833,-2.132 0.037,-2.883 l -0.006,0 z" />
      <path
         style="fill:#484848"
         inkscape:connector-curvature="0"
         id="path125"
         d="m 21.152,454.478 c -0.224,0.094 -0.451,0.226 -0.675,0.383 0.228,-0.158 0.455,-0.291 0.681,-0.383 l -0.006,0 z m 0,0 c -1.975,1.281 -2.701,3.931 -2.694,3.931 0.201,-0.086 0.498,-0.463 0.898,-0.925 -0.24,0.277 -0.445,0.525 -0.607,0.695 0.01,-0.049 0.814,-2.184 2.409,-3.701 l -0.006,0 z m -0.615,-1.436 c -4.408,3.221 -4.206,5.807 -4.199,5.807 0.063,-0.033 0.146,-0.092 0.246,-0.172 -0.008,-0.002 -0.125,-1.991 3.959,-5.635 l -0.006,0 z m 1.092,2.563 c -1.017,1.436 -0.238,1.743 -0.231,1.743 0.006,10e-4 -0.289,-0.477 0.231,-1.743 z m -1.084,0.669 c 0.326,-0.264 0.687,-0.502 1.091,-0.668 -0.42,0.174 -0.779,0.41 -1.085,0.668 -0.006,0 -0.006,0 0,0 l -0.006,0 z" />
      <path
         inkscape:connector-curvature="0"
         style="fill:#00bbf2"
         id="path132"
         d="m 12.122,462.456 c 2.793,-8.528 8.415,-9.414 8.421,-9.414 -4.413,3.221 -4.21,5.807 -4.204,5.807 0.722,-0.365 3.035,-3.619 4.818,-4.372 -1.977,1.281 -2.704,3.931 -2.698,3.931 0.49,-0.205 1.518,-2.11 3.18,-2.803 -1.019,1.436 -0.242,1.743 -0.236,1.743 l -9.281,5.108 z" />
      <path
         inkscape:connector-curvature="0"
         style="fill:#0b2228"
         id="path134"
         d="m 45.535,471.593 -8.954,-3.736 -0.769,8.663 c 0.098,0.561 0.164,1.165 0.207,1.805 -0.01,-0.106 -0.017,-0.209 -0.019,-0.313 -0.744,11.907 -7.808,18.005 -11.353,19.577 4.455,0.308 7.192,-1.242 7.198,-1.242 0.007,0 -0.597,0.73 -2.186,1.703 1.999,0 6.972,-1.896 7.952,-3.895 l 0.508,0.205 c -0.002,0 9.686,-6.768 7.42,-22.767 l -0.004,0 z" />
      <path
         inkscape:connector-curvature="0"
         id="path152"
         d="m 36.02,477.621 c -1.594,3.437 -4.41,3.82 -4.404,3.82 0.006,0 2.354,0.41 4.302,-1.948 0.278,-0.341 0.289,-0.997 0.108,-1.872 l -0.006,0 z" />
      <path
         inkscape:connector-curvature="0"
         style="fill:#164450"
         id="path161"
         d="m 45.535,471.593 -8.954,-3.736 -0.769,8.663 c 0.082,0.471 0.141,0.973 0.185,1.5 -0.003,-0.005 -0.003,-0.009 0.004,-0.009 0.004,0.104 0.011,0.207 0.022,0.313 -0.01,-0.103 -0.019,-0.203 -0.021,-0.303 -0.03,0.432 -0.067,0.856 -0.104,1.275 -0.115,1.865 -0.131,5.328 1.023,7.426 0.785,-1.188 1.574,-2.67 1.85,-4.154 0.123,1.508 -0.591,3.445 -1.29,4.948 0.231,0.263 0.503,0.479 0.813,0.64 0.117,0.049 0.236,0.086 0.361,0.117 0.982,-1.215 2.578,-3.459 2.992,-5.705 0.143,1.771 -0.865,4.141 -1.655,5.694 3.366,-0.921 5.661,-8.306 5.708,-8.438 -0.004,-0.002 -0.004,-0.002 0.002,-0.004 0.263,-2.413 0.27,-5.149 -0.162,-8.229 l -0.005,0 z" />
      <path
         inkscape:connector-curvature="0"
         style="fill:#216778"
         id="path174"
         d="m 38.529,475.648 c 0.563,3.281 -1.641,8.1 -1.635,8.1 0.006,0 3.293,-0.646 4.747,-7.652 0,0 -0.31,4.865 -0.951,6.012 -0.005,0 3.174,-1.486 3.847,-7.535 0.672,-6.049 -3.695,-9.74 -5.079,-9.022 -0.923,0.478 -1.232,3.844 -0.929,10.097 z" />
      <path
         inkscape:connector-curvature="0"
         style="fill:#00bbf2"
         id="path183"
         d="m 45.652,472.294 c 0,-0.002 0,-0.002 0.006,-0.004 -0.332,-2.147 -0.908,-4.187 -1.684,-6.022 -1.994,-4.679 -5.309,-7.536 -9.143,-8.714 -8.719,-0.82 -13.024,5.296 -13.018,5.296 3.285,0 6.803,1.054 9.094,4.392 2.633,3.857 3.623,10.297 0.717,14.2 -0.004,0 6.045,-0.82 5.436,-10.868 -0.004,0 2.149,4.204 -0.613,9.996 -0.004,0 5.584,-1.384 3.848,-12.148 -0.004,0 1.277,2.46 0.873,8.15 -0.004,0 2.303,-1.604 2.309,-6.51 -0.004,0 1.586,5.177 0.002,8.458 -0.004,0 0.023,-0.091 0.145,-0.181 0.494,-0.419 2.434,-2.075 2.035,-6.045 l -0.007,0 z" />
      <path
         inkscape:connector-curvature="0"
         style="fill:#216778"
         id="path210"
         d="m 13.787,469.122 c 4.767,-0.154 2.239,-3.402 8.602,-9.553 -5.184,3.008 -10.583,2.94 -8.595,9.553 l -0.007,0 z" />
      <path
         inkscape:connector-curvature="0"
         style="fill:#216778"
         id="path217"
         d="m 13.787,469.122 c 0.838,-1.214 3.674,-5.93 8.602,-9.553 -5.184,3.008 -10.583,2.94 -8.595,9.553 l -0.007,0 z" />
      <path
         style="fill:#000064"
         inkscape:connector-curvature="0"
         id="path219"
         d="m 16.243,467.226 c -0.896,0.896 -1.969,0.687 -2.053,-0.494 -0.131,-1.669 1.659,-1.846 2.438,-1.591 0.263,0.756 -0.07,1.495 -0.379,2.085" />
      <path
         style="fill:url(#radialGradient4031)"
         inkscape:connector-curvature="0"
         id="path228"
         d="m 16.329,467.002 c -0.289,0.539 -0.964,0.756 -1.337,0.554 -0.381,-0.203 -0.379,-0.882 -0.084,-1.421 0.285,-0.54 1.544,-0.297 1.55,-0.297 0.006,-0.001 0.16,0.627 -0.129,1.164 z" />
      <path
         style="fill:url(#radialGradient4033)"
         inkscape:connector-curvature="0"
         id="path235"
         d="m 15.056,467.035 c 0.263,0.328 0.665,0.445 0.902,0.26 0.228,-0.187 0.332,-0.734 0.074,-1.062 -0.267,-0.33 -0.797,-0.313 -1.023,-0.129 -0.242,0.185 -0.217,0.603 0.053,0.931 l -0.006,0 z" />
      <path
         style="fill:url(#radialGradient4035)"
         inkscape:connector-curvature="0"
         id="path242"
         d="m 14.062,470.488 c 0,0 0,-0.513 -0.148,-1.025 -1.765,0.599 -2.311,-0.648 -2.305,-0.648 0.006,0 -1.142,2.828 0.131,4.101 0.137,-1.333 2.255,-2.358 2.262,-2.358" />
      <path
         style="fill:#484848"
         inkscape:connector-curvature="0"
         id="path244"
         d="m 13.992,470.557 0.07,-0.069 c 0,0 0,-0.513 -0.148,-1.025 -2.807,1.503 -2.175,3.453 -2.169,3.453 0.129,-1.333 2.247,-2.358 2.253,-2.358 l -0.006,0 z" />
      <path
         style="fill:url(#radialGradient4037)"
         inkscape:connector-curvature="0"
         id="path251"
         d="m 11.732,470.652 c 0,0 0.015,-0.847 0.4,-1.001 -0.004,0.167 0.193,0.295 0.392,0.295 -0.537,0.053 -0.792,0.706 -0.785,0.706 l -0.007,0 z" />
    </g>
    <rect
       style="opacity:1;fill:#ffffff;fill-opacity:1;stroke:none;stroke-width:60;stroke-miterlimit:4;stroke-dasharray:none;stroke-dashoffset:0;stroke-opacity:1"
       id="rect3356"
       width="96.223328"
       height="68.913261"
       x="109.29702"
       y="895.24011" />
    <path
       inkscape:connector-curvature="0"
       id="path3335"
       d="m 171.58954,980.12376 c -7.45522,-6.77773 -13.64043,-12.35587 -13.74492,-12.396 -0.10454,-0.04 -11.4092,-0.0733 -25.12156,-0.0733 l -24.93155,0 0,-37.47067 0,-37.47053 50,0 50,0 0,37.47053 0,37.47067 -11.16205,0 c -9.21427,0 -11.18503,0.028 -11.29359,0.1584 -0.0947,0.11466 -0.13991,3.5908 -0.16145,12.39586 l -0.03,12.23747 -13.55492,-12.32293 z m -38.87258,-22.27347 c 0.0901,-0.108 0.14028,-1.6716 0.16147,-5.02933 l 0.0308,-4.87187 4.79411,-0.0307 4.79412,-0.0307 0,4.91893 c 0,3.66894 0.0359,4.9548 0.14117,5.06014 0.21375,0.21373 4.9588,0.19866 5.13721,-0.016 0.0901,-0.108 0.14028,-1.6716 0.16148,-5.02934 l 0.0307,-4.87186 4.93505,-0.0307 c 3.7685,-0.024 4.95692,-0.0653 5.02762,-0.1764 0.15822,-0.2492 0.1168,-4.9604 -0.0451,-5.12227 -0.10533,-0.10533 -1.39115,-0.1412 -5.06015,-0.1412 l -4.91896,0 0.0307,-4.79413 0.0307,-4.79413 4.93505,-0.0307 c 3.76849,-0.024 4.95692,-0.0653 5.02761,-0.17653 0.15823,-0.24907 0.1168,-4.96027 -0.0451,-5.12214 -0.10534,-0.10533 -1.39086,-0.1412 -5.05883,-0.1412 l -4.91764,0 0,-4.92853 c 0,-4.38573 -0.0205,-4.93653 -0.18611,-5 -0.37005,-0.14213 -4.93536,-0.08 -5.08449,0.0693 -0.1052,0.10534 -0.14117,1.37774 -0.14117,5 l 0,4.8588 -4.82354,0 -4.82352,0 0,-4.92853 c 0,-4.38573 -0.0205,-4.93653 -0.18609,-5 -0.37007,-0.14213 -4.93537,-0.08 -5.08449,0.0693 -0.1052,0.10534 -0.14119,1.37774 -0.14119,5 l 0,4.8588 -4.85881,0 c -3.62223,0 -4.89476,0.036 -5,0.1412 -0.14914,0.14907 -0.21178,4.7144 -0.0697,5.08454 0.0636,0.16546 0.6143,0.186 5,0.186 l 4.92859,0 0,4.8236 0,4.82346 -4.85881,0 c -3.62223,0 -4.89476,0.036 -5,0.1412 -0.14914,0.14907 -0.21178,4.7144 -0.0697,5.08454 0.0636,0.1656 0.6143,0.186 5,0.186 l 4.92859,0 0,4.91773 c 0,3.66787 0.0359,4.95347 0.14119,5.0588 0.21373,0.21373 4.95878,0.19867 5.13721,-0.016 z m 0.16147,-20.166 0.0308,-4.79413 4.79411,-0.0307 4.79412,-0.0307 0,4.82493 0,4.8248 -4.82484,0 -4.82486,0 0.0308,-4.79413 z m 45.98733,20.15414 c 1.99436,-0.4228 3.52447,-1.88867 4.05971,-3.88934 0.44155,-1.65053 -0.0392,-3.41293 -1.29236,-4.738 -3.00456,-3.17693 -8.15087,-1.5632 -8.91884,2.79654 -0.4626,2.62626 1.51147,5.31773 4.31253,5.88 0.69935,0.1404 0.97998,0.13333 1.83896,-0.0493 z m 15.05882,0 c 1.08205,-0.22934 1.87704,-0.6636 2.66508,-1.45574 2.02918,-2.03973 2.07266,-5.08826 0.10226,-7.1716 -3.00457,-3.17693 -8.15088,-1.5632 -8.91884,2.79654 -0.4626,2.62626 1.51147,5.31773 4.31254,5.88 0.69933,0.1404 0.97997,0.13333 1.83894,-0.0493 z"
       style="fill:#00bbf2;fill-opacity:1" />
  </g>
</svg>
