<?xml version="1.0" encoding="UTF-8" standalone="no"?>
<!-- Created with Inkscape (http://www.inkscape.org/) -->

<svg
   xmlns:dc="http://purl.org/dc/elements/1.1/"
   xmlns:cc="http://creativecommons.org/ns#"
   xmlns:rdf="http://www.w3.org/1999/02/22-rdf-syntax-ns#"
   xmlns:svg="http://www.w3.org/2000/svg"
   xmlns="http://www.w3.org/2000/svg"
   xmlns:sodipodi="http://sodipodi.sourceforge.net/DTD/sodipodi-0.dtd"
   xmlns:inkscape="http://www.inkscape.org/namespaces/inkscape"
   width="318"
   height="218"
   viewBox="0 0 318 218"
   id="svg2"
   version="1.1"
   inkscape:version="0.91 r13725"
   sodipodi:docname="libreoffice.svg"
   inkscape:export-filename="/home/trlinux/yaliTema/slideshow/libreoffice.png"
   inkscape:export-xdpi="90"
   inkscape:export-ydpi="90">
  <defs
     id="defs4">
    <clipPath
       id="clipPath5127"
       clipPathUnits="userSpaceOnUse">
      <path
         inkscape:connector-curvature="0"
         id="path5129"
         d="M 255.99999,45.26758 A 210.73167,210.73167 0 0 0 45.26756,256 210.73167,210.73167 0 0 0 255.99999,466.73242 210.73167,210.73167 0 0 0 466.73244,256 210.73167,210.73167 0 0 0 255.99999,45.26758 Z m 0,111.84375 A 98.888542,98.888542 0 0 1 354.88864,256 98.888542,98.888542 0 0 1 255.99999,354.88867 98.888542,98.888542 0 0 1 157.11132,256 98.888542,98.888542 0 0 1 255.99999,157.11133 Z"
         style="opacity:1;fill:#f9f9f9;fill-opacity:1;stroke:none;stroke-width:0;stroke-linecap:butt;stroke-linejoin:miter;stroke-miterlimit:4;stroke-dasharray:none;stroke-dashoffset:0;stroke-opacity:1" />
    </clipPath>
    <clipPath
       clipPathUnits="userSpaceOnUse"
       id="clipPath5062">
      <circle
         style="opacity:1;fill:none;fill-opacity:1;stroke:#000000;stroke-width:0.51056468;stroke-miterlimit:4;stroke-dasharray:none;stroke-dashoffset:0;stroke-opacity:1"
         id="circle5064"
         cx="292.41159"
         cy="78.3964"
         r="43.65332" />
    </clipPath>
    <linearGradient
       x1="0"
       y1="0"
       x2="1"
       y2="0"
       gradientUnits="userSpaceOnUse"
       gradientTransform="matrix(0.0722656,0,0,-0.0722656,200.72217,103.27344)"
       spreadMethod="pad"
       id="linearGradient356">
      <stop
         style="stop-opacity:1;stop-color:#ffce00"
         offset="0"
         id="stop358" />
      <stop
         style="stop-opacity:1;stop-color:#ffb500"
         offset="0.266663"
         id="stop360" />
      <stop
         style="stop-opacity:1;stop-color:#ffb500"
         offset="0.266663"
         id="stop362" />
      <stop
         style="stop-opacity:1;stop-color:#ff3800"
         offset="1"
         id="stop364" />
    </linearGradient>
    <linearGradient
       x1="0"
       y1="0"
       x2="1"
       y2="0"
       gradientUnits="userSpaceOnUse"
       gradientTransform="matrix(0.3618164,0,0,-0.3618164,153.61572,194.44922)"
       spreadMethod="pad"
       id="linearGradient380">
      <stop
         style="stop-opacity:1;stop-color:#ffce00"
         offset="0"
         id="stop382" />
      <stop
         style="stop-opacity:1;stop-color:#ffb500"
         offset="0.266663"
         id="stop384" />
      <stop
         style="stop-opacity:1;stop-color:#ffb500"
         offset="0.266663"
         id="stop386" />
      <stop
         style="stop-opacity:1;stop-color:#ff3800"
         offset="1"
         id="stop388" />
    </linearGradient>
    <radialGradient
       id="SVGID_24_"
       cx="1311.9355"
       cy="-1874.3018"
       r="8.5094995"
       gradientTransform="matrix(0.205,0,0,-0.205,-254.2424,82.5027)"
       gradientUnits="userSpaceOnUse">
      <stop
         offset="0"
         stop-color="#600000"
         id="stop222" />
      <stop
         offset="0.5"
         stop-color="#C00000"
         id="stop224" />
      <stop
         offset="1"
         stop-color="#F6AA00"
         id="stop226" />
    </radialGradient>
    <radialGradient
       id="SVGID_25_"
       cx="1312.9648"
       cy="-1872.2422"
       r="3.7997"
       gradientTransform="matrix(0.205,0,0,-0.205,-254.2424,82.5027)"
       gradientUnits="userSpaceOnUse">
      <stop
         offset="0.01"
         stop-color="#FFF"
         id="stop231" />
      <stop
         offset="1"
         stop-color="#000"
         id="stop233" />
    </radialGradient>
    <radialGradient
       id="SVGID_26_"
       cx="1304.8555"
       cy="-1894.6313"
       r="12.9691"
       gradientTransform="matrix(0.205,0,0,-0.205,-254.2424,82.5027)"
       gradientUnits="userSpaceOnUse">
      <stop
         offset="0"
         stop-color="#769EB8"
         id="stop238" />
      <stop
         offset="1"
         stop-color="#FFF"
         id="stop240" />
    </radialGradient>
    <radialGradient
       id="SVGID_27_"
       cx="1300.6055"
       cy="-1889.6313"
       r="3.7781999"
       gradientTransform="matrix(0.205,0,0,-0.205,-254.2424,82.5027)"
       gradientUnits="userSpaceOnUse">
      <stop
         offset="0.01"
         stop-color="#FFF"
         id="stop247" />
      <stop
         offset="1"
         stop-color="#000"
         id="stop249" />
    </radialGradient>
  </defs>
  <sodipodi:namedview
     id="base"
     pagecolor="#ffffff"
     bordercolor="#666666"
     borderopacity="1.0"
     inkscape:pageopacity="0.0"
     inkscape:pageshadow="2"
     inkscape:zoom="1.979899"
     inkscape:cx="177.31084"
     inkscape:cy="70.546594"
     inkscape:document-units="px"
     inkscape:current-layer="layer1"
     showgrid="false"
     units="px"
     inkscape:window-width="1366"
     inkscape:window-height="711"
     inkscape:window-x="0"
     inkscape:window-y="0"
     inkscape:window-maximized="1" />
  <metadata
     id="metadata7">
    <rdf:RDF>
      <cc:Work
         rdf:about="">
        <dc:format>image/svg+xml</dc:format>
        <dc:type
           rdf:resource="http://purl.org/dc/dcmitype/StillImage" />
        <dc:title />
      </cc:Work>
    </rdf:RDF>
  </metadata>
  <g
     inkscape:label="Layer 1"
     inkscape:groupmode="layer"
     id="layer1"
     transform="translate(0,-834.36216)">
    <path
       inkscape:connector-curvature="0"
       id="path4306"
       d="m 124.43884,992.95099 c -0.73247,-0.1968 -2.21959,-0.90639 -3.00621,-1.43452 -1.54115,-1.03452 -3.04353,-2.95423 -3.7721,-4.81994 l -0.35733,-0.91506 -0.0271,-42.36482 -0.0271,-42.3647 0.2624,-0.84759 c 0.83473,-2.69596 2.72014,-4.87274 5.28073,-6.09672 1.79872,-0.85972 0.0945,-0.79039 19.37545,-0.78826 l 17.15105,0 7.58473,7.62564 c 4.17161,4.19422 11.18874,11.24573 15.59363,15.67035 4.40488,4.42448 8.00888,8.06817 8.00888,8.09697 0,0.0293 1.36974,1.42145 3.04388,3.09449 l 3.04387,3.04197 0.0224,12.24598 c 0.012,6.73539 0.0236,19.25204 0.0249,27.81474 l 0.003,15.56874 -0.46433,0.96586 c -0.58839,1.22398 -0.93783,1.72904 -1.87583,2.71117 -1.21866,1.27598 -2.47243,2.05437 -4.29009,2.6633 l -0.88413,0.29626 -32.07072,-0.0133 c -27.96098,-0.0133 -32.14104,-0.028 -32.61959,-0.15653 z"
       style="fill:#ffffff;fill-opacity:1;stroke:none;stroke-width:0.44932497;stroke-opacity:1"
       sodipodi:nodetypes="csscccssscsssscsscssscscc" />
    <path
       style="fill:#394050;stroke-width:0.44932497"
       d="m 172.67807,893.11778 -0.062,0.28213 c -9e-5,4e-4 -1.1e-4,8e-4 -1.7e-4,10e-4 l -0.004,0.0187 c -0.0269,0.12267 -0.0239,0.24613 0.009,0.37667 0.0107,0.064 0.0244,0.12666 0.0436,0.17719 0.005,0.0133 0.0267,0.044 0.0552,0.0813 0.003,0 0.005,0.0133 0.009,0.0187 0.10067,0.19373 1.73261,1.91425 3.62629,3.82356 1.8937,1.90917 5.16601,5.21887 7.2719,7.35471 2.1059,2.13584 5.47412,5.55153 7.48494,7.59017 2.01081,2.03878 3.75681,3.84169 3.87989,4.00676 0.0257,0.0347 0.0563,0.068 0.0891,0.1 0.0991,0.10534 0.202,0.1772 0.32708,0.23 0.0605,0.0293 0.12213,0.0533 0.18264,0.0693 0.36052,0.096 0.622,0.12667 0.81944,0.096 0.0211,0 0.0419,0 0.0607,-0.0133 0.03,-0.0133 0.0587,-0.016 0.0856,-0.0253 0.007,0 0.0136,-0.0133 0.0201,-0.016 0.007,0 0.0133,0 0.0191,-0.0133 0.0455,-0.0293 0.0739,-0.33719 0.0899,-1.12692 0.003,-0.1 0.004,-0.22653 0.007,-0.34533 8.9e-4,-0.0467 10e-4,-0.088 10e-4,-0.13799 0.0159,-1.06666 0.0193,-2.7953 0.0185,-5.72447 -0.001,-4.31848 -0.0428,-7.58511 -0.10173,-7.9983 -0.0195,-0.13667 -0.042,-0.2716 -0.0659,-0.40573 -0.0276,-0.2084 -0.0615,-0.36613 -0.10466,-0.54239 -0.0152,-0.0613 -0.0365,-0.13694 -0.0552,-0.2064 -0.1028,-0.41346 -0.22768,-0.81399 -0.37425,-1.20092 -0.0251,-0.0707 -0.0513,-0.14667 -0.0744,-0.20627 -0.0756,-0.19533 -0.16801,-0.39786 -0.27346,-0.60425 -0.97667,-2.02211 -2.59766,-3.61689 -4.78004,-4.66715 -0.88823,-0.42746 -1.47565,-0.67119 -2.62597,-0.81106 -0.12946,-0.016 -0.26601,-0.032 -0.41946,-0.0453 -0.003,-2.6e-4 -0.005,-6.6e-4 -0.008,-9.3e-4 -0.0199,0 -0.0435,0 -0.0636,0 -0.10986,-0.0133 -0.22559,-0.0173 -0.35007,-0.0267 -1.46689,-0.1 -3.71299,-0.11066 -7.68454,-0.11066 l -7.05281,-6.7e-4 z m -46.52668,0.1996 c -0.7521,0 -1.46525,0.072 -2.00008,0.19333 -0.10694,0.024 -0.20684,0.0507 -0.29841,0.0787 -0.18316,0.056 -0.33329,0.11866 -0.44151,0.1872 -0.10973,0.0693 -0.44396,0.22186 -0.74244,0.33866 -0.74071,0.28986 -2.03431,1.15105 -2.71174,1.80544 -1.10361,1.06586 -1.8503,2.13184 -2.38387,3.41823 0,0 0,2.7e-4 0,2.7e-4 -0.0763,0.18373 -0.14825,0.37186 -0.21617,0.56532 l -0.33293,0.94799 0,42.31483 0,42.31495 0.2306,0.69853 c 0.36485,1.10559 1.0579,2.43877 1.63421,3.1437 0.88624,1.08398 1.46557,1.59158 2.91328,2.5521 0.40047,0.26573 1.52809,0.71959 2.35756,0.94905 0.45977,0.12667 1.01926,0.18133 1.92114,0.1856 l 1.27244,0 0,-49.84967 0,-49.84967 -1.20208,0 z"
       id="path4300"
       inkscape:connector-curvature="0" />
    <path
       inkscape:connector-curvature="0"
       id="path4306-36"
       d="m 20.992678,992.97566 c -0.732412,-0.19694 -2.219383,-0.90641 -3.005938,-1.43441 -1.541015,-1.03454 -3.04325,-2.95402 -3.771748,-4.81963 l -0.357308,-0.91493 -0.02707,-42.36091 -0.02707,-42.3609 0.262375,-0.84734 c 0.834658,-2.69588 2.719895,-4.87243 5.280256,-6.0963 1.798549,-0.8596 0.09457,-0.79027 19.373672,-0.78827 l 17.149487,0 7.584043,7.62497 c 4.171224,4.19376 11.187714,11.24473 15.592198,15.66876 4.404484,4.42416 8.008149,8.06751 8.008149,8.09631 0,0.0293 1.369622,1.42121 3.043601,3.09415 l 3.0436,3.04175 0.0224,12.24487 c 0.0123,6.7347 0.0236,19.25024 0.025,27.81216 l 0.003,15.56728 -0.46428,0.96574 c -0.58834,1.22388 -0.93775,1.72894 -1.87566,2.71095 -1.218551,1.27601 -2.472212,2.05428 -4.289709,2.66322 l -0.884038,0.29613 -32.067789,-0.0133 c -27.958428,-0.0133 -32.138103,-0.028 -32.616618,-0.15654 z"
       style="fill:#00bbf2;fill-opacity:1;stroke:none;stroke-width:0.44932497;stroke-opacity:1"
       sodipodi:nodetypes="csscccssscsssscsscssscscc" />
    <path
       style="fill:#00bbf2;fill-opacity:1;stroke:none;stroke-width:1px;stroke-linecap:butt;stroke-linejoin:miter;stroke-opacity:1"
       d="m 92.129211,917.1079 c -6.700838,-7.66844 -21.967209,-22.40266 -21.967209,-22.40266 0,0 -0.717396,-0.5132 -0.705506,-1.02587 0.01187,-0.51254 0.499057,-0.52627 0.499057,-0.52627 l 14.092119,-0.0133 c 0,0 3.639687,-0.112 6.676509,2.99081 3.03682,3.10269 2.87007,7.10684 2.87007,7.10684 l -0.003,13.53088 c 0,0 8.9e-4,0.4896 -0.4379,0.70067 -0.4387,0.21107 -1.02378,-0.3624 -1.02378,-0.3624 z"
       id="path2983"
       inkscape:connector-curvature="0"
       sodipodi:nodetypes="cczcczcczc" />
    <path
       inkscape:connector-curvature="0"
       id="path4306-3"
       d="m 24.005475,988.50363 c -0.654553,-0.17586 -1.98345,-0.81 -2.686388,-1.28187 -1.377197,-0.92454 -2.719736,-2.64001 -3.37079,-4.30722 l -0.319312,-0.81774 -0.02427,-37.85768 -0.02427,-37.85768 0.234479,-0.7572 c 0.745932,-2.40935 2.43076,-4.35443 4.718938,-5.44817 1.60735,-0.76827 0.08452,-0.7064 17.314126,-0.70453 l 15.326386,0 6.777812,6.81443 c 3.727795,3.74789 9.998387,10.04926 13.934646,14.00315 3.936258,3.95375 7.156832,7.20977 7.156832,7.23551 0,0.0253 1.22402,1.27014 2.720046,2.76535 l 2.720042,2.71828 0.02005,10.94326 c 0.01107,6.0187 0.02105,17.20369 0.02229,24.85547 l 0.0023,13.91235 -0.414927,0.8632 c -0.525795,1.09374 -0.838058,1.54508 -1.676261,2.42268 -1.089015,1.14027 -2.209404,1.83588 -3.833691,2.38001 l -0.790058,0.26467 -28.658777,-0.0133 C 28.16841,988.6233 24.433061,988.6113 24.005416,988.49686 Z"
       style="fill:#ffffff;fill-opacity:1;stroke:none"
       sodipodi:nodetypes="csscccssscsssscsscssscscc" />
    <rect
       style="fill:#00bbf2;fill-opacity:1;stroke:none"
       id="rect2990-3"
       width="52.362904"
       height="2.1384699"
       x="25.737574"
       y="955.81689" />
    <rect
       style="fill:#00bbf2;fill-opacity:1;stroke:none"
       id="rect2990-3-7"
       width="52.441422"
       height="2.1384699"
       x="25.737574"
       y="961.17682" />
    <rect
       style="fill:#00bbf2;fill-opacity:1;stroke:none"
       id="rect2990-3-5"
       width="52.834019"
       height="2.1384699"
       x="25.737574"
       y="966.06274" />
    <rect
       style="fill:#00bbf2;fill-opacity:1;stroke:none"
       id="rect2990-3-35"
       width="35.90601"
       height="2.1384699"
       x="25.737574"
       y="970.7265" />
    <rect
       style="fill:#5fbcd3;fill-opacity:1;stroke:#00bbf2;stroke-width:0.79361373;stroke-linecap:round;stroke-linejoin:round;stroke-miterlimit:4;stroke-dasharray:none;stroke-opacity:1"
       id="rect2997"
       width="26.012974"
       height="19.270676"
       x="52.458378"
       y="933.28448"
       transform="matrix(0.99999986,5.2631278e-4,-6.6188717e-4,0.99999978,0,0)" />
    <path
       sodipodi:type="arc"
       style="fill:#faec6d;fill-opacity:1;stroke:none"
       id="path3767"
       sodipodi:cx="73.379326"
       sodipodi:cy="938.91132"
       sodipodi:rx="2.699589"
       sodipodi:ry="2.699589"
       d="m 76.078915,938.91132 a 2.699589,2.699589 0 0 1 -2.696421,2.69958 2.699589,2.699589 0 0 1 -2.70275,-2.69325 2.699589,2.699589 0 0 1 2.690076,-2.70591 2.699589,2.699589 0 0 1 2.709065,2.6869"
       transform="matrix(0.99999982,6.0156638e-4,-5.7908377e-4,0.99999983,0,0)"
       sodipodi:start="0"
       sodipodi:end="6.2784904"
       sodipodi:open="true" />
    <path
       style="fill:#00222b;stroke:#000000;stroke-width:0.03306724px;stroke-linecap:butt;stroke-linejoin:miter;stroke-opacity:1"
       d="m 52.251726,945.09179 -0.04008,7.12857 25.256322,-0.0187 -0.06684,-5.89857 c 0,0 -3.566253,1.13694 -6.65064,0.78507 -3.084386,-0.35173 -7.786799,-3.87869 -11.069092,-4.01175 -3.282288,-0.13334 -7.429662,2.01481 -7.429662,2.01481 z"
       id="path3787"
       inkscape:connector-curvature="0"
       sodipodi:nodetypes="cccczzc" />
    <rect
       style="fill:#00bbf2;fill-opacity:1;stroke:none"
       id="rect2990-3-35-6"
       width="23.024858"
       height="2.1384699"
       x="25.737574"
       y="950.7793" />
    <rect
       style="fill:#00bbf2;fill-opacity:1;stroke:none"
       id="rect2990-3-35-6-2"
       width="23.024858"
       height="2.1384699"
       x="25.737574"
       y="945.89337" />
    <rect
       style="fill:#00bbf2;fill-opacity:1;stroke:none"
       id="rect2990-3-35-6-9"
       width="23.024858"
       height="2.1384699"
       x="25.737574"
       y="941.22955" />
    <rect
       style="fill:#00bbf2;fill-opacity:1;stroke:none"
       id="rect2990-3-35-6-1"
       width="23.024858"
       height="2.1384699"
       x="25.737574"
       y="936.67664" />
    <rect
       style="fill:#00bbf2;fill-opacity:1;stroke:none"
       id="rect2990-3-35-6-27"
       width="18.138903"
       height="2.1384699"
       x="30.881811"
       y="932.34607" />
    <path
       inkscape:connector-curvature="0"
       id="path4306-7"
       d="m 231.60948,992.97565 c -0.73242,-0.19694 -2.21939,-0.90641 -3.00594,-1.43441 -1.54102,-1.03454 -3.04325,-2.95402 -3.77175,-4.81963 l -0.3573,-0.91493 -0.0271,-42.36091 -0.0271,-42.3609 0.26237,-0.84734 c 0.83466,-2.69588 2.7199,-4.87243 5.28026,-6.0963 1.79856,-0.8596 0.0945,-0.79027 19.37367,-0.78827 l 17.1495,0 7.58404,7.62497 c 4.17122,4.19376 11.18771,11.24473 15.59219,15.66876 4.40448,4.42416 8.00815,8.06751 8.00815,8.09631 0,0.0293 1.36962,1.42121 3.04361,3.09415 l 3.04359,3.04175 0.0224,12.24487 c 0.012,6.7347 0.0236,19.25024 0.0249,27.81216 l 0.003,15.56728 -0.46429,0.96574 c -0.58833,1.22388 -0.93775,1.72894 -1.87565,2.71095 -1.21855,1.27601 -2.47222,2.05428 -4.28971,2.66322 l -0.88405,0.29613 -32.06778,-0.0133 c -27.95843,-0.0133 -32.13811,-0.028 -32.61662,-0.15654 z"
       style="fill:#ff6600;fill-opacity:1;stroke:none;stroke-width:0.44932497;stroke-opacity:1"
       sodipodi:nodetypes="csscccssscsssscsscssscscc" />
    <path
       style="fill:#ff6600;fill-opacity:1;stroke:none;stroke-width:1px;stroke-linecap:butt;stroke-linejoin:miter;stroke-opacity:1"
       d="m 302.74601,917.10789 c -6.70084,-7.66844 -21.96722,-22.40266 -21.96722,-22.40266 0,0 -0.71739,-0.5132 -0.70549,-1.02587 0.012,-0.51254 0.49905,-0.52627 0.49905,-0.52627 l 14.09212,-0.0133 c 0,0 3.63969,-0.112 6.67651,2.99081 3.03683,3.10269 2.87007,7.10684 2.87007,7.10684 l -0.003,13.53088 c 0,0 8.9e-4,0.4896 -0.4379,0.70067 -0.43871,0.21107 -1.02379,-0.3624 -1.02379,-0.3624 z"
       id="path2983-5"
       inkscape:connector-curvature="0"
       sodipodi:nodetypes="cczcczcczc" />
    <path
       inkscape:connector-curvature="0"
       id="path4306-3-3"
       d="m 234.62227,988.50362 c -0.65455,-0.17586 -1.98345,-0.81 -2.68639,-1.28187 -1.37719,-0.92454 -2.71973,-2.64001 -3.37079,-4.30722 l -0.31931,-0.81774 -0.0243,-37.85768 -0.0243,-37.85768 0.23448,-0.7572 c 0.74594,-2.40935 2.43076,-4.35443 4.71893,-5.44817 1.60736,-0.76827 0.0845,-0.7064 17.31413,-0.70453 l 15.32639,0 6.77781,6.81443 c 3.72779,3.74789 9.99839,10.04926 13.93465,14.00315 3.93625,3.95375 7.15683,7.20977 7.15683,7.23551 0,0.0253 1.22402,1.27014 2.72004,2.76535 l 2.72004,2.71828 0.02,10.94326 c 0.0107,6.0187 0.0211,17.20369 0.0223,24.85547 l 0.003,13.91235 -0.41492,0.8632 c -0.52579,1.09374 -0.83806,1.54508 -1.67626,2.42268 -1.08901,1.14027 -2.2094,1.83588 -3.83369,2.38001 l -0.79006,0.26467 -28.65877,-0.0133 c -24.98627,-0.0133 -28.72161,-0.0253 -29.14927,-0.13974 z"
       style="fill:#ffffff;fill-opacity:1;stroke:none"
       sodipodi:nodetypes="csscccssscsssscsscssscscc" />
    <rect
       style="fill:#ffb380;fill-opacity:1;stroke:none"
       id="rect2990"
       width="52.190868"
       height="34.645851"
       x="237.02065"
       y="932.26398" />
    <rect
       style="fill:#ff6600;fill-opacity:1;stroke:none"
       id="rect2990-3-56"
       width="40.569874"
       height="2.1384699"
       x="242.94728"
       y="935.56604" />
    <rect
       style="fill:#ff6600;fill-opacity:1;stroke:none"
       id="rect2990-3-6"
       width="28.006632"
       height="2.1384699"
       x="248.91483"
       y="940.04169" />
    <rect
       style="fill:#ff6600;fill-opacity:1;stroke:none"
       id="rect2990-3-6-7"
       width="13.715946"
       height="2.1384699"
       x="244.59619"
       y="949.22858" />
    <rect
       style="fill:#ff6600;fill-opacity:1;stroke:none"
       id="rect2990-3-6-7-5"
       width="2.4090314"
       height="2.1384699"
       x="240.27759"
       y="949.22858" />
    <rect
       style="fill:#ff6600;fill-opacity:1;stroke:none"
       id="rect2990-3-6-7-3"
       width="13.715946"
       height="2.1384699"
       x="244.47842"
       y="952.84039" />
    <rect
       style="fill:#ff6600;fill-opacity:1;stroke:none"
       id="rect2990-3-6-7-5-5"
       width="2.4090314"
       height="2.1384699"
       x="240.15981"
       y="952.84039" />
    <rect
       style="fill:#ff6600;fill-opacity:1;stroke:none"
       id="rect2990-3-6-7-6"
       width="13.715946"
       height="2.1384699"
       x="244.47842"
       y="956.53082" />
    <rect
       style="fill:#ff6600;fill-opacity:1;stroke:none"
       id="rect2990-3-6-7-5-2"
       width="2.4090314"
       height="2.1384699"
       x="240.15981"
       y="956.53082" />
    <rect
       style="fill:#ff6600;fill-opacity:1;stroke:none"
       id="rect2990-3-6-7-9"
       width="13.715946"
       height="2.1384699"
       x="244.47842"
       y="960.45679" />
    <rect
       style="fill:#ff6600;fill-opacity:1;stroke:none"
       id="rect2990-3-6-7-5-1"
       width="2.4090314"
       height="2.1384699"
       x="240.15981"
       y="960.45679" />
    <rect
       style="fill:#ffffff;fill-opacity:1;stroke:none"
       id="rect2990-2"
       width="21.578917"
       height="16.43457"
       x="264.44861"
       y="947.36609" />
    <path
       style="fill:#ffcc00"
       d="m 276.02048,963.09228 -1.70644,0 c -0.2356,0 -0.42663,-0.19107 -0.42663,-0.42667 l 0,-6.82577 c 0,-0.2356 0.19103,-0.42667 0.42663,-0.42667 l 1.70644,0 c 0.23558,0 0.42662,0.19107 0.42662,0.42667 l 0,6.82577 c 0,0.2356 -0.19104,0.42667 -0.42662,0.42667 z"
       id="path17"
       inkscape:connector-curvature="0" />
    <path
       style="fill:#f03916;fill-opacity:1"
       d="m 272.18097,963.09228 -1.70643,0 c -0.2356,0 -0.42664,-0.19107 -0.42664,-0.42667 l 0,-4.69269 c 0,-0.2356 0.19104,-0.42667 0.42664,-0.42667 l 1.70643,0 c 0.23559,0 0.42663,0.19107 0.42663,0.42667 l 0,4.69269 c 0,0.2356 -0.19104,0.42667 -0.42663,0.42667 z"
       id="path21"
       inkscape:connector-curvature="0" />
    <path
       style="fill:#004455"
       d="m 268.34147,963.09228 -1.70643,0 c -0.23561,0 -0.42665,-0.19107 -0.42665,-0.42667 l 0,-2.55961 c 0,-0.2356 0.19104,-0.42667 0.42665,-0.42667 l 1.70643,0 c 0.23559,0 0.42663,0.19107 0.42663,0.42667 l 0,2.55961 c -5e-5,0.2356 -0.19104,0.42667 -0.42663,0.42667 z"
       id="path25"
       inkscape:connector-curvature="0" />
    <path
       style="fill:#45d03f;fill-opacity:1"
       d="m 279.85998,963.09228 -1.70644,0 c -0.23559,0 -0.42663,-0.19107 -0.42663,-0.42667 l 0,-4.69269 c 0,-0.2356 0.19104,-0.42667 0.42663,-0.42667 l 1.70644,0 c 0.2356,0 0.42663,0.19107 0.42663,0.42667 l 0,4.69269 c 0,0.2356 -0.19103,0.42667 -0.42663,0.42667 z"
       id="path29"
       inkscape:connector-curvature="0" />
    <path
       style="fill:#00bbf2;fill-opacity:1"
       d="m 283.69953,963.09228 -1.70643,0 c -0.23561,0 -0.42663,-0.19107 -0.42663,-0.42667 l 0,-9.38552 c 0,-0.23546 0.19102,-0.42653 0.42663,-0.42653 l 1.70643,0 c 0.23559,0 0.42663,0.19107 0.42663,0.42653 l 0,9.38552 c -4e-5,0.2356 -0.19104,0.42667 -0.42663,0.42667 z"
       id="path33"
       inkscape:connector-curvature="0" />
    <path
       style="fill:#394050"
       d="m 284.97934,963.51882 -19.62416,0 c -0.23559,0 -0.42663,-0.19107 -0.42663,-0.42667 l 0,0 c 0,-0.2356 0.19104,-0.42667 0.42663,-0.42667 l 19.6242,0 c 0.2356,0 0.42663,0.19107 0.42663,0.42667 l 0,0 c -4e-5,0.23573 -0.19103,0.42667 -0.42667,0.42667 z"
       id="path37"
       inkscape:connector-curvature="0" />
    <path
       style="fill:none;stroke:#394050;stroke-width:0.45505479;stroke-linecap:butt;stroke-linejoin:miter;stroke-miterlimit:4;stroke-dasharray:none;stroke-opacity:1"
       d="m 266.00866,958.85599 9.58387,-5.14829 3.32663,3.00975 4.23749,-8.47498"
       id="path2998"
       inkscape:connector-curvature="0" />
    <path
       style="fill:none;stroke:#394050;stroke-width:0.45505479;stroke-linecap:butt;stroke-linejoin:miter;stroke-miterlimit:4;stroke-dasharray:none;stroke-opacity:1"
       d="m 283.3198,948.1266 -1.70759,0.74187"
       id="path3768"
       inkscape:connector-curvature="0" />
    <path
       style="fill:none;stroke:#394050;stroke-width:0.45505479;stroke-linecap:butt;stroke-linejoin:miter;stroke-miterlimit:4;stroke-dasharray:none;stroke-opacity:1"
       d="M 283.78663,949.75287 283.02031,948.011"
       id="path3770"
       inkscape:connector-curvature="0" />
  </g>
</svg>
