<?xml version="1.0" encoding="UTF-8" standalone="no"?>
<!-- Created with Inkscape (http://www.inkscape.org/) -->

<svg
   xmlns:dc="http://purl.org/dc/elements/1.1/"
   xmlns:cc="http://creativecommons.org/ns#"
   xmlns:rdf="http://www.w3.org/1999/02/22-rdf-syntax-ns#"
   xmlns:svg="http://www.w3.org/2000/svg"
   xmlns="http://www.w3.org/2000/svg"
   xmlns:sodipodi="http://sodipodi.sourceforge.net/DTD/sodipodi-0.dtd"
   xmlns:inkscape="http://www.inkscape.org/namespaces/inkscape"
   width="318"
   height="218"
   viewBox="0 0 318 218"
   id="svg2"
   version="1.1"
   inkscape:version="0.91 r13725"
   sodipodi:docname="network.svg"
   inkscape:export-filename="/home/trlinux/yaliTema/slideshow/network.png"
   inkscape:export-xdpi="90"
   inkscape:export-ydpi="90">
  <defs
     id="defs4">
    <clipPath
       id="clipPath5127"
       clipPathUnits="userSpaceOnUse">
      <path
         inkscape:connector-curvature="0"
         id="path5129"
         d="M 255.99999,45.26758 A 210.73167,210.73167 0 0 0 45.26756,256 210.73167,210.73167 0 0 0 255.99999,466.73242 210.73167,210.73167 0 0 0 466.73244,256 210.73167,210.73167 0 0 0 255.99999,45.26758 Z m 0,111.84375 A 98.888542,98.888542 0 0 1 354.88864,256 98.888542,98.888542 0 0 1 255.99999,354.88867 98.888542,98.888542 0 0 1 157.11132,256 98.888542,98.888542 0 0 1 255.99999,157.11133 Z"
         style="opacity:1;fill:#f9f9f9;fill-opacity:1;stroke:none;stroke-width:0;stroke-linecap:butt;stroke-linejoin:miter;stroke-miterlimit:4;stroke-dasharray:none;stroke-dashoffset:0;stroke-opacity:1" />
    </clipPath>
    <clipPath
       clipPathUnits="userSpaceOnUse"
       id="clipPath5062">
      <circle
         style="opacity:1;fill:none;fill-opacity:1;stroke:#000000;stroke-width:0.51056468;stroke-miterlimit:4;stroke-dasharray:none;stroke-dashoffset:0;stroke-opacity:1"
         id="circle5064"
         cx="292.41159"
         cy="78.3964"
         r="43.65332" />
    </clipPath>
    <linearGradient
       x1="0"
       y1="0"
       x2="1"
       y2="0"
       gradientUnits="userSpaceOnUse"
       gradientTransform="matrix(0.0722656,0,0,-0.0722656,200.72217,103.27344)"
       spreadMethod="pad"
       id="linearGradient356">
      <stop
         style="stop-opacity:1;stop-color:#ffce00"
         offset="0"
         id="stop358" />
      <stop
         style="stop-opacity:1;stop-color:#ffb500"
         offset="0.266663"
         id="stop360" />
      <stop
         style="stop-opacity:1;stop-color:#ffb500"
         offset="0.266663"
         id="stop362" />
      <stop
         style="stop-opacity:1;stop-color:#ff3800"
         offset="1"
         id="stop364" />
    </linearGradient>
    <linearGradient
       x1="0"
       y1="0"
       x2="1"
       y2="0"
       gradientUnits="userSpaceOnUse"
       gradientTransform="matrix(0.3618164,0,0,-0.3618164,153.61572,194.44922)"
       spreadMethod="pad"
       id="linearGradient380">
      <stop
         style="stop-opacity:1;stop-color:#ffce00"
         offset="0"
         id="stop382" />
      <stop
         style="stop-opacity:1;stop-color:#ffb500"
         offset="0.266663"
         id="stop384" />
      <stop
         style="stop-opacity:1;stop-color:#ffb500"
         offset="0.266663"
         id="stop386" />
      <stop
         style="stop-opacity:1;stop-color:#ff3800"
         offset="1"
         id="stop388" />
    </linearGradient>
    <radialGradient
       id="SVGID_24_"
       cx="1311.9355"
       cy="-1874.3018"
       r="8.5094995"
       gradientTransform="matrix(0.205,0,0,-0.205,-254.2424,82.5027)"
       gradientUnits="userSpaceOnUse">
      <stop
         offset="0"
         stop-color="#600000"
         id="stop222" />
      <stop
         offset="0.5"
         stop-color="#C00000"
         id="stop224" />
      <stop
         offset="1"
         stop-color="#F6AA00"
         id="stop226" />
    </radialGradient>
    <radialGradient
       id="SVGID_25_"
       cx="1312.9648"
       cy="-1872.2422"
       r="3.7997"
       gradientTransform="matrix(0.205,0,0,-0.205,-254.2424,82.5027)"
       gradientUnits="userSpaceOnUse">
      <stop
         offset="0.01"
         stop-color="#FFF"
         id="stop231" />
      <stop
         offset="1"
         stop-color="#000"
         id="stop233" />
    </radialGradient>
    <radialGradient
       id="SVGID_26_"
       cx="1304.8555"
       cy="-1894.6313"
       r="12.9691"
       gradientTransform="matrix(0.205,0,0,-0.205,-254.2424,82.5027)"
       gradientUnits="userSpaceOnUse">
      <stop
         offset="0"
         stop-color="#769EB8"
         id="stop238" />
      <stop
         offset="1"
         stop-color="#FFF"
         id="stop240" />
    </radialGradient>
    <radialGradient
       id="SVGID_27_"
       cx="1300.6055"
       cy="-1889.6313"
       r="3.7781999"
       gradientTransform="matrix(0.205,0,0,-0.205,-254.2424,82.5027)"
       gradientUnits="userSpaceOnUse">
      <stop
         offset="0.01"
         stop-color="#FFF"
         id="stop247" />
      <stop
         offset="1"
         stop-color="#000"
         id="stop249" />
    </radialGradient>
  </defs>
  <sodipodi:namedview
     id="base"
     pagecolor="#ffffff"
     bordercolor="#666666"
     borderopacity="1.0"
     inkscape:pageopacity="0.0"
     inkscape:pageshadow="2"
     inkscape:zoom="1.4"
     inkscape:cx="174.95824"
     inkscape:cy="85.769318"
     inkscape:document-units="px"
     inkscape:current-layer="layer1"
     showgrid="false"
     units="px"
     inkscape:window-width="1366"
     inkscape:window-height="711"
     inkscape:window-x="0"
     inkscape:window-y="0"
     inkscape:window-maximized="1" />
  <metadata
     id="metadata7">
    <rdf:RDF>
      <cc:Work
         rdf:about="">
        <dc:format>image/svg+xml</dc:format>
        <dc:type
           rdf:resource="http://purl.org/dc/dcmitype/StillImage" />
        <dc:title />
      </cc:Work>
    </rdf:RDF>
  </metadata>
  <g
     inkscape:label="Layer 1"
     inkscape:groupmode="layer"
     id="layer1"
     transform="translate(0,-834.36216)">
    <path
       style="fill:#e6e6e6;stroke:none"
       d="m 179.67712,922.00209 17.74471,17.7448 8.83781,-8.4236 -17.74468,-17.5376 z"
       id="path4247"
       inkscape:connector-curvature="0" />
    <rect
       style="fill:#4d4d4d;fill-opacity:1;stroke:none"
       id="rect3356"
       width="40.52272"
       height="32.320538"
       x="122.99751"
       y="907.87787"
       rx="2.7641304"
       ry="2.6450326" />
    <path
       style="fill:#e6e6e6;stroke:none"
       d="m 127.56863,937.03622 -0.92762,-0.952 0.0244,-6.2004 0.8788,-0.41506 -0.0488,-4.83347 -0.85439,-0.46373 0.0244,-4.85787 0.87881,-0.83 6.59104,0 0.17088,-3.564 3.39316,0.0493 0.36618,-3.4908 10.54568,-0.0493 0.46381,3.564 3.29552,-0.024 0.26852,3.5396 6.5178,-0.0493 0.90319,0.9032 0.0488,4.88226 -0.90323,0.39067 0.0244,4.79467 0.96663,0.17253 -0.13808,6.21413 -0.79403,1.07027 z"
       id="path3358"
       inkscape:connector-curvature="0" />
    <rect
       style="fill:#d4aa00;fill-opacity:1;stroke:none"
       id="rect4128"
       width="1.8552545"
       height="8.885704"
       x="133.48277"
       y="928.11823"
       rx="0.92762727"
       ry="0" />
    <rect
       style="fill:#d4aa00;fill-opacity:1;stroke:none"
       id="rect4128-1"
       width="1.8552545"
       height="8.885704"
       x="137.07039"
       y="928.09302"
       rx="0.92762727"
       ry="0" />
    <rect
       style="fill:#d4aa00;fill-opacity:1;stroke:none"
       id="rect4128-5"
       width="1.8552545"
       height="8.885704"
       x="140.9948"
       y="928.08942"
       rx="0.92762727"
       ry="0" />
    <rect
       style="fill:#d4aa00;fill-opacity:1;stroke:none"
       id="rect4128-1-9"
       width="1.8552545"
       height="8.885704"
       x="144.58238"
       y="928.07642"
       rx="0.92762727"
       ry="0" />
    <rect
       style="fill:#d4aa00;fill-opacity:1;stroke:none"
       id="rect4128-7"
       width="1.8552545"
       height="8.885705"
       x="781.17139"
       y="514.83508"
       rx="0.92762727"
       ry="0"
       transform="matrix(0.70771989,0.70649315,-0.70649315,0.70771989,0,0)" />
    <path
       style="fill:#cccccc;stroke:none"
       d="m 164.05145,934.41702 22.75128,-22.556 2.39231,2.39227 -7.17689,7.12813 16.06261,16.16027 7.3722,-7.12813 2.39231,2.49 -23.54211,23.55227 z"
       id="path4192"
       inkscape:connector-curvature="0" />
    <rect
       style="fill:#d4aa00;fill-opacity:1;stroke:none"
       id="rect4128-1-3"
       width="1.8552545"
       height="8.885705"
       x="784.75903"
       y="514.80994"
       rx="0.92762727"
       ry="0"
       transform="matrix(0.70771989,0.70649315,-0.70649315,0.70771989,0,0)" />
    <path
       style="fill:#808080;stroke:none"
       d="m 123.02814,929.24902 c 0,0 -5.63514,4.25867 -7.7579,6.9084 -2.12274,2.64974 -4.15385,5.66334 -5.57784,9.33694 -1.30029,3.35453 -1.72617,6.8676 -1.79926,8.04387 -0.0731,1.1764 -0.18268,6.118 0.69984,9.12946 1.47164,5.022 4.37293,9.24254 5.35416,10.3996 0.98122,1.15707 3.96904,4.36561 6.53768,5.77121 4.63151,2.53413 9.81324,3.3276 11.67313,3.35866 1.8599,0.0307 7.55571,-0.30893 11.18526,-2.15253 5.365,-2.72507 9.36904,-7.30694 9.36904,-7.30694 l 4.3452,4.34534 2.97817,-1.9652 -4.83341,-4.88227 1.85524,-1.84307 5.22401,5.21187 3.01479,-1.96507 -5.74884,-5.72453 1.86744,-1.89187 6.10281,6.11507 3.01479,-1.98947 -6.65205,-6.57893 1.90408,-1.8796 6.96942,6.9816 3.01478,-1.98947 -7.50647,-7.50653 1.90408,-1.90413 7.81163,7.86053 10.52123,-6.9328 2.19705,-2.80733 -24.8908,-24.85907 -2.76184,2.19226 -6.99083,10.51214 7.85392,7.8712 -1.88149,1.84693 -7.52595,-7.49147 -1.98507,3.02081 7.00814,7.00813 -1.84699,1.88147 -6.62836,-6.6284 -2.01959,2.98626 6.11054,6.12774 -1.86423,1.93333 -5.73079,-5.78253 -1.98505,3.038 5.26472,5.21293 -1.91601,1.916 -4.86771,-4.88507 -2.00232,3.0036 4.40165,4.36707 c 0,0 -5.40619,6.59907 -12.21663,7.23453 -6.05184,0.5648 -9.4086,-2.07413 -11.62133,-3.57506 -2.21275,-1.50107 -5.84018,-4.80334 -7.59502,-11.4616 -1.75484,-6.65827 1.1078,-14.49467 3.45229,-18.22801 2.34446,-3.73346 4.57016,-4.40213 4.57016,-4.40213 z"
       id="path4190"
       inkscape:connector-curvature="0"
       sodipodi:nodetypes="czszszszsccccccccccccccccccccccccccccccccccccccccszzzcc" />
    <rect
       style="fill:#d4aa00;fill-opacity:1;stroke:none"
       id="rect4128-5-7"
       width="1.8552545"
       height="8.885704"
       x="148.30293"
       y="928.05573"
       rx="0.92762727"
       ry="0" />
    <rect
       style="fill:#d4aa00;fill-opacity:1;stroke:none"
       id="rect4128-1-9-7"
       width="1.8552545"
       height="8.885704"
       x="151.89055"
       y="928.03052"
       rx="0.92762727"
       ry="0" />
    <rect
       style="fill:#d4aa00;fill-opacity:1;stroke:none"
       id="rect4128-5-6"
       width="1.8552545"
       height="8.885705"
       x="788.68341"
       y="514.80627"
       rx="0.92762727"
       ry="0"
       transform="matrix(0.70771989,0.70649315,-0.70649315,0.70771989,0,0)" />
    <rect
       style="fill:#d4aa00;fill-opacity:1;stroke:none"
       id="rect4128-5-7-6"
       width="1.8552545"
       height="8.885705"
       x="795.99158"
       y="514.77258"
       rx="0.92762727"
       ry="0"
       transform="matrix(0.70771989,0.70649315,-0.70649315,0.70771989,0,0)" />
    <rect
       style="fill:#d4aa00;fill-opacity:1;stroke:none"
       id="rect4128-1-9-5"
       width="1.8552545"
       height="8.885705"
       x="792.271"
       y="514.79333"
       rx="0.92762727"
       ry="0"
       transform="matrix(0.70771989,0.70649315,-0.70649315,0.70771989,0,0)" />
    <path
       style="fill:#666666;stroke:none"
       d="m 172.9736,950.36476 -3.90584,-3.80813 8.92558,-8.60787 -1.96781,-3.21054 9.66638,-9.59733 8.73426,8.73427 -9.70089,9.66626 -3.03799,-1.89866 z"
       id="path4194"
       inkscape:connector-curvature="0" />
    <rect
       style="fill:#d4aa00;fill-opacity:1;stroke:none"
       id="rect4128-1-9-7-3"
       width="1.8552545"
       height="8.885705"
       x="799.57916"
       y="514.74738"
       rx="0.92762727"
       ry="0"
       transform="matrix(0.70771989,0.70649315,-0.70649315,0.70771989,0,0)" />
    <rect
       style="fill:#999999;fill-opacity:1;stroke:none"
       id="rect2997"
       width="89.189423"
       height="21.381025"
       x="217.33627"
       y="945.20239" />
    <rect
       style="fill:#5d6a7b;fill-opacity:1;stroke:none"
       id="rect2997-3-6"
       width="69.64106"
       height="27.795336"
       x="226.65228"
       y="909.61823" />
    <path
       style="fill:#e6e6e6;stroke:none"
       d="m 232.15521,920.2178 0,-15.98269 13.6068,-11.01494 44.70807,-0.216 0.21599,27.4295 z"
       id="path3841"
       inkscape:connector-curvature="0"
       sodipodi:nodetypes="cccccc" />
    <rect
       style="fill:#666666;fill-opacity:1;stroke:none"
       id="rect2997-3"
       width="89.189423"
       height="27.795336"
       x="217.18355"
       y="918.32349" />
    <rect
       style="fill:#e6e6e6;fill-opacity:1;stroke:none"
       id="rect2997-3-6-5"
       width="69.64106"
       height="34.209641"
       x="228.17949"
       y="958.79456" />
    <rect
       style="fill:#5d6a7b;fill-opacity:1;stroke:none"
       id="rect2997-3-6-7"
       width="69.64106"
       height="7.0251946"
       x="228.17949"
       y="952.38031" />
    <path
       sodipodi:type="arc"
       style="fill:#8dd35f;fill-opacity:1;stroke:none"
       id="path3053"
       sodipodi:cx="297.33002"
       sodipodi:cy="926.79956"
       sodipodi:rx="3.480202"
       sodipodi:ry="3.588958"
       d="m 300.81022,926.79956 a 3.480202,3.588958 0 0 1 -3.47612,3.58896 3.480202,3.588958 0 0 1 -3.48428,-3.58053 3.480202,3.588958 0 0 1 3.46794,-3.59737 3.480202,3.588958 0 0 1 3.49242,3.57209"
       sodipodi:start="0"
       sodipodi:end="6.2784904"
       sodipodi:open="true" />
    <path
       style="fill:#cccccc;stroke:none"
       d="m 232.07422,904.31618 13.68779,0 0.0269,-11.15001 z"
       id="path3843"
       inkscape:connector-curvature="0"
       sodipodi:nodetypes="cccc" />
    <rect
       style="fill:#cccccc;fill-opacity:1;stroke:none"
       id="rect2997-3-6-7-3"
       width="61.076946"
       height="3.3535178"
       x="232.53957"
       y="963.14105" />
    <rect
       style="fill:#cccccc;fill-opacity:1;stroke:none"
       id="rect2997-3-6-7-3-5"
       width="61.076946"
       height="3.3535178"
       x="232.07004"
       y="979.66357" />
    <rect
       style="fill:#cccccc;fill-opacity:1;stroke:none"
       id="rect2997-3-6-7-3-6"
       width="61.076946"
       height="3.3535178"
       x="232.07002"
       y="971.02435" />
    <path
       style="fill:#00bbf2;fill-opacity:1;stroke-width:3.85841036"
       inkscape:connector-curvature="0"
       d="m 26.742758,922.02248 20.620401,20.852 0,0 -20.620401,20.85227 6.558035,6.61053 17.143326,-16.9556 0,39.8028 31.298631,-29.51133 -18.974903,-20.79867 18.924802,-20.7696 -31.0786,-28.9204 -0.147854,39.6152 -17.143358,-17.3656 z m 33.142397,-9.33907 9.506762,9.05067 -9.506762,11.7232 z m 0,41.60587 9.528802,9.72573 -9.506767,9.05067 z"
       id="shape0" />
  </g>
</svg>
