<?xml version="1.0" encoding="UTF-8" standalone="no"?>
<!-- Created with Inkscape (http://www.inkscape.org/) -->

<svg
   xmlns:dc="http://purl.org/dc/elements/1.1/"
   xmlns:cc="http://creativecommons.org/ns#"
   xmlns:rdf="http://www.w3.org/1999/02/22-rdf-syntax-ns#"
   xmlns:svg="http://www.w3.org/2000/svg"
   xmlns="http://www.w3.org/2000/svg"
   xmlns:sodipodi="http://sodipodi.sourceforge.net/DTD/sodipodi-0.dtd"
   xmlns:inkscape="http://www.inkscape.org/namespaces/inkscape"
   width="318"
   height="218"
   viewBox="0 0 318 218"
   id="svg2"
   version="1.1"
   inkscape:version="0.91 r13725"
   sodipodi:docname="okular.svg"
   inkscape:export-filename="/home/trlinux/yaliTema/slideshow/okular.png"
   inkscape:export-xdpi="90"
   inkscape:export-ydpi="90">
  <defs
     id="defs4" />
  <sodipodi:namedview
     id="base"
     pagecolor="#ffffff"
     bordercolor="#666666"
     borderopacity="1.0"
     inkscape:pageopacity="0.0"
     inkscape:pageshadow="2"
     inkscape:zoom="1.979899"
     inkscape:cx="112.12899"
     inkscape:cy="125.13255"
     inkscape:document-units="px"
     inkscape:current-layer="layer1"
     showgrid="false"
     units="px"
     inkscape:window-width="1366"
     inkscape:window-height="711"
     inkscape:window-x="0"
     inkscape:window-y="0"
     inkscape:window-maximized="1" />
  <metadata
     id="metadata7">
    <rdf:RDF>
      <cc:Work
         rdf:about="">
        <dc:format>image/svg+xml</dc:format>
        <dc:type
           rdf:resource="http://purl.org/dc/dcmitype/StillImage" />
        <dc:title />
      </cc:Work>
    </rdf:RDF>
  </metadata>
  <g
     inkscape:label="Layer 1"
     inkscape:groupmode="layer"
     id="layer1"
     transform="translate(0,-834.36216)">
    <rect
       style="fill:#28170b;fill-opacity:1;stroke:none"
       id="rect2998-3-6"
       width="95.197014"
       height="115.70569"
       x="112.11095"
       y="895.48193"
       rx="0"
       ry="0" />
    <rect
       style="fill:#28170b;fill-opacity:1;stroke:none"
       id="rect2998-3"
       width="95.197014"
       height="115.70569"
       x="111.69131"
       y="870.34839"
       rx="0"
       ry="0" />
    <path
       style="fill:#28170b;stroke:none"
       d="m 112.25782,865.51198 c 0,0 -0.57518,-0.1365 -1.4025,0.102 -2.35965,0.67965 -7.17994,2.6289 -9.74443,5.64599 -2.564481,3.01694 -4.004241,7.35913 -4.004241,7.35913 l 0,117.51964 c 0,0 0.79369,7.66136 4.545351,10.49756 3.75167,2.8361 6.89253,3.6503 9.54947,4.3914 0.95595,0.2666 2.03035,0.1539 2.03035,0.1539 l 0.1083,-29.31818 z"
       id="path3804"
       inkscape:connector-curvature="0"
       sodipodi:nodetypes="cszcczsccc" />
    <rect
       style="fill:#e6e6e6;fill-opacity:1;stroke:none"
       id="rect2998"
       width="95.197014"
       height="115.70569"
       x="111.65181"
       y="865.48425"
       rx="0"
       ry="0" />
    <path
       style="fill:#ffffff;stroke:none"
       d="m 207.26369,1006.6989 c 0,0 -8.28358,-1.8867 -8.6578,-9.52366 -0.37423,-7.63693 8.6037,-10.60573 8.6037,-10.60573 l -94.31599,0.108 c 0,0 -9.63627,1.0032 -9.74003,9.74008 -0.1038,8.73671 8.98248,9.84821 8.98248,9.84821 z"
       id="path3806"
       inkscape:connector-curvature="0"
       sodipodi:nodetypes="czcczcc" />
    <path
       style="fill:#00bbf2;fill-opacity:1;stroke:none"
       d="m 111.88138,1015.4731 0,-20.3557 20.35563,0 -0.0765,20.3557 -10.1013,-5.2038 z"
       id="path3855"
       inkscape:connector-curvature="0" />
    <path
       d="m 194.60322,911.26203 c 0.97865,-2.11454 1.51248,-4.22924 1.51248,-6.25198 0,-3.5856 -1.51248,-6.52769 -4.53734,-8.82628 -3.20282,-2.4825 -7.74016,-3.6777 -13.61202,-3.6777 -1.15657,0 -2.40211,0.0915 -3.55871,0.1833 -9.87536,0.82755 -19.57283,4.68884 -29.09232,11.76838 -8.54089,6.34423 -14.32374,12.96387 -17.43762,20.0434 -2.4021,5.51654 -3.64764,10.48138 -3.64764,14.98647 0,10.20553 6.40565,16.36541 15.74722,16.82516 1.33449,0.0915 2.58003,0.0915 3.73663,0.0915 14.50165,0 27.57988,-5.42474 39.23462,-16.18166 7.56222,-6.98759 11.38785,-14.34282 11.38785,-21.97405 0,-1.7469 -0.26677,-3.49365 -0.71174,-5.05664 l 0.97859,-1.9302 z m -2.1352,-0.8274 c -2.49107,-4.68899 -6.8505,-7.81513 -13.0782,-9.37813 -3.38074,-0.82739 -6.22773,-1.19504 -8.54089,-1.19504 -2.58005,0 -5.24904,0.45975 -8.00703,1.37909 -0.0887,0.0915 -0.17811,0.1833 -0.17811,0.276 0,0.1833 1.60142,0.3678 4.71526,0.4596 3.73666,0.0915 6.49464,0.3678 8.18502,0.82755 3.29177,1.0113 6.13872,2.57429 8.54086,4.78094 2.75801,2.48249 4.35938,5.42459 4.80423,8.82643 -2.04622,2.57429 -5.16011,5.70044 -9.34157,9.46993 l -4.98217,4.22924 c -2.04626,1.74705 -2.84695,2.57444 -2.31311,2.57444 0.0887,0 0.35583,-0.0915 0.7117,-0.1833 7.56226,-4.78093 12.90024,-8.91838 16.01413,-12.50397 -0.62277,6.34394 -4.71525,12.96372 -12.27747,19.95116 -11.29886,10.38942 -23.30949,15.26246 -35.85388,14.52687 -7.91809,-0.45975 -11.83267,-4.78094 -11.83267,-12.77998 0,-4.96483 1.60142,-10.66512 4.89322,-17.00921 4.44833,-8.73433 10.49814,-15.81386 18.14933,-21.3304 8.27396,-5.97614 16.81486,-8.91823 25.80056,-8.91823 6.49459,0 10.94295,1.83885 13.52305,5.51639 1.33447,1.93094 1.95724,3.86159 1.95724,5.97628 0,1.4706 -0.26677,2.9415 -0.88962,4.50449 z"
       style="font-style:normal;font-variant:normal;font-weight:normal;font-stretch:normal;font-size:44.13499832px;line-height:125%;font-family:'Alex Brush';-inkscape-font-specification:'Alex Brush';text-align:start;letter-spacing:0px;word-spacing:0px;writing-mode:lr-tb;text-anchor:start;fill:#00bbf2;fill-opacity:1;stroke:none"
       id="path4211-3"
       inkscape:connector-curvature="0" />
  </g>
</svg>
