<?xml version="1.0" encoding="UTF-8" standalone="no"?>
<!-- Created with Inkscape (http://www.inkscape.org/) -->

<svg
   xmlns:dc="http://purl.org/dc/elements/1.1/"
   xmlns:cc="http://creativecommons.org/ns#"
   xmlns:rdf="http://www.w3.org/1999/02/22-rdf-syntax-ns#"
   xmlns:svg="http://www.w3.org/2000/svg"
   xmlns="http://www.w3.org/2000/svg"
   xmlns:sodipodi="http://sodipodi.sourceforge.net/DTD/sodipodi-0.dtd"
   xmlns:inkscape="http://www.inkscape.org/namespaces/inkscape"
   width="318"
   height="218"
   viewBox="0 0 318 218"
   id="svg2"
   version="1.1"
   inkscape:version="0.91 r13725"
   sodipodi:docname="pisilinux-head.svg"
   inkscape:export-filename="/home/trlinux/yaliTema/slideshow/pisilinux-head.png"
   inkscape:export-xdpi="90"
   inkscape:export-ydpi="90">
  <defs
     id="defs4" />
  <sodipodi:namedview
     id="base"
     pagecolor="#ffffff"
     bordercolor="#666666"
     borderopacity="1.0"
     inkscape:pageopacity="0.0"
     inkscape:pageshadow="2"
     inkscape:zoom="1.4"
     inkscape:cx="175.23902"
     inkscape:cy="93.355016"
     inkscape:document-units="px"
     inkscape:current-layer="layer1"
     showgrid="false"
     units="px"
     inkscape:window-width="1366"
     inkscape:window-height="711"
     inkscape:window-x="0"
     inkscape:window-y="0"
     inkscape:window-maximized="1" />
  <metadata
     id="metadata7">
    <rdf:RDF>
      <cc:Work
         rdf:about="">
        <dc:format>image/svg+xml</dc:format>
        <dc:type
           rdf:resource="http://purl.org/dc/dcmitype/StillImage" />
        <dc:title />
      </cc:Work>
    </rdf:RDF>
  </metadata>
  <g
     inkscape:label="Layer 1"
     inkscape:groupmode="layer"
     id="layer1"
     transform="translate(0,-834.36216)">
    <path
       style="fill:#ffffff;fill-rule:evenodd;stroke:#000000;stroke-width:1.5px;stroke-linecap:butt;stroke-linejoin:miter;stroke-opacity:1"
       d="m 151.16059,1003.4559 -20.8344,-2.6516 -19.69797,-9.09142 -16.667519,-16.28871 -14.01587,-25.00127 13.63706,-26.5165 12.500639,-26.89532 23.10724,-15.15229 14.77349,-6.81852 18.18274,0 22.34963,12.12183 25.38007,29.16814 14.77349,34.09266 -11.36421,22.34963 -21.97083,21.97081 z"
       id="path3352"
       inkscape:connector-curvature="0" />
    <path
       inkscape:connector-curvature="0"
       id="path4218"
       d="m 125.05526,886.80436 18.81897,29.68742 2.77175,-1.24001 -7.00241,-36.90861 -3.13647,0.94821 5.68946,29.1038 -15.026,-23.77901 z"
       style="fill:#333333;fill-opacity:1;fill-rule:evenodd;stroke:#333333;stroke-width:1.22928953;stroke-linecap:butt;stroke-linejoin:miter;stroke-miterlimit:4;stroke-dasharray:none;stroke-opacity:1" />
    <path
       inkscape:connector-curvature="0"
       id="path4235"
       d="m 141.2546,878.39596 9.47613,35.61581 3.13647,-0.3648 2.9177,-37.0544 -3.13652,-0.29181 -2.1153,28.52021 -7.44004,-27.5718 z"
       style="fill:#333333;fill-opacity:1;fill-rule:evenodd;stroke:#333333;stroke-width:1.22928953;stroke-linecap:butt;stroke-linejoin:miter;stroke-miterlimit:4;stroke-dasharray:none;stroke-opacity:1" />
    <path
       style="fill:#333333;fill-opacity:1;fill-rule:evenodd;stroke:#333333;stroke-width:1.22928953;stroke-linecap:butt;stroke-linejoin:miter;stroke-miterlimit:4;stroke-dasharray:none;stroke-opacity:1"
       d="m 213.5522,923.48077 -2.21784,-3.9714 c 11.67372,-8.7682 11.17514,-30.01821 4.69356,-50.44281 -14.54488,1.5816 -23.20992,4.7106 -33.42231,14.02901 l -3.61921,-2.792 c 12.55348,-10.1068 21.39336,-12.7866 39.51724,-15.46641 6.49878,22.0236 10.41866,43.22201 -4.95144,58.64361 z"
       id="path4201-7"
       inkscape:connector-curvature="0"
       sodipodi:nodetypes="ccccccc" />
    <path
       style="fill:#333333;fill-opacity:1;fill-rule:evenodd;stroke:#333333;stroke-width:1.22928953;stroke-linecap:butt;stroke-linejoin:miter;stroke-miterlimit:4;stroke-dasharray:none;stroke-opacity:1"
       d="m 91.765911,923.52637 2.21784,-3.9714 c -11.67372,-8.7682 -11.17513,-30.01821 -4.69356,-50.443 14.544889,1.58179 23.209919,4.71079 33.422269,14.0292 l 3.61926,-2.792 c -12.55349,-10.107 -21.39338,-12.78681 -39.517249,-15.4666 -6.49875,22.02379 -10.418651,43.222 4.95144,58.6438 z"
       id="path4201"
       inkscape:connector-curvature="0"
       sodipodi:nodetypes="ccccccc" />
    <path
       style="fill:#333333;fill-opacity:1;fill-rule:evenodd;stroke:#333333;stroke-width:1.22928953;stroke-linecap:butt;stroke-linejoin:miter;stroke-miterlimit:4;stroke-dasharray:none;stroke-opacity:1"
       d="m 78.564041,951.32137 4.54975,-0.4012 c 0,0 15.69407,50.99163 70.315769,50.47583 54.62174,-0.5158 68.85698,-50.18402 68.85698,-50.18402 0,0 -26.62272,-74.26682 -69.70724,-74.68202 -43.1485,-0.41559 -69.504209,74.38421 -69.504209,74.38421 l -4.51275,-0.623 c 0,0 26.096849,-78.514 74.404529,-78.13761 48.30773,0.37641 74.13381,78.76661 74.13381,78.76661 0,0 -16.53501,54.88763 -73.67112,55.43583 -57.136079,0.5482 -74.865519,-55.03463 -74.865519,-55.03463 z"
       id="path4199"
       inkscape:connector-curvature="0"
       sodipodi:nodetypes="cczcscczczc" />
    <path
       style="fill:#333333;fill-opacity:1;fill-rule:evenodd;stroke:#333333;stroke-width:1.22928953;stroke-linecap:butt;stroke-linejoin:miter;stroke-miterlimit:4;stroke-dasharray:none;stroke-opacity:1"
       d="m 112.70495,940.26697 c 0,0 12.67001,-3.64339 19.63824,3.3756 6.96828,7.01921 3.06054,20.4624 3.06054,20.4624 0,0 -13.29523,3.03821 -19.86835,-4.6902 -6.57312,-7.72819 -3.52848,-18.5002 -3.52848,-18.5002 l 3.15535,2.1654 c 0,0 -2.89039,8.778 2.55693,14.71521 5.44734,5.93719 15.02598,3.53059 15.02598,3.53059 0,0 3.23277,-10.3924 -2.33379,-15.80599 -5.56656,-5.4138 -15.16951,-2.2278 -15.16951,-2.2278 z"
       id="path4237"
       inkscape:connector-curvature="0"
       sodipodi:nodetypes="czczcczczcc" />
    <path
       style="fill:#333333;fill-opacity:1;stroke:#333333;stroke-width:3.07568264;stroke-linecap:round;stroke-linejoin:round;stroke-miterlimit:4;stroke-dasharray:none;stroke-dashoffset:50;stroke-opacity:1"
       id="path4239"
       sodipodi:type="arc"
       sodipodi:cx="126.08861"
       sodipodi:cy="949.49774"
       sodipodi:rx="5.4896779"
       sodipodi:ry="5.3040366"
       sodipodi:start="0"
       sodipodi:end="6.2784904"
       sodipodi:open="true"
       d="m 131.57829,949.49774 a 5.4896779,5.3040366 0 0 1 -5.48324,5.30403 5.4896779,5.3040366 0 0 1 -5.4961,-5.29158 5.4896779,5.3040366 0 0 1 5.47033,-5.31645 5.4896779,5.3040366 0 0 1 5.50895,5.2791" />
    <path
       style="fill:#333333;fill-opacity:1;fill-rule:evenodd;stroke:#333333;stroke-width:1.22928953;stroke-linecap:butt;stroke-linejoin:miter;stroke-miterlimit:4;stroke-dasharray:none;stroke-opacity:1"
       d="m 193.0798,939.79338 c 0,0 -12.66998,-3.64341 -19.63829,3.3756 -6.96828,7.01919 -3.06051,20.46219 -3.06051,20.46219 0,0 13.29525,3.0384 19.86837,-4.6898 6.57309,-7.7284 3.52847,-18.5004 3.52847,-18.5004 l -3.15536,2.16521 c 0,0 2.89038,8.77819 -2.55694,14.7156 -5.44734,5.93719 -15.02598,3.5304 -15.02598,3.5304 0,0 -3.2328,-10.39241 2.33377,-15.80601 5.56661,-5.4138 15.16956,-2.2278 15.16956,-2.2278 z"
       id="path4237-7"
       inkscape:connector-curvature="0"
       sodipodi:nodetypes="czczcczczcc" />
    <path
       style="fill:#333333;fill-opacity:1;stroke:#333333;stroke-width:3.07568264;stroke-linecap:round;stroke-linejoin:round;stroke-miterlimit:4;stroke-dasharray:none;stroke-dashoffset:50;stroke-opacity:1"
       id="path4239-2"
       sodipodi:type="arc"
       sodipodi:cx="-179.69621"
       sodipodi:cy="949.02405"
       sodipodi:rx="5.4896779"
       sodipodi:ry="5.3040366"
       sodipodi:start="0"
       sodipodi:end="6.2784904"
       sodipodi:open="true"
       d="m -174.20653,949.02405 a 5.4896779,5.3040366 0 0 1 -5.48324,5.30403 5.4896779,5.3040366 0 0 1 -5.49611,-5.29158 5.4896779,5.3040366 0 0 1 5.47034,-5.31646 5.4896779,5.3040366 0 0 1 5.50894,5.27911"
       transform="scale(-1,1)" />
    <path
       style="fill:#333333;fill-opacity:1;fill-rule:evenodd;stroke:#333333;stroke-width:1.22928953;stroke-linecap:butt;stroke-linejoin:miter;stroke-miterlimit:4;stroke-dasharray:none;stroke-opacity:1"
       d="m 139.69343,973.52517 c 0,0 7.0278,-1.9496 12.51753,-1.9626 5.48978,-0.0199 13.3662,2.0158 13.3662,2.0158 l -9.52078,11.5824 c -1.00704,1.22561 -1.2155,0.8708 -1.82322,1.293 l -0.0199,5.8808 -3.00345,-0.0199 -0.005,-5.8544 c -0.621,-0.43761 -0.97173,-0.264 -1.86303,-1.3122 z"
       id="path4265"
       inkscape:connector-curvature="0"
       sodipodi:nodetypes="czcccccccc" />
    <path
       style="fill:#333333;fill-opacity:1;fill-rule:evenodd;stroke:#333333;stroke-width:1.22928953;stroke-linecap:butt;stroke-linejoin:miter;stroke-miterlimit:4;stroke-dasharray:none;stroke-opacity:1"
       d="m 128.91527,977.33757 c -0.55915,-0.7142 -1.16916,-0.4046 -1.16916,-0.4046 l -39.029949,30.32383 c 0,0 -0.71297,0.7 -0.20304,1.387 0.50988,0.6868 1.47823,0.385 1.47823,0.385 l 39.005399,-30.49183 c 0,0 0.47765,-0.485 -0.0815,-1.1994 z"
       id="path4267"
       inkscape:connector-curvature="0"
       sodipodi:nodetypes="zcczccz" />
    <path
       style="fill:#333333;fill-opacity:1;fill-rule:evenodd;stroke:#333333;stroke-width:1.22928953;stroke-linecap:butt;stroke-linejoin:miter;stroke-miterlimit:4;stroke-dasharray:none;stroke-opacity:1"
       d="m 137.19869,978.88617 c -0.55914,-0.7142 -1.16913,-0.4044 -1.16913,-0.4044 l -39.029979,30.32343 c 0,0 -0.71294,0.7002 -0.20304,1.387 0.50989,0.6871 1.47823,0.3853 1.47823,0.3853 l 39.005389,-30.49193 c 0,0 0.47767,-0.485 -0.0814,-1.1994 z"
       id="path4267-8"
       inkscape:connector-curvature="0"
       sodipodi:nodetypes="zcczccz" />
    <path
       style="fill:#333333;fill-opacity:1;fill-rule:evenodd;stroke:#333333;stroke-width:1.22928953;stroke-linecap:butt;stroke-linejoin:miter;stroke-miterlimit:4;stroke-dasharray:none;stroke-opacity:1"
       d="m 176.1386,977.36917 c 0.55916,-0.71419 1.16918,-0.4044 1.16918,-0.4044 l 39.02994,30.32363 c 0,0 0.71298,0.7 0.2029,1.387 -0.50986,0.687 -1.47822,0.3852 -1.47822,0.3852 l -39.00543,-30.49183 c 0,0 -0.47766,-0.48519 0.0814,-1.1996 z"
       id="path4267-1"
       inkscape:connector-curvature="0"
       sodipodi:nodetypes="zcczccz" />
    <path
       style="fill:#333333;fill-opacity:1;fill-rule:evenodd;stroke:#333333;stroke-width:1.22928953;stroke-linecap:butt;stroke-linejoin:miter;stroke-miterlimit:4;stroke-dasharray:none;stroke-opacity:1"
       d="m 167.85518,978.91797 c 0.55911,-0.7142 1.16913,-0.4046 1.16913,-0.4046 l 39.02999,30.32363 c 0,0 0.71296,0.7002 0.2032,1.387 -0.50988,0.6869 -1.47822,0.3851 -1.47822,0.3851 l -39.00549,-30.49193 c 0,0 -0.47766,-0.4848 0.0814,-1.1992 z"
       id="path4267-8-2"
       inkscape:connector-curvature="0"
       sodipodi:nodetypes="zcczccz" />
    <path
       style="fill:#333333;fill-opacity:1;fill-rule:evenodd;stroke:none;stroke-width:1px;stroke-linecap:butt;stroke-linejoin:miter;stroke-opacity:1"
       d="m 93.203091,922.20175 14.205269,-22.34962 18.18275,-17.23572 -16.09931,-10.98542 -22.728429,-4.92448 -4.16688,25.56948 2.08344,17.23573 z"
       id="path4148"
       inkscape:connector-curvature="0" />
    <path
       style="fill:#333333;fill-opacity:1;fill-rule:evenodd;stroke:none;stroke-width:1px;stroke-linecap:butt;stroke-linejoin:miter;stroke-opacity:1"
       d="m 211.67503,922.10704 -14.20527,-22.34962 -18.18275,-17.23572 16.09931,-10.98542 22.72843,-4.92448 4.16688,25.56948 -2.08344,17.23573 z"
       id="path4148-3"
       inkscape:connector-curvature="0" />
    <path
       style="fill:#333333;fill-opacity:1;fill-rule:evenodd;stroke:none;stroke-width:1px;stroke-linecap:butt;stroke-linejoin:miter;stroke-opacity:1"
       d="m 143.00245,911.11266 -17.67858,-26.78571 12.85714,-6.96429 z"
       id="path4165"
       inkscape:connector-curvature="0" />
    <path
       style="fill:#333333;fill-opacity:1;fill-rule:evenodd;stroke:none;stroke-width:1px;stroke-linecap:butt;stroke-linejoin:miter;stroke-opacity:1"
       d="m 150.21665,905.40082 -6.77301,-31.37089 14.50683,-1.83297 z"
       id="path4165-6"
       inkscape:connector-curvature="0" />
  </g>
</svg>
