<?xml version="1.0" encoding="UTF-8" standalone="no"?>
<!-- Created with Inkscape (http://www.inkscape.org/) -->

<svg
   xmlns:dc="http://purl.org/dc/elements/1.1/"
   xmlns:cc="http://creativecommons.org/ns#"
   xmlns:rdf="http://www.w3.org/1999/02/22-rdf-syntax-ns#"
   xmlns:svg="http://www.w3.org/2000/svg"
   xmlns="http://www.w3.org/2000/svg"
   xmlns:sodipodi="http://sodipodi.sourceforge.net/DTD/sodipodi-0.dtd"
   xmlns:inkscape="http://www.inkscape.org/namespaces/inkscape"
   width="318"
   height="218"
   viewBox="0 0 318 218"
   id="svg2"
   version="1.1"
   inkscape:version="0.91 r13725"
   sodipodi:docname="plasma.svg"
   inkscape:export-filename="/home/trlinux/yaliTema/slideshow/plasma.png"
   inkscape:export-xdpi="90"
   inkscape:export-ydpi="90">
  <defs
     id="defs4" />
  <sodipodi:namedview
     id="base"
     pagecolor="#ffffff"
     bordercolor="#666666"
     borderopacity="1.0"
     inkscape:pageopacity="0.0"
     inkscape:pageshadow="2"
     inkscape:zoom="0.98994949"
     inkscape:cx="156.64567"
     inkscape:cy="3.3346231"
     inkscape:document-units="px"
     inkscape:current-layer="layer1"
     showgrid="false"
     units="px"
     inkscape:window-width="1366"
     inkscape:window-height="711"
     inkscape:window-x="0"
     inkscape:window-y="0"
     inkscape:window-maximized="1" />
  <metadata
     id="metadata7">
    <rdf:RDF>
      <cc:Work
         rdf:about="">
        <dc:format>image/svg+xml</dc:format>
        <dc:type
           rdf:resource="http://purl.org/dc/dcmitype/StillImage" />
        <dc:title />
      </cc:Work>
    </rdf:RDF>
  </metadata>
  <g
     inkscape:label="Layer 1"
     inkscape:groupmode="layer"
     id="layer1"
     transform="translate(0,-834.36216)">
    <rect
       ry="9.3749971"
       y="864.10101"
       x="186.46992"
       height="18.749994"
       width="18.749994"
       id="rect4266"
       style="fill:#f03916;fill-opacity:1;stroke:none" />
    <rect
       style="fill:#45d03f;fill-opacity:1;stroke:none"
       id="rect4268"
       width="18.749994"
       height="18.749994"
       x="209.91756"
       y="875.17352"
       ry="9.3749971" />
    <path
       style="fill:#ff6600;fill-opacity:1;fill-rule:evenodd;stroke:none"
       d="m 107.48462,891.04448 c -23.467806,20.53221 -44.33917,61.4519 -12.824786,96.60107 30.378316,33.88005 74.687236,27.15935 89.688546,18.96875 20.12814,-10.99115 19.83612,-33.1655 18.41304,-38.51225 -5.15015,-19.34727 -19.12058,-24.78095 -28.03346,-23.67015 -10.78568,1.34299 -31.62972,8.51788 -43.89089,-8.85221 -10.3857,-14.713 -1.02724,-35.95682 9.48618,-43.42922 4.3769,-3.1084 4.22178,-9.727 -1.26142,-13.01539 -10.94351,-3.46622 -25.3923,6.6222 -31.57697,11.9094 z"
       id="path6657-2"
       inkscape:connector-curvature="0"
       sodipodi:nodetypes="cccccsccc" />
    <path
       style="fill:#000000;fill-opacity:0;stroke:none"
       d="m 135.85513,877.98008 c -27.35583,0 -56.505986,42.39501 -57.187456,67.68321 0,37.79666 30.640486,68.43731 68.437456,68.43731 16.36414,-0.03 32.17569,-5.9238 44.5679,-16.61145 0.20092,-0.138 0.3976,-0.33795 0.59325,-0.5148 6.89553,-5.72775 10.88875,-14.2242 10.8984,-23.18835 0.001,-16.67123 -13.51157,-30.1881 -30.18309,-30.1905 -3.16043,0.0199 -6.29927,0.52279 -9.30178,1.50799 l -0.0437,-0.0821 c -2.96643,1.0238 -6.08208,1.5576 -9.22119,1.5686 -15.7389,0 -28.49766,-12.7596 -28.4985,-28.49861 8.0969,-30.21801 18.10067,-20.80041 18.37646,-31.68441 0,-4.66001 -3.7776,-8.43741 -8.4375,-8.43741 z m 6.93603,95.80817 c -1.1e-4,1.7223 0.14865,3.4386 0.43974,5.1342 -0.29223,-1.6953 -0.43974,-3.4134 -0.43974,-5.1342 z m 8.53273,21.03495 c 1.40453,1.44765 2.95041,2.74635 4.61427,3.882 2.4956,1.7088 5.23368,3.0314 8.12256,3.9258 1.79912,0.5502 3.64537,0.93 5.51513,1.1336 -1.86957,-0.2204 -3.71615,-0.5838 -5.51513,-1.1336 -2.88898,-0.8946 -5.62696,-2.2207 -8.12256,-3.9258 -1.66402,-1.13655 -3.20961,-2.43525 -4.61427,-3.882 z m 27.95654,8.4522 c -0.22011,0.049 -0.44388,0.1095 -0.66642,0.138 0.22557,-0.05 0.44499,-0.1095 0.66642,-0.138 z m -2.6439,0.4406 c -0.38937,0.049 -0.78016,0.1095 -1.17201,0.138 0.39161,-0.03 0.78209,-0.083 1.17201,-0.138 z"
       id="circle4229"
       inkscape:connector-curvature="0"
       sodipodi:nodetypes="ccccccccccccccccccccccccccccc" />
    <rect
       style="fill:#00bbf2;fill-opacity:1;stroke:none"
       id="rect4270"
       width="18.749994"
       height="18.749994"
       x="158.75349"
       y="865.54803"
       ry="9.3749971" />
  </g>
</svg>
